{
	"asset":{
		"generator":"Khronos glTF Blender I/O v4.0.44",
		"version":"2.0"
	},
	"scene":0,
	"scenes":[
		{
			"name":"Scene",
			"nodes":[
				0
			]
		}
	],
	"nodes":[
		{
			"mesh":0,
			"name":"Cake",
			"scale":[
				1,
				0.5866111516952515,
				1
			]
		}
	],
	"materials":[
		{
			"doubleSided":true,
			"name":"Material.054",
			"pbrMetallicRoughness":{
				"baseColorTexture":{
					"index":0
				},
				"metallicFactor":0,
				"roughnessFactor":0.5
			}
		},
		{
			"doubleSided":true,
			"name":"Material.055",
			"pbrMetallicRoughness":{
				"baseColorTexture":{
					"index":1
				},
				"metallicFactor":0,
				"roughnessFactor":0.5
			}
		},
		{
			"doubleSided":true,
			"name":"Material.053",
			"pbrMetallicRoughness":{
				"baseColorTexture":{
					"index":2
				},
				"metallicFactor":0,
				"roughnessFactor":0.5
			}
		},
		{
			"doubleSided":true,
			"name":"Material.056",
			"pbrMetallicRoughness":{
				"baseColorTexture":{
					"index":3
				},
				"metallicFactor":0,
				"roughnessFactor":0.5
			}
		},
		{
			"doubleSided":true,
			"name":"Material.057",
			"pbrMetallicRoughness":{
				"baseColorTexture":{
					"index":4
				},
				"metallicFactor":0,
				"roughnessFactor":0.5
			}
		},
		{
			"doubleSided":true,
			"name":"Material.058",
			"pbrMetallicRoughness":{
				"baseColorTexture":{
					"index":5
				},
				"metallicFactor":0,
				"roughnessFactor":0.5
			}
		},
		{
			"doubleSided":true,
			"name":"Material.059",
			"pbrMetallicRoughness":{
				"baseColorTexture":{
					"index":6
				},
				"metallicFactor":0,
				"roughnessFactor":0.5
			}
		},
		{
			"doubleSided":true,
			"name":"Material.060",
			"pbrMetallicRoughness":{
				"baseColorTexture":{
					"index":7
				},
				"metallicFactor":0,
				"roughnessFactor":0.5
			}
		},
		{
			"doubleSided":true,
			"name":"Material.061",
			"pbrMetallicRoughness":{
				"baseColorTexture":{
					"index":8
				},
				"metallicFactor":0,
				"roughnessFactor":0.5
			}
		},
		{
			"doubleSided":true,
			"name":"Material.062",
			"pbrMetallicRoughness":{
				"baseColorTexture":{
					"index":9
				},
				"metallicFactor":0,
				"roughnessFactor":0.5
			}
		},
		{
			"doubleSided":true,
			"name":"Material.063",
			"pbrMetallicRoughness":{
				"baseColorTexture":{
					"index":10
				},
				"metallicFactor":0,
				"roughnessFactor":0.5
			}
		},
		{
			"doubleSided":true,
			"name":"Material.064",
			"pbrMetallicRoughness":{
				"baseColorTexture":{
					"index":11
				},
				"metallicFactor":0,
				"roughnessFactor":0.5
			}
		}
	],
	"meshes":[
		{
			"name":"Cylinder",
			"primitives":[
				{
					"attributes":{
						"POSITION":0,
						"NORMAL":1,
						"TEXCOORD_0":2
					},
					"indices":3,
					"material":0
				},
				{
					"attributes":{
						"POSITION":4,
						"NORMAL":5,
						"TEXCOORD_0":6
					},
					"indices":7,
					"material":1
				},
				{
					"attributes":{
						"POSITION":8,
						"NORMAL":9,
						"TEXCOORD_0":10
					},
					"indices":11,
					"material":2
				},
				{
					"attributes":{
						"POSITION":12,
						"NORMAL":13,
						"TEXCOORD_0":14
					},
					"indices":15,
					"material":3
				},
				{
					"attributes":{
						"POSITION":16,
						"NORMAL":17,
						"TEXCOORD_0":18
					},
					"indices":15,
					"material":4
				},
				{
					"attributes":{
						"POSITION":19,
						"NORMAL":20,
						"TEXCOORD_0":21
					},
					"indices":22,
					"material":5
				},
				{
					"attributes":{
						"POSITION":23,
						"NORMAL":24,
						"TEXCOORD_0":25
					},
					"indices":26,
					"material":6
				},
				{
					"attributes":{
						"POSITION":27,
						"NORMAL":28,
						"TEXCOORD_0":29
					},
					"indices":30,
					"material":7
				},
				{
					"attributes":{
						"POSITION":31,
						"NORMAL":32,
						"TEXCOORD_0":33
					},
					"indices":15,
					"material":8
				},
				{
					"attributes":{
						"POSITION":34,
						"NORMAL":35,
						"TEXCOORD_0":36
					},
					"indices":37,
					"material":9
				},
				{
					"attributes":{
						"POSITION":38,
						"NORMAL":39,
						"TEXCOORD_0":40
					},
					"indices":3,
					"material":10
				},
				{
					"attributes":{
						"POSITION":41,
						"NORMAL":42,
						"TEXCOORD_0":43
					},
					"indices":44,
					"material":11
				}
			]
		}
	],
	"textures":[
		{
			"sampler":0,
			"source":0
		},
		{
			"sampler":0,
			"source":1
		},
		{
			"sampler":0,
			"source":2
		},
		{
			"sampler":0,
			"source":2
		},
		{
			"sampler":0,
			"source":2
		},
		{
			"sampler":0,
			"source":2
		},
		{
			"sampler":0,
			"source":2
		},
		{
			"sampler":0,
			"source":2
		},
		{
			"sampler":0,
			"source":2
		},
		{
			"sampler":0,
			"source":2
		},
		{
			"sampler":0,
			"source":3
		},
		{
			"sampler":0,
			"source":2
		}
	],
	"images":[
		{
			"mimeType":"image/png",
			"name":"frosting",
			"uri":"frosting.png"
		},
		{
			"mimeType":"image/png",
			"name":"outerFrosting",
			"uri":"outerFrosting.png"
		},
		{
			"mimeType":"image/png",
			"name":"cherry",
			"uri":"cherry.png"
		},
		{
			"mimeType":"image/png",
			"name":"frosting",
			"uri":"frosting-1.png"
		}
	],
	"accessors":[
		{
			"bufferView":0,
			"componentType":5126,
			"count":192,
			"max":[
				1,
				1,
				1
			],
			"min":[
				-1,
				-1,
				-1
			],
			"type":"VEC3"
		},
		{
			"bufferView":1,
			"componentType":5126,
			"count":192,
			"type":"VEC3"
		},
		{
			"bufferView":2,
			"componentType":5126,
			"count":192,
			"type":"VEC2"
		},
		{
			"bufferView":3,
			"componentType":5123,
			"count":372,
			"type":"SCALAR"
		},
		{
			"bufferView":4,
			"componentType":5126,
			"count":2304,
			"max":[
				1.266613483428955,
				-0.16448339819908142,
				1.230545997619629
			],
			"min":[
				-1.233386516571045,
				-1.0168367624282837,
				-1.269454002380371
			],
			"type":"VEC3"
		},
		{
			"bufferView":5,
			"componentType":5126,
			"count":2304,
			"type":"VEC3"
		},
		{
			"bufferView":6,
			"componentType":5126,
			"count":2304,
			"type":"VEC2"
		},
		{
			"bufferView":7,
			"componentType":5123,
			"count":3456,
			"type":"SCALAR"
		},
		{
			"bufferView":8,
			"componentType":5126,
			"count":1984,
			"max":[
				0.9472056031227112,
				1.109529972076416,
				0.09426167607307434
			],
			"min":[
				0.7472057342529297,
				0.7685885429382324,
				-0.10573825985193253
			],
			"type":"VEC3"
		},
		{
			"bufferView":9,
			"componentType":5126,
			"count":1984,
			"type":"VEC3"
		},
		{
			"bufferView":10,
			"componentType":5126,
			"count":1984,
			"type":"VEC2"
		},
		{
			"bufferView":11,
			"componentType":5123,
			"count":2880,
			"type":"SCALAR"
		},
		{
			"bufferView":12,
			"componentType":5126,
			"count":1984,
			"max":[
				0.0967441275715828,
				1.109529972076416,
				-0.7446703910827637
			],
			"min":[
				-0.1032557487487793,
				0.7685885429382324,
				-0.9446703195571899
			],
			"type":"VEC3"
		},
		{
			"bufferView":13,
			"componentType":5126,
			"count":1984,
			"type":"VEC3"
		},
		{
			"bufferView":14,
			"componentType":5126,
			"count":1984,
			"type":"VEC2"
		},
		{
			"bufferView":15,
			"componentType":5123,
			"count":2880,
			"type":"SCALAR"
		},
		{
			"bufferView":16,
			"componentType":5126,
			"count":1984,
			"max":[
				0.09743840247392654,
				1.109529972076416,
				0.9157853126525879
			],
			"min":[
				-0.10256147384643555,
				0.7685885429382324,
				0.7157853841781616
			],
			"type":"VEC3"
		},
		{
			"bufferView":17,
			"componentType":5126,
			"count":1984,
			"type":"VEC3"
		},
		{
			"bufferView":18,
			"componentType":5126,
			"count":1984,
			"type":"VEC2"
		},
		{
			"bufferView":19,
			"componentType":5126,
			"count":1984,
			"max":[
				-0.332331120967865,
				1.109529972076416,
				-0.3360285460948944
			],
			"min":[
				-0.5323309898376465,
				0.7685885429382324,
				-0.5360285043716431
			],
			"type":"VEC3"
		},
		{
			"bufferView":20,
			"componentType":5126,
			"count":1984,
			"type":"VEC3"
		},
		{
			"bufferView":21,
			"componentType":5126,
			"count":1984,
			"type":"VEC2"
		},
		{
			"bufferView":22,
			"componentType":5123,
			"count":2880,
			"type":"SCALAR"
		},
		{
			"bufferView":23,
			"componentType":5126,
			"count":1984,
			"max":[
				0.5403867363929749,
				1.109529972076416,
				0.530146598815918
			],
			"min":[
				0.34038686752319336,
				0.7685885429382324,
				0.3301467001438141
			],
			"type":"VEC3"
		},
		{
			"bufferView":24,
			"componentType":5126,
			"count":1984,
			"type":"VEC3"
		},
		{
			"bufferView":25,
			"componentType":5126,
			"count":1984,
			"type":"VEC2"
		},
		{
			"bufferView":26,
			"componentType":5123,
			"count":2880,
			"type":"SCALAR"
		},
		{
			"bufferView":27,
			"componentType":5126,
			"count":1984,
			"max":[
				-0.32519620656967163,
				1.109529972076416,
				0.5522398948669434
			],
			"min":[
				-0.5251960754394531,
				0.7685885429382324,
				0.3522399961948395
			],
			"type":"VEC3"
		},
		{
			"bufferView":28,
			"componentType":5126,
			"count":1984,
			"type":"VEC3"
		},
		{
			"bufferView":29,
			"componentType":5126,
			"count":1984,
			"type":"VEC2"
		},
		{
			"bufferView":30,
			"componentType":5123,
			"count":2880,
			"type":"SCALAR"
		},
		{
			"bufferView":31,
			"componentType":5126,
			"count":1984,
			"max":[
				0.5558391213417053,
				1.109529972076416,
				-0.3355269134044647
			],
			"min":[
				0.35583925247192383,
				0.7685885429382324,
				-0.5355268716812134
			],
			"type":"VEC3"
		},
		{
			"bufferView":32,
			"componentType":5126,
			"count":1984,
			"type":"VEC3"
		},
		{
			"bufferView":33,
			"componentType":5126,
			"count":1984,
			"type":"VEC2"
		},
		{
			"bufferView":34,
			"componentType":5126,
			"count":1984,
			"max":[
				-0.7469286322593689,
				1.109529972076416,
				0.09426167607307434
			],
			"min":[
				-0.9469285011291504,
				0.7685885429382324,
				-0.10573825985193253
			],
			"type":"VEC3"
		},
		{
			"bufferView":35,
			"componentType":5126,
			"count":1984,
			"type":"VEC3"
		},
		{
			"bufferView":36,
			"componentType":5126,
			"count":1984,
			"type":"VEC2"
		},
		{
			"bufferView":37,
			"componentType":5123,
			"count":2880,
			"type":"SCALAR"
		},
		{
			"bufferView":38,
			"componentType":5126,
			"count":192,
			"max":[
				0.49999988079071045,
				2.115617036819458,
				0.49999988079071045
			],
			"min":[
				-0.49999988079071045,
				0.967970609664917,
				-0.49999988079071045
			],
			"type":"VEC3"
		},
		{
			"bufferView":39,
			"componentType":5126,
			"count":192,
			"type":"VEC3"
		},
		{
			"bufferView":40,
			"componentType":5126,
			"count":192,
			"type":"VEC2"
		},
		{
			"bufferView":41,
			"componentType":5126,
			"count":1984,
			"max":[
				0.0967441275715828,
				2.3040528297424316,
				0.0875268280506134
			],
			"min":[
				-0.1032557487487793,
				1.963111400604248,
				-0.11247310787439346
			],
			"type":"VEC3"
		},
		{
			"bufferView":42,
			"componentType":5126,
			"count":1984,
			"type":"VEC3"
		},
		{
			"bufferView":43,
			"componentType":5126,
			"count":1984,
			"type":"VEC2"
		},
		{
			"bufferView":44,
			"componentType":5123,
			"count":2880,
			"type":"SCALAR"
		}
	],
	"bufferViews":[
		{
			"buffer":0,
			"byteLength":2304,
			"byteOffset":0,
			"target":34962
		},
		{
			"buffer":0,
			"byteLength":2304,
			"byteOffset":2304,
			"target":34962
		},
		{
			"buffer":0,
			"byteLength":1536,
			"byteOffset":4608,
			"target":34962
		},
		{
			"buffer":0,
			"byteLength":744,
			"byteOffset":6144,
			"target":34963
		},
		{
			"buffer":0,
			"byteLength":27648,
			"byteOffset":6888,
			"target":34962
		},
		{
			"buffer":0,
			"byteLength":27648,
			"byteOffset":34536,
			"target":34962
		},
		{
			"buffer":0,
			"byteLength":18432,
			"byteOffset":62184,
			"target":34962
		},
		{
			"buffer":0,
			"byteLength":6912,
			"byteOffset":80616,
			"target":34963
		},
		{
			"buffer":0,
			"byteLength":23808,
			"byteOffset":87528,
			"target":34962
		},
		{
			"buffer":0,
			"byteLength":23808,
			"byteOffset":111336,
			"target":34962
		},
		{
			"buffer":0,
			"byteLength":15872,
			"byteOffset":135144,
			"target":34962
		},
		{
			"buffer":0,
			"byteLength":5760,
			"byteOffset":151016,
			"target":34963
		},
		{
			"buffer":0,
			"byteLength":23808,
			"byteOffset":156776,
			"target":34962
		},
		{
			"buffer":0,
			"byteLength":23808,
			"byteOffset":180584,
			"target":34962
		},
		{
			"buffer":0,
			"byteLength":15872,
			"byteOffset":204392,
			"target":34962
		},
		{
			"buffer":0,
			"byteLength":5760,
			"byteOffset":220264,
			"target":34963
		},
		{
			"buffer":0,
			"byteLength":23808,
			"byteOffset":226024,
			"target":34962
		},
		{
			"buffer":0,
			"byteLength":23808,
			"byteOffset":249832,
			"target":34962
		},
		{
			"buffer":0,
			"byteLength":15872,
			"byteOffset":273640,
			"target":34962
		},
		{
			"buffer":0,
			"byteLength":23808,
			"byteOffset":289512,
			"target":34962
		},
		{
			"buffer":0,
			"byteLength":23808,
			"byteOffset":313320,
			"target":34962
		},
		{
			"buffer":0,
			"byteLength":15872,
			"byteOffset":337128,
			"target":34962
		},
		{
			"buffer":0,
			"byteLength":5760,
			"byteOffset":353000,
			"target":34963
		},
		{
			"buffer":0,
			"byteLength":23808,
			"byteOffset":358760,
			"target":34962
		},
		{
			"buffer":0,
			"byteLength":23808,
			"byteOffset":382568,
			"target":34962
		},
		{
			"buffer":0,
			"byteLength":15872,
			"byteOffset":406376,
			"target":34962
		},
		{
			"buffer":0,
			"byteLength":5760,
			"byteOffset":422248,
			"target":34963
		},
		{
			"buffer":0,
			"byteLength":23808,
			"byteOffset":428008,
			"target":34962
		},
		{
			"buffer":0,
			"byteLength":23808,
			"byteOffset":451816,
			"target":34962
		},
		{
			"buffer":0,
			"byteLength":15872,
			"byteOffset":475624,
			"target":34962
		},
		{
			"buffer":0,
			"byteLength":5760,
			"byteOffset":491496,
			"target":34963
		},
		{
			"buffer":0,
			"byteLength":23808,
			"byteOffset":497256,
			"target":34962
		},
		{
			"buffer":0,
			"byteLength":23808,
			"byteOffset":521064,
			"target":34962
		},
		{
			"buffer":0,
			"byteLength":15872,
			"byteOffset":544872,
			"target":34962
		},
		{
			"buffer":0,
			"byteLength":23808,
			"byteOffset":560744,
			"target":34962
		},
		{
			"buffer":0,
			"byteLength":23808,
			"byteOffset":584552,
			"target":34962
		},
		{
			"buffer":0,
			"byteLength":15872,
			"byteOffset":608360,
			"target":34962
		},
		{
			"buffer":0,
			"byteLength":5760,
			"byteOffset":624232,
			"target":34963
		},
		{
			"buffer":0,
			"byteLength":2304,
			"byteOffset":629992,
			"target":34962
		},
		{
			"buffer":0,
			"byteLength":2304,
			"byteOffset":632296,
			"target":34962
		},
		{
			"buffer":0,
			"byteLength":1536,
			"byteOffset":634600,
			"target":34962
		},
		{
			"buffer":0,
			"byteLength":23808,
			"byteOffset":636136,
			"target":34962
		},
		{
			"buffer":0,
			"byteLength":23808,
			"byteOffset":659944,
			"target":34962
		},
		{
			"buffer":0,
			"byteLength":15872,
			"byteOffset":683752,
			"target":34962
		},
		{
			"buffer":0,
			"byteLength":5760,
			"byteOffset":699624,
			"target":34963
		}
	],
	"samplers":[
		{
			"magFilter":9729,
			"minFilter":9987
		}
	],
	"buffers":[
		{
			"byteLength":705384,
			"uri":"cake.bin"
		}
	]
}
