{
	"asset":{
		"generator":"Khronos glTF Blender I/O v4.0.44",
		"version":"2.0"
	},
	"scene":0,
	"scenes":[
		{
			"name":"Scene",
			"nodes":[
				0
			]
		}
	],
	"nodes":[
		{
			"mesh":0,
			"name":"Ceiling",
			"scale":[
				115.7188491821289,
				1,
				64.57737731933594
			],
			"translation":[
				65.57678985595703,
				53.41653823852539,
				-22.019546508789062
			]
		}
	],
	"materials":[
		{
			"doubleSided":true,
			"name":"Material.019",
			"pbrMetallicRoughness":{
				"baseColorTexture":{
					"index":0
				},
				"metallicFactor":0,
				"roughnessFactor":0.5
			}
		},
		{
			"doubleSided":true,
			"name":"Material.015",
			"pbrMetallicRoughness":{
				"baseColorTexture":{
					"index":1
				},
				"metallicFactor":0,
				"roughnessFactor":0.5
			}
		},
		{
			"doubleSided":true,
			"name":"Material.016",
			"pbrMetallicRoughness":{
				"baseColorTexture":{
					"index":2
				},
				"metallicFactor":0,
				"roughnessFactor":0.5
			}
		},
		{
			"doubleSided":true,
			"name":"Material.017",
			"pbrMetallicRoughness":{
				"baseColorTexture":{
					"index":3
				},
				"metallicFactor":0,
				"roughnessFactor":0.5
			}
		},
		{
			"doubleSided":true,
			"name":"Material.014",
			"pbrMetallicRoughness":{
				"baseColorTexture":{
					"index":4
				},
				"metallicFactor":0,
				"roughnessFactor":0.5
			}
		},
		{
			"doubleSided":true,
			"name":"Material.073",
			"pbrMetallicRoughness":{
				"baseColorTexture":{
					"index":5
				},
				"metallicFactor":0,
				"roughnessFactor":0.5
			}
		}
	],
	"meshes":[
		{
			"name":"Plane.001",
			"primitives":[
				{
					"attributes":{
						"POSITION":0,
						"NORMAL":1,
						"TEXCOORD_0":2,
						"TANGENT":3
					},
					"indices":4,
					"material":0
				},
				{
					"attributes":{
						"POSITION":5,
						"NORMAL":6,
						"TEXCOORD_0":7,
						"TANGENT":8
					},
					"indices":9,
					"material":1
				},
				{
					"attributes":{
						"POSITION":10,
						"NORMAL":11,
						"TEXCOORD_0":12,
						"TANGENT":13
					},
					"indices":14,
					"material":2
				},
				{
					"attributes":{
						"POSITION":15,
						"NORMAL":16,
						"TEXCOORD_0":17,
						"TANGENT":18
					},
					"indices":9,
					"material":3
				},
				{
					"attributes":{
						"POSITION":19,
						"NORMAL":20,
						"TEXCOORD_0":21,
						"TANGENT":22
					},
					"indices":14,
					"material":4
				},
				{
					"attributes":{
						"POSITION":23,
						"NORMAL":24,
						"TEXCOORD_0":25,
						"TANGENT":26
					},
					"indices":4,
					"material":5
				}
			]
		}
	],
	"textures":[
		{
			"sampler":0,
			"source":0
		},
		{
			"sampler":0,
			"source":1
		},
		{
			"sampler":0,
			"source":1
		},
		{
			"sampler":0,
			"source":1
		},
		{
			"sampler":0,
			"source":1
		},
		{
			"sampler":0,
			"source":2
		}
	],
	"images":[
		{
			"mimeType":"image/png",
			"name":"ceiling2",
			"uri":"ceiling2.png"
		},
		{
			"mimeType":"image/png",
			"name":"wall2",
			"uri":"wall2.png"
		},
		{
			"mimeType":"image/png",
			"name":"floor2",
			"uri":"floor2.png"
		}
	],
	"accessors":[
		{
			"bufferView":0,
			"componentType":5126,
			"count":4,
			"max":[
				1,
				1.601841597732856e-12,
				1
			],
			"min":[
				-1,
				1.957834393738478e-13,
				-1
			],
			"type":"VEC3"
		},
		{
			"bufferView":1,
			"componentType":5126,
			"count":4,
			"type":"VEC3"
		},
		{
			"bufferView":2,
			"componentType":5126,
			"count":4,
			"type":"VEC2"
		},
		{
			"bufferView":3,
			"componentType":5126,
			"count":4,
			"type":"VEC4"
		},
		{
			"bufferView":4,
			"componentType":5123,
			"count":6,
			"type":"SCALAR"
		},
		{
			"bufferView":5,
			"componentType":5126,
			"count":24,
			"max":[
				0.9536806344985962,
				0.3054618835449219,
				0.9973658919334412
			],
			"min":[
				-0.9570043087005615,
				-54.38420486450195,
				0.9623567461967468
			],
			"type":"VEC3"
		},
		{
			"bufferView":6,
			"componentType":5126,
			"count":24,
			"type":"VEC3"
		},
		{
			"bufferView":7,
			"componentType":5126,
			"count":24,
			"type":"VEC2"
		},
		{
			"bufferView":8,
			"componentType":5126,
			"count":24,
			"type":"VEC4"
		},
		{
			"bufferView":9,
			"componentType":5123,
			"count":36,
			"type":"SCALAR"
		},
		{
			"bufferView":10,
			"componentType":5126,
			"count":24,
			"max":[
				-0.957007110118866,
				0.24198532104492188,
				0.9934993982315063
			],
			"min":[
				-0.9742904305458069,
				-54.45801544189453,
				-1.0074809789657593
			],
			"type":"VEC3"
		},
		{
			"bufferView":11,
			"componentType":5126,
			"count":24,
			"type":"VEC3"
		},
		{
			"bufferView":12,
			"componentType":5126,
			"count":24,
			"type":"VEC2"
		},
		{
			"bufferView":13,
			"componentType":5126,
			"count":24,
			"type":"VEC4"
		},
		{
			"bufferView":14,
			"componentType":5123,
			"count":36,
			"type":"SCALAR"
		},
		{
			"bufferView":15,
			"componentType":5126,
			"count":24,
			"max":[
				0.953680694103241,
				0.275115966796875,
				-0.9701482653617859
			],
			"min":[
				-0.9570043683052063,
				-54.42488479614258,
				-1.005157470703125
			],
			"type":"VEC3"
		},
		{
			"bufferView":16,
			"componentType":5126,
			"count":24,
			"type":"VEC3"
		},
		{
			"bufferView":17,
			"componentType":5126,
			"count":24,
			"type":"VEC2"
		},
		{
			"bufferView":18,
			"componentType":5126,
			"count":24,
			"type":"VEC4"
		},
		{
			"bufferView":19,
			"componentType":5126,
			"count":24,
			"max":[
				0.9709004759788513,
				0.2615852355957031,
				1.0399129390716553
			],
			"min":[
				0.9536171555519104,
				-54.43841552734375,
				-1.0104293823242188
			],
			"type":"VEC3"
		},
		{
			"bufferView":20,
			"componentType":5126,
			"count":24,
			"type":"VEC3"
		},
		{
			"bufferView":21,
			"componentType":5126,
			"count":24,
			"type":"VEC2"
		},
		{
			"bufferView":22,
			"componentType":5126,
			"count":24,
			"type":"VEC4"
		},
		{
			"bufferView":23,
			"componentType":5126,
			"count":4,
			"max":[
				0.9999998807907104,
				-53.416534423828125,
				1
			],
			"min":[
				-1,
				-53.416534423828125,
				-1
			],
			"type":"VEC3"
		},
		{
			"bufferView":24,
			"componentType":5126,
			"count":4,
			"type":"VEC3"
		},
		{
			"bufferView":25,
			"componentType":5126,
			"count":4,
			"type":"VEC2"
		},
		{
			"bufferView":26,
			"componentType":5126,
			"count":4,
			"type":"VEC4"
		}
	],
	"bufferViews":[
		{
			"buffer":0,
			"byteLength":48,
			"byteOffset":0,
			"target":34962
		},
		{
			"buffer":0,
			"byteLength":48,
			"byteOffset":48,
			"target":34962
		},
		{
			"buffer":0,
			"byteLength":32,
			"byteOffset":96,
			"target":34962
		},
		{
			"buffer":0,
			"byteLength":64,
			"byteOffset":128,
			"target":34962
		},
		{
			"buffer":0,
			"byteLength":12,
			"byteOffset":192,
			"target":34963
		},
		{
			"buffer":0,
			"byteLength":288,
			"byteOffset":204,
			"target":34962
		},
		{
			"buffer":0,
			"byteLength":288,
			"byteOffset":492,
			"target":34962
		},
		{
			"buffer":0,
			"byteLength":192,
			"byteOffset":780,
			"target":34962
		},
		{
			"buffer":0,
			"byteLength":384,
			"byteOffset":972,
			"target":34962
		},
		{
			"buffer":0,
			"byteLength":72,
			"byteOffset":1356,
			"target":34963
		},
		{
			"buffer":0,
			"byteLength":288,
			"byteOffset":1428,
			"target":34962
		},
		{
			"buffer":0,
			"byteLength":288,
			"byteOffset":1716,
			"target":34962
		},
		{
			"buffer":0,
			"byteLength":192,
			"byteOffset":2004,
			"target":34962
		},
		{
			"buffer":0,
			"byteLength":384,
			"byteOffset":2196,
			"target":34962
		},
		{
			"buffer":0,
			"byteLength":72,
			"byteOffset":2580,
			"target":34963
		},
		{
			"buffer":0,
			"byteLength":288,
			"byteOffset":2652,
			"target":34962
		},
		{
			"buffer":0,
			"byteLength":288,
			"byteOffset":2940,
			"target":34962
		},
		{
			"buffer":0,
			"byteLength":192,
			"byteOffset":3228,
			"target":34962
		},
		{
			"buffer":0,
			"byteLength":384,
			"byteOffset":3420,
			"target":34962
		},
		{
			"buffer":0,
			"byteLength":288,
			"byteOffset":3804,
			"target":34962
		},
		{
			"buffer":0,
			"byteLength":288,
			"byteOffset":4092,
			"target":34962
		},
		{
			"buffer":0,
			"byteLength":192,
			"byteOffset":4380,
			"target":34962
		},
		{
			"buffer":0,
			"byteLength":384,
			"byteOffset":4572,
			"target":34962
		},
		{
			"buffer":0,
			"byteLength":48,
			"byteOffset":4956,
			"target":34962
		},
		{
			"buffer":0,
			"byteLength":48,
			"byteOffset":5004,
			"target":34962
		},
		{
			"buffer":0,
			"byteLength":32,
			"byteOffset":5052,
			"target":34962
		},
		{
			"buffer":0,
			"byteLength":64,
			"byteOffset":5084,
			"target":34962
		}
	],
	"samplers":[
		{
			"magFilter":9729,
			"minFilter":9987
		}
	],
	"buffers":[
		{
			"byteLength":5148,
			"uri":"resturant2.bin"
		}
	]
}
