{
	"asset":{
		"generator":"Khronos glTF Blender I/O v4.0.44",
		"version":"2.0"
	},
	"scene":0,
	"scenes":[
		{
			"name":"Scene",
			"nodes":[
				0,
				1,
				2
			]
		}
	],
	"nodes":[
		{
			"mesh":0,
			"name":"Bacon",
			"scale":[
				0.16942739486694336,
				1,
				1
			],
			"translation":[
				7.134068489074707,
				0,
				21.204072952270508
			]
		},
		{
			"mesh":1,
			"name":"Bacon.001",
			"rotation":[
				0,
				-0.15662486851215363,
				0,
				0.9876581430435181
			],
			"scale":[
				0.16942740976810455,
				1,
				1
			],
			"translation":[
				8.088008880615234,
				0.0977180004119873,
				21.204072952270508
			]
		},
		{
			"mesh":2,
			"name":"Bacon.002",
			"rotation":[
				-0.01075411681085825,
				-0.9951784610748291,
				0.0010534407338127494,
				0.09748467057943344
			],
			"scale":[
				0.16941826045513153,
				0.8771745562553406,
				1
			],
			"translation":[
				6.435369491577148,
				0,
				21.29262351989746
			]
		}
	],
	"animations":[
		{
			"channels":[
				{
					"sampler":0,
					"target":{
						"node":0,
						"path":"translation"
					}
				}
			],
			"name":"BaconAction",
			"samplers":[
				{
					"input":15,
					"interpolation":"LINEAR",
					"output":16
				}
			]
		},
		{
			"channels":[
				{
					"sampler":0,
					"target":{
						"node":1,
						"path":"translation"
					}
				}
			],
			"name":"Bacon.001Action",
			"samplers":[
				{
					"input":15,
					"interpolation":"LINEAR",
					"output":17
				}
			]
		},
		{
			"channels":[
				{
					"sampler":0,
					"target":{
						"node":2,
						"path":"translation"
					}
				}
			],
			"name":"Bacon.002Action",
			"samplers":[
				{
					"input":15,
					"interpolation":"LINEAR",
					"output":18
				}
			]
		}
	],
	"materials":[
		{
			"doubleSided":true,
			"name":"Material.005",
			"pbrMetallicRoughness":{
				"baseColorTexture":{
					"index":0
				},
				"metallicFactor":0,
				"roughnessFactor":0.5
			}
		},
		{
			"doubleSided":true,
			"name":"Material.006",
			"pbrMetallicRoughness":{
				"baseColorTexture":{
					"index":1
				},
				"metallicFactor":0,
				"roughnessFactor":0.5
			}
		},
		{
			"doubleSided":true,
			"name":"Material.009",
			"pbrMetallicRoughness":{
				"baseColorTexture":{
					"index":2
				},
				"metallicFactor":0,
				"roughnessFactor":0.5
			}
		}
	],
	"meshes":[
		{
			"name":"Plane.002",
			"primitives":[
				{
					"attributes":{
						"POSITION":0,
						"NORMAL":1,
						"TEXCOORD_0":2,
						"TANGENT":3
					},
					"indices":4,
					"material":0
				}
			]
		},
		{
			"name":"Plane.003",
			"primitives":[
				{
					"attributes":{
						"POSITION":5,
						"NORMAL":6,
						"TEXCOORD_0":7,
						"TANGENT":8
					},
					"indices":9,
					"material":1
				}
			]
		},
		{
			"name":"Plane.004",
			"primitives":[
				{
					"attributes":{
						"POSITION":10,
						"NORMAL":11,
						"TEXCOORD_0":12,
						"TANGENT":13
					},
					"indices":14,
					"material":2
				}
			]
		}
	],
	"textures":[
		{
			"sampler":0,
			"source":0
		},
		{
			"sampler":0,
			"source":0
		},
		{
			"sampler":0,
			"source":0
		}
	],
	"images":[
		{
			"mimeType":"image/png",
			"name":"Bacon",
			"uri":"Bacon.png"
		}
	],
	"accessors":[
		{
			"bufferView":0,
			"componentType":5126,
			"count":105,
			"max":[
				1.1323161125183105,
				0.24831190705299377,
				1.0119013786315918
			],
			"min":[
				-1.086174726486206,
				0.012816076166927814,
				-1.00889253616333
			],
			"type":"VEC3"
		},
		{
			"bufferView":1,
			"componentType":5126,
			"count":105,
			"type":"VEC3"
		},
		{
			"bufferView":2,
			"componentType":5126,
			"count":105,
			"type":"VEC2"
		},
		{
			"bufferView":3,
			"componentType":5126,
			"count":105,
			"type":"VEC4"
		},
		{
			"bufferView":4,
			"componentType":5123,
			"count":480,
			"type":"SCALAR"
		},
		{
			"bufferView":5,
			"componentType":5126,
			"count":75,
			"max":[
				0.9208890199661255,
				0.15413066744804382,
				0.8502275943756104
			],
			"min":[
				-1.1530933380126953,
				-0.07660701125860214,
				-0.6093348264694214
			],
			"type":"VEC3"
		},
		{
			"bufferView":6,
			"componentType":5126,
			"count":75,
			"type":"VEC3"
		},
		{
			"bufferView":7,
			"componentType":5126,
			"count":75,
			"type":"VEC2"
		},
		{
			"bufferView":8,
			"componentType":5126,
			"count":75,
			"type":"VEC4"
		},
		{
			"bufferView":9,
			"componentType":5123,
			"count":336,
			"type":"SCALAR"
		},
		{
			"bufferView":10,
			"componentType":5126,
			"count":105,
			"max":[
				1.1445401906967163,
				0.11635024100542068,
				1.1211981773376465
			],
			"min":[
				-1.002515435218811,
				-0.06733743846416473,
				-0.98228520154953
			],
			"type":"VEC3"
		},
		{
			"bufferView":11,
			"componentType":5126,
			"count":105,
			"type":"VEC3"
		},
		{
			"bufferView":12,
			"componentType":5126,
			"count":105,
			"type":"VEC2"
		},
		{
			"bufferView":13,
			"componentType":5126,
			"count":105,
			"type":"VEC4"
		},
		{
			"bufferView":14,
			"componentType":5123,
			"count":480,
			"type":"SCALAR"
		},
		{
			"bufferView":15,
			"componentType":5126,
			"count":1,
			"max":[
				0
			],
			"min":[
				0
			],
			"type":"SCALAR"
		},
		{
			"bufferView":16,
			"componentType":5126,
			"count":1,
			"type":"VEC3"
		},
		{
			"bufferView":17,
			"componentType":5126,
			"count":1,
			"type":"VEC3"
		},
		{
			"bufferView":18,
			"componentType":5126,
			"count":1,
			"type":"VEC3"
		}
	],
	"bufferViews":[
		{
			"buffer":0,
			"byteLength":1260,
			"byteOffset":0,
			"target":34962
		},
		{
			"buffer":0,
			"byteLength":1260,
			"byteOffset":1260,
			"target":34962
		},
		{
			"buffer":0,
			"byteLength":840,
			"byteOffset":2520,
			"target":34962
		},
		{
			"buffer":0,
			"byteLength":1680,
			"byteOffset":3360,
			"target":34962
		},
		{
			"buffer":0,
			"byteLength":960,
			"byteOffset":5040,
			"target":34963
		},
		{
			"buffer":0,
			"byteLength":900,
			"byteOffset":6000,
			"target":34962
		},
		{
			"buffer":0,
			"byteLength":900,
			"byteOffset":6900,
			"target":34962
		},
		{
			"buffer":0,
			"byteLength":600,
			"byteOffset":7800,
			"target":34962
		},
		{
			"buffer":0,
			"byteLength":1200,
			"byteOffset":8400,
			"target":34962
		},
		{
			"buffer":0,
			"byteLength":672,
			"byteOffset":9600,
			"target":34963
		},
		{
			"buffer":0,
			"byteLength":1260,
			"byteOffset":10272,
			"target":34962
		},
		{
			"buffer":0,
			"byteLength":1260,
			"byteOffset":11532,
			"target":34962
		},
		{
			"buffer":0,
			"byteLength":840,
			"byteOffset":12792,
			"target":34962
		},
		{
			"buffer":0,
			"byteLength":1680,
			"byteOffset":13632,
			"target":34962
		},
		{
			"buffer":0,
			"byteLength":960,
			"byteOffset":15312,
			"target":34963
		},
		{
			"buffer":0,
			"byteLength":4,
			"byteOffset":16272
		},
		{
			"buffer":0,
			"byteLength":12,
			"byteOffset":16276
		},
		{
			"buffer":0,
			"byteLength":12,
			"byteOffset":16288
		},
		{
			"buffer":0,
			"byteLength":12,
			"byteOffset":16300
		}
	],
	"samplers":[
		{
			"magFilter":9729,
			"minFilter":9987
		}
	],
	"buffers":[
		{
			"byteLength":16312,
			"uri":"bacon.bin"
		}
	]
}
