{
	"asset":{
		"generator":"Khronos glTF Blender I/O v4.0.44",
		"version":"2.0"
	},
	"scene":0,
	"scenes":[
		{
			"name":"Scene",
			"nodes":[
				0
			]
		}
	],
	"nodes":[
		{
			"mesh":0,
			"name":"Patty",
			"scale":[
				1,
				0.1460423767566681,
				1
			]
		}
	],
	"materials":[
		{
			"doubleSided":true,
			"name":"Material.013",
			"pbrMetallicRoughness":{
				"baseColorTexture":{
					"index":0
				},
				"metallicFactor":0,
				"roughnessFactor":0.5
			}
		},
		{
			"doubleSided":true,
			"name":"Under carriage.010",
			"pbrMetallicRoughness":{
				"baseColorTexture":{
					"index":1
				},
				"metallicFactor":0,
				"roughnessFactor":0.5
			}
		},
		{
			"doubleSided":true,
			"name":"Under carriage.002",
			"pbrMetallicRoughness":{
				"baseColorTexture":{
					"index":2
				},
				"metallicFactor":0,
				"roughnessFactor":0.5
			}
		},
		{
			"doubleSided":true,
			"name":"Under carriage.001",
			"pbrMetallicRoughness":{
				"baseColorTexture":{
					"index":3
				},
				"metallicFactor":0,
				"roughnessFactor":0.5
			}
		},
		{
			"doubleSided":true,
			"name":"Under carriage.011",
			"pbrMetallicRoughness":{
				"baseColorTexture":{
					"index":4
				},
				"metallicFactor":0,
				"roughnessFactor":0.5
			}
		},
		{
			"doubleSided":true,
			"name":"Material.003",
			"pbrMetallicRoughness":{
				"baseColorTexture":{
					"index":5
				},
				"metallicFactor":0,
				"roughnessFactor":0.5
			}
		},
		{
			"doubleSided":true,
			"name":"Material.004",
			"pbrMetallicRoughness":{
				"baseColorTexture":{
					"index":6
				},
				"metallicFactor":0,
				"roughnessFactor":0.5
			}
		}
	],
	"meshes":[
		{
			"name":"Sphere.005",
			"primitives":[
				{
					"attributes":{
						"POSITION":0,
						"NORMAL":1,
						"TEXCOORD_0":2,
						"TANGENT":3
					},
					"indices":4,
					"material":0
				},
				{
					"attributes":{
						"POSITION":5,
						"NORMAL":6,
						"TEXCOORD_0":7,
						"TANGENT":8
					},
					"indices":9,
					"material":1
				},
				{
					"attributes":{
						"POSITION":10,
						"NORMAL":11,
						"TEXCOORD_0":12,
						"TANGENT":13
					},
					"indices":14,
					"material":2
				},
				{
					"attributes":{
						"POSITION":15,
						"NORMAL":16,
						"TEXCOORD_0":17,
						"TANGENT":18
					},
					"indices":19,
					"material":3
				},
				{
					"attributes":{
						"POSITION":20,
						"NORMAL":21,
						"TEXCOORD_0":22,
						"TANGENT":23
					},
					"indices":24,
					"material":4
				},
				{
					"attributes":{
						"POSITION":25,
						"NORMAL":26,
						"TEXCOORD_0":27,
						"TANGENT":28
					},
					"indices":29,
					"material":5
				},
				{
					"attributes":{
						"POSITION":30,
						"NORMAL":31,
						"TEXCOORD_0":32,
						"TANGENT":33
					},
					"indices":34,
					"material":6
				}
			]
		}
	],
	"textures":[
		{
			"sampler":0,
			"source":0
		},
		{
			"sampler":0,
			"source":1
		},
		{
			"sampler":0,
			"source":1
		},
		{
			"sampler":0,
			"source":1
		},
		{
			"sampler":0,
			"source":1
		},
		{
			"sampler":0,
			"source":2
		},
		{
			"sampler":0,
			"source":3
		}
	],
	"images":[
		{
			"mimeType":"image/png",
			"name":"Burger",
			"uri":"Burger.png"
		},
		{
			"mimeType":"image/png",
			"name":"topBun",
			"uri":"topBun.png"
		},
		{
			"mimeType":"image/png",
			"name":"cheese",
			"uri":"cheese.png"
		},
		{
			"mimeType":"image/png",
			"name":"tomato",
			"uri":"tomato.png"
		}
	],
	"accessors":[
		{
			"bufferView":0,
			"componentType":5126,
			"count":1984,
			"max":[
				0.9999997019767761,
				1,
				0.9999993443489075
			],
			"min":[
				-0.9999990463256836,
				-1,
				-1
			],
			"type":"VEC3"
		},
		{
			"bufferView":1,
			"componentType":5126,
			"count":1984,
			"type":"VEC3"
		},
		{
			"bufferView":2,
			"componentType":5126,
			"count":1984,
			"type":"VEC2"
		},
		{
			"bufferView":3,
			"componentType":5126,
			"count":1984,
			"type":"VEC4"
		},
		{
			"bufferView":4,
			"componentType":5123,
			"count":2880,
			"type":"SCALAR"
		},
		{
			"bufferView":5,
			"componentType":5126,
			"count":687,
			"max":[
				0.9462776184082031,
				-0.8023182153701782,
				0.9762987494468689
			],
			"min":[
				-0.94462651014328,
				-0.8023896813392639,
				-0.9384738206863403
			],
			"type":"VEC3"
		},
		{
			"bufferView":6,
			"componentType":5126,
			"count":687,
			"type":"VEC3"
		},
		{
			"bufferView":7,
			"componentType":5126,
			"count":687,
			"type":"VEC2"
		},
		{
			"bufferView":8,
			"componentType":5126,
			"count":687,
			"type":"VEC4"
		},
		{
			"bufferView":9,
			"componentType":5123,
			"count":1248,
			"type":"SCALAR"
		},
		{
			"bufferView":10,
			"componentType":5126,
			"count":864,
			"max":[
				0.9462777972221375,
				-0.8168877959251404,
				0.9762987494468689
			],
			"min":[
				-0.9446262717247009,
				-3.406585931777954,
				-0.9384738206863403
			],
			"type":"VEC3"
		},
		{
			"bufferView":11,
			"componentType":5126,
			"count":864,
			"type":"VEC3"
		},
		{
			"bufferView":12,
			"componentType":5126,
			"count":864,
			"type":"VEC2"
		},
		{
			"bufferView":13,
			"componentType":5126,
			"count":864,
			"type":"VEC4"
		},
		{
			"bufferView":14,
			"componentType":5123,
			"count":1248,
			"type":"SCALAR"
		},
		{
			"bufferView":15,
			"componentType":5126,
			"count":864,
			"max":[
				0.9619601964950562,
				5.622926712036133,
				0.9476782083511353
			],
			"min":[
				-1.0063285827636719,
				1.0281486511230469,
				-0.968355119228363
			],
			"type":"VEC3"
		},
		{
			"bufferView":16,
			"componentType":5126,
			"count":864,
			"type":"VEC3"
		},
		{
			"bufferView":17,
			"componentType":5126,
			"count":864,
			"type":"VEC2"
		},
		{
			"bufferView":18,
			"componentType":5126,
			"count":864,
			"type":"VEC4"
		},
		{
			"bufferView":19,
			"componentType":5123,
			"count":1248,
			"type":"SCALAR"
		},
		{
			"bufferView":20,
			"componentType":5126,
			"count":679,
			"max":[
				0.961959958076477,
				1.0261708498001099,
				0.9476785063743591
			],
			"min":[
				-1.006328821182251,
				1.0260993242263794,
				-0.9683548212051392
			],
			"type":"VEC3"
		},
		{
			"bufferView":21,
			"componentType":5126,
			"count":679,
			"type":"VEC3"
		},
		{
			"bufferView":22,
			"componentType":5126,
			"count":679,
			"type":"VEC2"
		},
		{
			"bufferView":23,
			"componentType":5126,
			"count":679,
			"type":"VEC4"
		},
		{
			"bufferView":24,
			"componentType":5123,
			"count":1248,
			"type":"SCALAR"
		},
		{
			"bufferView":25,
			"componentType":5126,
			"count":4,
			"max":[
				0.8011776208877563,
				2.01808500289917,
				0.8769960999488831
			],
			"min":[
				-0.9695329666137695,
				0.404954195022583,
				-0.7173396944999695
			],
			"type":"VEC3"
		},
		{
			"bufferView":26,
			"componentType":5126,
			"count":4,
			"type":"VEC3"
		},
		{
			"bufferView":27,
			"componentType":5126,
			"count":4,
			"type":"VEC2"
		},
		{
			"bufferView":28,
			"componentType":5126,
			"count":4,
			"type":"VEC4"
		},
		{
			"bufferView":29,
			"componentType":5123,
			"count":6,
			"type":"SCALAR"
		},
		{
			"bufferView":30,
			"componentType":5126,
			"count":1984,
			"max":[
				0.1472049355506897,
				1.5684767961502075,
				0.09800481796264648
			],
			"min":[
				-0.9590293765068054,
				0.9020127058029175,
				-0.9851454496383667
			],
			"type":"VEC3"
		},
		{
			"bufferView":31,
			"componentType":5126,
			"count":1984,
			"type":"VEC3"
		},
		{
			"bufferView":32,
			"componentType":5126,
			"count":1984,
			"type":"VEC2"
		},
		{
			"bufferView":33,
			"componentType":5126,
			"count":1984,
			"type":"VEC4"
		},
		{
			"bufferView":34,
			"componentType":5123,
			"count":2880,
			"type":"SCALAR"
		}
	],
	"bufferViews":[
		{
			"buffer":0,
			"byteLength":23808,
			"byteOffset":0,
			"target":34962
		},
		{
			"buffer":0,
			"byteLength":23808,
			"byteOffset":23808,
			"target":34962
		},
		{
			"buffer":0,
			"byteLength":15872,
			"byteOffset":47616,
			"target":34962
		},
		{
			"buffer":0,
			"byteLength":31744,
			"byteOffset":63488,
			"target":34962
		},
		{
			"buffer":0,
			"byteLength":5760,
			"byteOffset":95232,
			"target":34963
		},
		{
			"buffer":0,
			"byteLength":8244,
			"byteOffset":100992,
			"target":34962
		},
		{
			"buffer":0,
			"byteLength":8244,
			"byteOffset":109236,
			"target":34962
		},
		{
			"buffer":0,
			"byteLength":5496,
			"byteOffset":117480,
			"target":34962
		},
		{
			"buffer":0,
			"byteLength":10992,
			"byteOffset":122976,
			"target":34962
		},
		{
			"buffer":0,
			"byteLength":2496,
			"byteOffset":133968,
			"target":34963
		},
		{
			"buffer":0,
			"byteLength":10368,
			"byteOffset":136464,
			"target":34962
		},
		{
			"buffer":0,
			"byteLength":10368,
			"byteOffset":146832,
			"target":34962
		},
		{
			"buffer":0,
			"byteLength":6912,
			"byteOffset":157200,
			"target":34962
		},
		{
			"buffer":0,
			"byteLength":13824,
			"byteOffset":164112,
			"target":34962
		},
		{
			"buffer":0,
			"byteLength":2496,
			"byteOffset":177936,
			"target":34963
		},
		{
			"buffer":0,
			"byteLength":10368,
			"byteOffset":180432,
			"target":34962
		},
		{
			"buffer":0,
			"byteLength":10368,
			"byteOffset":190800,
			"target":34962
		},
		{
			"buffer":0,
			"byteLength":6912,
			"byteOffset":201168,
			"target":34962
		},
		{
			"buffer":0,
			"byteLength":13824,
			"byteOffset":208080,
			"target":34962
		},
		{
			"buffer":0,
			"byteLength":2496,
			"byteOffset":221904,
			"target":34963
		},
		{
			"buffer":0,
			"byteLength":8148,
			"byteOffset":224400,
			"target":34962
		},
		{
			"buffer":0,
			"byteLength":8148,
			"byteOffset":232548,
			"target":34962
		},
		{
			"buffer":0,
			"byteLength":5432,
			"byteOffset":240696,
			"target":34962
		},
		{
			"buffer":0,
			"byteLength":10864,
			"byteOffset":246128,
			"target":34962
		},
		{
			"buffer":0,
			"byteLength":2496,
			"byteOffset":256992,
			"target":34963
		},
		{
			"buffer":0,
			"byteLength":48,
			"byteOffset":259488,
			"target":34962
		},
		{
			"buffer":0,
			"byteLength":48,
			"byteOffset":259536,
			"target":34962
		},
		{
			"buffer":0,
			"byteLength":32,
			"byteOffset":259584,
			"target":34962
		},
		{
			"buffer":0,
			"byteLength":64,
			"byteOffset":259616,
			"target":34962
		},
		{
			"buffer":0,
			"byteLength":12,
			"byteOffset":259680,
			"target":34963
		},
		{
			"buffer":0,
			"byteLength":23808,
			"byteOffset":259692,
			"target":34962
		},
		{
			"buffer":0,
			"byteLength":23808,
			"byteOffset":283500,
			"target":34962
		},
		{
			"buffer":0,
			"byteLength":15872,
			"byteOffset":307308,
			"target":34962
		},
		{
			"buffer":0,
			"byteLength":31744,
			"byteOffset":323180,
			"target":34962
		},
		{
			"buffer":0,
			"byteLength":5760,
			"byteOffset":354924,
			"target":34963
		}
	],
	"samplers":[
		{
			"magFilter":9729,
			"minFilter":9987
		}
	],
	"buffers":[
		{
			"byteLength":360684,
			"uri":"burger.bin"
		}
	]
}
