{
	"asset":{
		"generator":"Khronos glTF Blender I/O v4.0.44",
		"version":"2.0"
	},
	"scene":0,
	"scenes":[
		{
			"name":"Scene",
			"nodes":[
				6
			]
		}
	],
	"nodes":[
		{
			"name":"Bone.002",
			"rotation":[
				-7.8097103415806664e-31,
				1.1920927533992653e-07,
				6.617444900424222e-24,
				1
			],
			"scale":[
				1,
				0.9999999403953552,
				1
			],
			"translation":[
				-1.3234889800848443e-23,
				0.8401889801025391,
				1.3224311446750734e-38
			]
		},
		{
			"children":[
				0
			],
			"name":"Bone.001",
			"rotation":[
				-2.082973344794804e-32,
				-7.106472093332101e-17,
				-7.106472093332101e-17,
				1
			],
			"translation":[
				0,
				1,
				0
			]
		},
		{
			"children":[
				1
			],
			"name":"Bone"
		},
		{
			"name":"Bone.003",
			"rotation":[
				4.6871168279949416e-08,
				0.7839472889900208,
				0.6208274960517883,
				5.918638734669912e-08
			],
			"scale":[
				1,
				0.9999999403953552,
				0.9999998211860657
			]
		},
		{
			"name":"Bone.004",
			"rotation":[
				-0.6202244758605957,
				-1.1668825143048748e-17,
				-1.1668825143048748e-17,
				0.7844244241714478
			]
		},
		{
			"mesh":0,
			"name":"Cone",
			"skin":0
		},
		{
			"children":[
				5,
				2,
				3,
				4
			],
			"name":"Armature",
			"scale":[
				1,
				0.6400941610336304,
				1
			],
			"translation":[
				0,
				0.2153562605381012,
				0
			]
		}
	],
	"animations":[
		{
			"channels":[
				{
					"sampler":0,
					"target":{
						"node":2,
						"path":"translation"
					}
				},
				{
					"sampler":1,
					"target":{
						"node":2,
						"path":"rotation"
					}
				},
				{
					"sampler":2,
					"target":{
						"node":2,
						"path":"scale"
					}
				},
				{
					"sampler":3,
					"target":{
						"node":1,
						"path":"translation"
					}
				},
				{
					"sampler":4,
					"target":{
						"node":1,
						"path":"rotation"
					}
				},
				{
					"sampler":5,
					"target":{
						"node":1,
						"path":"scale"
					}
				},
				{
					"sampler":6,
					"target":{
						"node":0,
						"path":"translation"
					}
				},
				{
					"sampler":7,
					"target":{
						"node":0,
						"path":"rotation"
					}
				},
				{
					"sampler":8,
					"target":{
						"node":0,
						"path":"scale"
					}
				},
				{
					"sampler":9,
					"target":{
						"node":3,
						"path":"translation"
					}
				},
				{
					"sampler":10,
					"target":{
						"node":3,
						"path":"rotation"
					}
				},
				{
					"sampler":11,
					"target":{
						"node":3,
						"path":"scale"
					}
				},
				{
					"sampler":12,
					"target":{
						"node":4,
						"path":"translation"
					}
				},
				{
					"sampler":13,
					"target":{
						"node":4,
						"path":"rotation"
					}
				},
				{
					"sampler":14,
					"target":{
						"node":4,
						"path":"scale"
					}
				}
			],
			"name":"ConeDog",
			"samplers":[
				{
					"input":7,
					"interpolation":"STEP",
					"output":8
				},
				{
					"input":7,
					"interpolation":"STEP",
					"output":9
				},
				{
					"input":7,
					"interpolation":"STEP",
					"output":10
				},
				{
					"input":7,
					"interpolation":"STEP",
					"output":11
				},
				{
					"input":7,
					"interpolation":"STEP",
					"output":12
				},
				{
					"input":7,
					"interpolation":"STEP",
					"output":13
				},
				{
					"input":7,
					"interpolation":"STEP",
					"output":14
				},
				{
					"input":15,
					"interpolation":"LINEAR",
					"output":16
				},
				{
					"input":7,
					"interpolation":"STEP",
					"output":17
				},
				{
					"input":7,
					"interpolation":"STEP",
					"output":18
				},
				{
					"input":7,
					"interpolation":"STEP",
					"output":19
				},
				{
					"input":7,
					"interpolation":"STEP",
					"output":20
				},
				{
					"input":7,
					"interpolation":"STEP",
					"output":21
				},
				{
					"input":7,
					"interpolation":"STEP",
					"output":22
				},
				{
					"input":7,
					"interpolation":"STEP",
					"output":23
				}
			]
		}
	],
	"materials":[
		{
			"doubleSided":true,
			"name":"Material.001",
			"pbrMetallicRoughness":{
				"baseColorTexture":{
					"index":0
				},
				"metallicFactor":0,
				"roughnessFactor":0.5
			}
		}
	],
	"meshes":[
		{
			"name":"Cone",
			"primitives":[
				{
					"attributes":{
						"POSITION":0,
						"NORMAL":1,
						"TEXCOORD_0":2,
						"JOINTS_0":3,
						"WEIGHTS_0":4
					},
					"indices":5,
					"material":0
				}
			]
		}
	],
	"textures":[
		{
			"sampler":0,
			"source":0
		}
	],
	"images":[
		{
			"mimeType":"image/png",
			"name":"WoodType1",
			"uri":"WoodType1.png"
		}
	],
	"skins":[
		{
			"inverseBindMatrices":6,
			"joints":[
				2,
				1,
				0,
				3,
				4
			],
			"name":"Armature"
		}
	],
	"accessors":[
		{
			"bufferView":0,
			"componentType":5126,
			"count":128,
			"max":[
				1,
				2.1605281829833984,
				1
			],
			"min":[
				-1,
				0.160528302192688,
				-1
			],
			"type":"VEC3"
		},
		{
			"bufferView":1,
			"componentType":5126,
			"count":128,
			"type":"VEC3"
		},
		{
			"bufferView":2,
			"componentType":5126,
			"count":128,
			"type":"VEC2"
		},
		{
			"bufferView":3,
			"componentType":5121,
			"count":128,
			"type":"VEC4"
		},
		{
			"bufferView":4,
			"componentType":5126,
			"count":128,
			"type":"VEC4"
		},
		{
			"bufferView":5,
			"componentType":5123,
			"count":186,
			"type":"SCALAR"
		},
		{
			"bufferView":6,
			"componentType":5126,
			"count":5,
			"type":"MAT4"
		},
		{
			"bufferView":7,
			"componentType":5126,
			"count":2,
			"max":[
				4.583333333333333
			],
			"min":[
				0.041666666666666664
			],
			"type":"SCALAR"
		},
		{
			"bufferView":8,
			"componentType":5126,
			"count":2,
			"type":"VEC3"
		},
		{
			"bufferView":9,
			"componentType":5126,
			"count":2,
			"type":"VEC4"
		},
		{
			"bufferView":10,
			"componentType":5126,
			"count":2,
			"type":"VEC3"
		},
		{
			"bufferView":11,
			"componentType":5126,
			"count":2,
			"type":"VEC3"
		},
		{
			"bufferView":12,
			"componentType":5126,
			"count":2,
			"type":"VEC4"
		},
		{
			"bufferView":13,
			"componentType":5126,
			"count":2,
			"type":"VEC3"
		},
		{
			"bufferView":14,
			"componentType":5126,
			"count":2,
			"type":"VEC3"
		},
		{
			"bufferView":15,
			"componentType":5126,
			"count":110,
			"max":[
				4.583333333333333
			],
			"min":[
				0.041666666666666664
			],
			"type":"SCALAR"
		},
		{
			"bufferView":16,
			"componentType":5126,
			"count":110,
			"type":"VEC4"
		},
		{
			"bufferView":17,
			"componentType":5126,
			"count":2,
			"type":"VEC3"
		},
		{
			"bufferView":18,
			"componentType":5126,
			"count":2,
			"type":"VEC3"
		},
		{
			"bufferView":19,
			"componentType":5126,
			"count":2,
			"type":"VEC4"
		},
		{
			"bufferView":20,
			"componentType":5126,
			"count":2,
			"type":"VEC3"
		},
		{
			"bufferView":21,
			"componentType":5126,
			"count":2,
			"type":"VEC3"
		},
		{
			"bufferView":22,
			"componentType":5126,
			"count":2,
			"type":"VEC4"
		},
		{
			"bufferView":23,
			"componentType":5126,
			"count":2,
			"type":"VEC3"
		}
	],
	"bufferViews":[
		{
			"buffer":0,
			"byteLength":1536,
			"byteOffset":0,
			"target":34962
		},
		{
			"buffer":0,
			"byteLength":1536,
			"byteOffset":1536,
			"target":34962
		},
		{
			"buffer":0,
			"byteLength":1024,
			"byteOffset":3072,
			"target":34962
		},
		{
			"buffer":0,
			"byteLength":512,
			"byteOffset":4096,
			"target":34962
		},
		{
			"buffer":0,
			"byteLength":2048,
			"byteOffset":4608,
			"target":34962
		},
		{
			"buffer":0,
			"byteLength":372,
			"byteOffset":6656,
			"target":34963
		},
		{
			"buffer":0,
			"byteLength":320,
			"byteOffset":7028
		},
		{
			"buffer":0,
			"byteLength":8,
			"byteOffset":7348
		},
		{
			"buffer":0,
			"byteLength":24,
			"byteOffset":7356
		},
		{
			"buffer":0,
			"byteLength":32,
			"byteOffset":7380
		},
		{
			"buffer":0,
			"byteLength":24,
			"byteOffset":7412
		},
		{
			"buffer":0,
			"byteLength":24,
			"byteOffset":7436
		},
		{
			"buffer":0,
			"byteLength":32,
			"byteOffset":7460
		},
		{
			"buffer":0,
			"byteLength":24,
			"byteOffset":7492
		},
		{
			"buffer":0,
			"byteLength":24,
			"byteOffset":7516
		},
		{
			"buffer":0,
			"byteLength":440,
			"byteOffset":7540
		},
		{
			"buffer":0,
			"byteLength":1760,
			"byteOffset":7980
		},
		{
			"buffer":0,
			"byteLength":24,
			"byteOffset":9740
		},
		{
			"buffer":0,
			"byteLength":24,
			"byteOffset":9764
		},
		{
			"buffer":0,
			"byteLength":32,
			"byteOffset":9788
		},
		{
			"buffer":0,
			"byteLength":24,
			"byteOffset":9820
		},
		{
			"buffer":0,
			"byteLength":24,
			"byteOffset":9844
		},
		{
			"buffer":0,
			"byteLength":32,
			"byteOffset":9868
		},
		{
			"buffer":0,
			"byteLength":24,
			"byteOffset":9900
		}
	],
	"samplers":[
		{
			"magFilter":9729,
			"minFilter":9987
		}
	],
	"buffers":[
		{
			"byteLength":9924,
			"uri":"conemove.bin"
		}
	]
}
