{
	"asset":{
		"generator":"Khronos glTF Blender I/O v4.0.44",
		"version":"2.0"
	},
	"scene":0,
	"scenes":[
		{
			"name":"Scene",
			"nodes":[
				0
			]
		}
	],
	"nodes":[
		{
			"mesh":0,
			"name":"Cheese.003",
			"rotation":[
				0,
				-0.5058773756027222,
				0,
				0.8626054525375366
			]
		}
	],
	"materials":[
		{
			"doubleSided":true,
			"name":"Material.072",
			"pbrMetallicRoughness":{
				"baseColorTexture":{
					"index":0
				},
				"metallicFactor":0,
				"roughnessFactor":0.5
			}
		},
		{
			"doubleSided":true,
			"name":"Material.067",
			"pbrMetallicRoughness":{
				"baseColorTexture":{
					"index":1
				},
				"metallicFactor":0,
				"roughnessFactor":0.5
			}
		},
		{
			"doubleSided":true,
			"name":"Material.068",
			"pbrMetallicRoughness":{
				"baseColorTexture":{
					"index":2
				},
				"metallicFactor":0,
				"roughnessFactor":0.5
			}
		},
		{
			"doubleSided":true,
			"name":"Material.069",
			"pbrMetallicRoughness":{
				"baseColorTexture":{
					"index":3
				},
				"metallicFactor":0,
				"roughnessFactor":0.5
			}
		},
		{
			"doubleSided":true,
			"name":"Material.070",
			"pbrMetallicRoughness":{
				"baseColorTexture":{
					"index":4
				},
				"metallicFactor":0,
				"roughnessFactor":0.5
			}
		},
		{
			"doubleSided":true,
			"name":"Material.071",
			"pbrMetallicRoughness":{
				"baseColorTexture":{
					"index":5
				},
				"metallicFactor":0,
				"roughnessFactor":0.5
			}
		}
	],
	"meshes":[
		{
			"name":"Plane.007",
			"primitives":[
				{
					"attributes":{
						"POSITION":0,
						"NORMAL":1,
						"TEXCOORD_0":2,
						"TANGENT":3
					},
					"indices":4,
					"material":0
				},
				{
					"attributes":{
						"POSITION":5,
						"NORMAL":6,
						"TEXCOORD_0":7,
						"TANGENT":8
					},
					"indices":9,
					"material":1
				},
				{
					"attributes":{
						"POSITION":10,
						"NORMAL":11,
						"TEXCOORD_0":12,
						"TANGENT":13
					},
					"indices":9,
					"material":2
				},
				{
					"attributes":{
						"POSITION":14,
						"NORMAL":15,
						"TEXCOORD_0":16,
						"TANGENT":17
					},
					"indices":4,
					"material":3
				},
				{
					"attributes":{
						"POSITION":18,
						"NORMAL":19,
						"TEXCOORD_0":20,
						"TANGENT":21
					},
					"indices":4,
					"material":4
				},
				{
					"attributes":{
						"POSITION":22,
						"NORMAL":23,
						"TEXCOORD_0":24,
						"TANGENT":25
					},
					"indices":4,
					"material":5
				}
			]
		}
	],
	"textures":[
		{
			"sampler":0,
			"source":0
		},
		{
			"sampler":0,
			"source":1
		},
		{
			"sampler":0,
			"source":1
		},
		{
			"sampler":0,
			"source":0
		},
		{
			"sampler":0,
			"source":0
		},
		{
			"sampler":0,
			"source":0
		}
	],
	"images":[
		{
			"mimeType":"image/png",
			"name":"cheese",
			"uri":"cheese.png"
		},
		{
			"mimeType":"image/png",
			"name":"bread",
			"uri":"bread.png"
		}
	],
	"accessors":[
		{
			"bufferView":0,
			"componentType":5126,
			"count":4,
			"max":[
				1,
				0,
				1
			],
			"min":[
				-1,
				0,
				-1
			],
			"type":"VEC3"
		},
		{
			"bufferView":1,
			"componentType":5126,
			"count":4,
			"type":"VEC3"
		},
		{
			"bufferView":2,
			"componentType":5126,
			"count":4,
			"type":"VEC2"
		},
		{
			"bufferView":3,
			"componentType":5126,
			"count":4,
			"type":"VEC4"
		},
		{
			"bufferView":4,
			"componentType":5123,
			"count":6,
			"type":"SCALAR"
		},
		{
			"bufferView":5,
			"componentType":5126,
			"count":78,
			"max":[
				1.5862478017807007,
				0.38344424962997437,
				1.6783666610717773
			],
			"min":[
				-2.28578519821167,
				-0.057385846972465515,
				-2.198134422302246
			],
			"type":"VEC3"
		},
		{
			"bufferView":6,
			"componentType":5126,
			"count":78,
			"type":"VEC3"
		},
		{
			"bufferView":7,
			"componentType":5126,
			"count":78,
			"type":"VEC2"
		},
		{
			"bufferView":8,
			"componentType":5126,
			"count":78,
			"type":"VEC4"
		},
		{
			"bufferView":9,
			"componentType":5123,
			"count":348,
			"type":"SCALAR"
		},
		{
			"bufferView":10,
			"componentType":5126,
			"count":78,
			"max":[
				1.5282113552093506,
				0.05280911922454834,
				1.6538960933685303
			],
			"min":[
				-2.242527961730957,
				-0.401815265417099,
				-2.1548080444335938
			],
			"type":"VEC3"
		},
		{
			"bufferView":11,
			"componentType":5126,
			"count":78,
			"type":"VEC3"
		},
		{
			"bufferView":12,
			"componentType":5126,
			"count":78,
			"type":"VEC2"
		},
		{
			"bufferView":13,
			"componentType":5126,
			"count":78,
			"type":"VEC4"
		},
		{
			"bufferView":14,
			"componentType":5126,
			"count":4,
			"max":[
				0.7789655923843384,
				-0.043254852294921875,
				1.7062283754348755
			],
			"min":[
				-2.0449185371398926,
				-0.043254852294921875,
				-1.117655873298645
			],
			"type":"VEC3"
		},
		{
			"bufferView":15,
			"componentType":5126,
			"count":4,
			"type":"VEC3"
		},
		{
			"bufferView":16,
			"componentType":5126,
			"count":4,
			"type":"VEC2"
		},
		{
			"bufferView":17,
			"componentType":5126,
			"count":4,
			"type":"VEC4"
		},
		{
			"bufferView":18,
			"componentType":5126,
			"count":4,
			"max":[
				0.4854491949081421,
				-0.027761459350585938,
				0.8228839635848999
			],
			"min":[
				-2.0170083045959473,
				-0.027761459350585938,
				-1.6795734167099
			],
			"type":"VEC3"
		},
		{
			"bufferView":19,
			"componentType":5126,
			"count":4,
			"type":"VEC3"
		},
		{
			"bufferView":20,
			"componentType":5126,
			"count":4,
			"type":"VEC2"
		},
		{
			"bufferView":21,
			"componentType":5126,
			"count":4,
			"type":"VEC4"
		},
		{
			"bufferView":22,
			"componentType":5126,
			"count":4,
			"max":[
				1.2408812046051025,
				-0.008074760437011719,
				0.7172820568084717
			],
			"min":[
				-1.4659559726715088,
				-0.008074760437011719,
				-1.9895551204681396
			],
			"type":"VEC3"
		},
		{
			"bufferView":23,
			"componentType":5126,
			"count":4,
			"type":"VEC3"
		},
		{
			"bufferView":24,
			"componentType":5126,
			"count":4,
			"type":"VEC2"
		},
		{
			"bufferView":25,
			"componentType":5126,
			"count":4,
			"type":"VEC4"
		}
	],
	"bufferViews":[
		{
			"buffer":0,
			"byteLength":48,
			"byteOffset":0,
			"target":34962
		},
		{
			"buffer":0,
			"byteLength":48,
			"byteOffset":48,
			"target":34962
		},
		{
			"buffer":0,
			"byteLength":32,
			"byteOffset":96,
			"target":34962
		},
		{
			"buffer":0,
			"byteLength":64,
			"byteOffset":128,
			"target":34962
		},
		{
			"buffer":0,
			"byteLength":12,
			"byteOffset":192,
			"target":34963
		},
		{
			"buffer":0,
			"byteLength":936,
			"byteOffset":204,
			"target":34962
		},
		{
			"buffer":0,
			"byteLength":936,
			"byteOffset":1140,
			"target":34962
		},
		{
			"buffer":0,
			"byteLength":624,
			"byteOffset":2076,
			"target":34962
		},
		{
			"buffer":0,
			"byteLength":1248,
			"byteOffset":2700,
			"target":34962
		},
		{
			"buffer":0,
			"byteLength":696,
			"byteOffset":3948,
			"target":34963
		},
		{
			"buffer":0,
			"byteLength":936,
			"byteOffset":4644,
			"target":34962
		},
		{
			"buffer":0,
			"byteLength":936,
			"byteOffset":5580,
			"target":34962
		},
		{
			"buffer":0,
			"byteLength":624,
			"byteOffset":6516,
			"target":34962
		},
		{
			"buffer":0,
			"byteLength":1248,
			"byteOffset":7140,
			"target":34962
		},
		{
			"buffer":0,
			"byteLength":48,
			"byteOffset":8388,
			"target":34962
		},
		{
			"buffer":0,
			"byteLength":48,
			"byteOffset":8436,
			"target":34962
		},
		{
			"buffer":0,
			"byteLength":32,
			"byteOffset":8484,
			"target":34962
		},
		{
			"buffer":0,
			"byteLength":64,
			"byteOffset":8516,
			"target":34962
		},
		{
			"buffer":0,
			"byteLength":48,
			"byteOffset":8580,
			"target":34962
		},
		{
			"buffer":0,
			"byteLength":48,
			"byteOffset":8628,
			"target":34962
		},
		{
			"buffer":0,
			"byteLength":32,
			"byteOffset":8676,
			"target":34962
		},
		{
			"buffer":0,
			"byteLength":64,
			"byteOffset":8708,
			"target":34962
		},
		{
			"buffer":0,
			"byteLength":48,
			"byteOffset":8772,
			"target":34962
		},
		{
			"buffer":0,
			"byteLength":48,
			"byteOffset":8820,
			"target":34962
		},
		{
			"buffer":0,
			"byteLength":32,
			"byteOffset":8868,
			"target":34962
		},
		{
			"buffer":0,
			"byteLength":64,
			"byteOffset":8900,
			"target":34962
		}
	],
	"samplers":[
		{
			"magFilter":9729,
			"minFilter":9987
		}
	],
	"buffers":[
		{
			"byteLength":8964,
			"uri":"grilledCheese.bin"
		}
	]
}
