{
	"asset":{
		"generator":"Khronos glTF Blender I/O v4.0.44",
		"version":"2.0"
	},
	"scene":0,
	"scenes":[
		{
			"name":"Scene",
			"nodes":[
				0
			]
		}
	],
	"nodes":[
		{
			"mesh":0,
			"name":"Torus.003",
			"scale":[
				5.241916656494141,
				5.131899833679199,
				4.984694004058838
			],
			"translation":[
				-20.235624313354492,
				6.257730960845947,
				-31.76568603515625
			]
		}
	],
	"materials":[
		{
			"doubleSided":true,
			"name":"Material",
			"pbrMetallicRoughness":{
				"baseColorTexture":{
					"index":0
				},
				"metallicFactor":0,
				"roughnessFactor":0.5
			}
		},
		{
			"doubleSided":true,
			"name":"Material.002",
			"pbrMetallicRoughness":{
				"baseColorTexture":{
					"index":1
				},
				"metallicFactor":0,
				"roughnessFactor":0.5
			}
		},
		{
			"doubleSided":true,
			"name":"Material.013",
			"pbrMetallicRoughness":{
				"baseColorTexture":{
					"index":2
				},
				"metallicFactor":0,
				"roughnessFactor":0.5
			}
		},
		{
			"doubleSided":true,
			"name":"Material.014",
			"pbrMetallicRoughness":{
				"baseColorTexture":{
					"index":3
				},
				"metallicFactor":0,
				"roughnessFactor":0.5
			}
		}
	],
	"meshes":[
		{
			"name":"Torus.003",
			"primitives":[
				{
					"attributes":{
						"POSITION":0,
						"NORMAL":1,
						"TEXCOORD_0":2,
						"TANGENT":3
					},
					"indices":4,
					"material":0
				},
				{
					"attributes":{
						"POSITION":5,
						"NORMAL":6,
						"TEXCOORD_0":7,
						"TANGENT":8
					},
					"indices":9,
					"material":1
				},
				{
					"attributes":{
						"POSITION":10,
						"NORMAL":11,
						"TEXCOORD_0":12,
						"TANGENT":13
					},
					"indices":14,
					"material":2
				},
				{
					"attributes":{
						"POSITION":15,
						"NORMAL":16,
						"TEXCOORD_0":17,
						"TANGENT":18
					},
					"indices":19,
					"material":3
				}
			]
		}
	],
	"textures":[
		{
			"sampler":0,
			"source":0
		},
		{
			"sampler":0,
			"source":1
		},
		{
			"sampler":0,
			"source":2
		},
		{
			"sampler":0,
			"source":3
		}
	],
	"images":[
		{
			"mimeType":"image/png",
			"name":"donught",
			"uri":"donught.png"
		},
		{
			"mimeType":"image/png",
			"name":"Frosting",
			"uri":"Frosting.png"
		},
		{
			"mimeType":"image/png",
			"name":"Sprinkle1",
			"uri":"Sprinkle1.png"
		},
		{
			"mimeType":"image/png",
			"name":"Sprinle2",
			"uri":"Sprinle2.png"
		}
	],
	"accessors":[
		{
			"bufferView":0,
			"componentType":5126,
			"count":4212,
			"max":[
				1.1400001049041748,
				0.12768936157226562,
				1.1377506256103516
			],
			"min":[
				-1.1400001049041748,
				-0.30972063541412354,
				-1.1377506256103516
			],
			"type":"VEC3"
		},
		{
			"bufferView":1,
			"componentType":5126,
			"count":4212,
			"type":"VEC3"
		},
		{
			"bufferView":2,
			"componentType":5126,
			"count":4212,
			"type":"VEC2"
		},
		{
			"bufferView":3,
			"componentType":5126,
			"count":4212,
			"type":"VEC4"
		},
		{
			"bufferView":4,
			"componentType":5123,
			"count":6318,
			"type":"SCALAR"
		},
		{
			"bufferView":5,
			"componentType":5126,
			"count":2972,
			"max":[
				1.1355410814285278,
				0.30972063541412354,
				1.1333003044128418
			],
			"min":[
				-1.1355410814285278,
				-0.052390243858098984,
				-1.1377506256103516
			],
			"type":"VEC3"
		},
		{
			"bufferView":6,
			"componentType":5126,
			"count":2972,
			"type":"VEC3"
		},
		{
			"bufferView":7,
			"componentType":5126,
			"count":2972,
			"type":"VEC2"
		},
		{
			"bufferView":8,
			"componentType":5126,
			"count":2972,
			"type":"VEC4"
		},
		{
			"bufferView":9,
			"componentType":5123,
			"count":4458,
			"type":"SCALAR"
		},
		{
			"bufferView":10,
			"componentType":5126,
			"count":780,
			"max":[
				1.1315842866897583,
				0.32780978083610535,
				1.09963059425354
			],
			"min":[
				-1.0627446174621582,
				-0.02628983184695244,
				-1.1154274940490723
			],
			"type":"VEC3"
		},
		{
			"bufferView":11,
			"componentType":5126,
			"count":780,
			"type":"VEC3"
		},
		{
			"bufferView":12,
			"componentType":5126,
			"count":780,
			"type":"VEC2"
		},
		{
			"bufferView":13,
			"componentType":5126,
			"count":780,
			"type":"VEC4"
		},
		{
			"bufferView":14,
			"componentType":5123,
			"count":1500,
			"type":"SCALAR"
		},
		{
			"bufferView":15,
			"componentType":5126,
			"count":724,
			"max":[
				1.1228655576705933,
				0.32780978083610535,
				1.1035813093185425
			],
			"min":[
				-1.0998661518096924,
				0.052390243858098984,
				-0.9958837628364563
			],
			"type":"VEC3"
		},
		{
			"bufferView":16,
			"componentType":5126,
			"count":724,
			"type":"VEC3"
		},
		{
			"bufferView":17,
			"componentType":5126,
			"count":724,
			"type":"VEC2"
		},
		{
			"bufferView":18,
			"componentType":5126,
			"count":724,
			"type":"VEC4"
		},
		{
			"bufferView":19,
			"componentType":5123,
			"count":1392,
			"type":"SCALAR"
		}
	],
	"bufferViews":[
		{
			"buffer":0,
			"byteLength":50544,
			"byteOffset":0,
			"target":34962
		},
		{
			"buffer":0,
			"byteLength":50544,
			"byteOffset":50544,
			"target":34962
		},
		{
			"buffer":0,
			"byteLength":33696,
			"byteOffset":101088,
			"target":34962
		},
		{
			"buffer":0,
			"byteLength":67392,
			"byteOffset":134784,
			"target":34962
		},
		{
			"buffer":0,
			"byteLength":12636,
			"byteOffset":202176,
			"target":34963
		},
		{
			"buffer":0,
			"byteLength":35664,
			"byteOffset":214812,
			"target":34962
		},
		{
			"buffer":0,
			"byteLength":35664,
			"byteOffset":250476,
			"target":34962
		},
		{
			"buffer":0,
			"byteLength":23776,
			"byteOffset":286140,
			"target":34962
		},
		{
			"buffer":0,
			"byteLength":47552,
			"byteOffset":309916,
			"target":34962
		},
		{
			"buffer":0,
			"byteLength":8916,
			"byteOffset":357468,
			"target":34963
		},
		{
			"buffer":0,
			"byteLength":9360,
			"byteOffset":366384,
			"target":34962
		},
		{
			"buffer":0,
			"byteLength":9360,
			"byteOffset":375744,
			"target":34962
		},
		{
			"buffer":0,
			"byteLength":6240,
			"byteOffset":385104,
			"target":34962
		},
		{
			"buffer":0,
			"byteLength":12480,
			"byteOffset":391344,
			"target":34962
		},
		{
			"buffer":0,
			"byteLength":3000,
			"byteOffset":403824,
			"target":34963
		},
		{
			"buffer":0,
			"byteLength":8688,
			"byteOffset":406824,
			"target":34962
		},
		{
			"buffer":0,
			"byteLength":8688,
			"byteOffset":415512,
			"target":34962
		},
		{
			"buffer":0,
			"byteLength":5792,
			"byteOffset":424200,
			"target":34962
		},
		{
			"buffer":0,
			"byteLength":11584,
			"byteOffset":429992,
			"target":34962
		},
		{
			"buffer":0,
			"byteLength":2784,
			"byteOffset":441576,
			"target":34963
		}
	],
	"samplers":[
		{
			"magFilter":9729,
			"minFilter":9987
		}
	],
	"buffers":[
		{
			"byteLength":444360,
			"uri":"TestingBlenderDONOUGHTseperate.bin"
		}
	]
}
