{
	"asset":{
		"generator":"Khronos glTF Blender I/O v4.0.44",
		"version":"2.0"
	},
	"scene":0,
	"scenes":[
		{
			"name":"Scene",
			"nodes":[
				0
			]
		}
	],
	"nodes":[
		{
			"mesh":0,
			"name":"Tables under carrage",
			"scale":[
				3.193575620651245,
				2.615201711654663,
				3.928818941116333
			]
		}
	],
	"materials":[
		{
			"doubleSided":true,
			"name":"Under carriage",
			"pbrMetallicRoughness":{
				"baseColorTexture":{
					"index":0
				},
				"metallicFactor":0,
				"roughnessFactor":0.5
			}
		},
		{
			"doubleSided":true,
			"name":"Material.008",
			"pbrMetallicRoughness":{
				"baseColorTexture":{
					"index":1
				},
				"metallicFactor":0,
				"roughnessFactor":0.5
			}
		},
		{
			"doubleSided":true,
			"name":"Material.002",
			"pbrMetallicRoughness":{
				"baseColorTexture":{
					"index":2
				},
				"metallicFactor":0,
				"roughnessFactor":0.5
			}
		},
		{
			"doubleSided":true,
			"name":"Material.007",
			"pbrMetallicRoughness":{
				"baseColorTexture":{
					"index":3
				},
				"metallicFactor":0,
				"roughnessFactor":0.5
			}
		},
		{
			"doubleSided":true,
			"name":"Material.001",
			"pbrMetallicRoughness":{
				"baseColorTexture":{
					"index":4
				},
				"metallicFactor":0,
				"roughnessFactor":0.5
			}
		},
		{
			"doubleSided":true,
			"name":"Base",
			"pbrMetallicRoughness":{
				"baseColorTexture":{
					"index":5
				},
				"metallicFactor":0,
				"roughnessFactor":0.5
			}
		},
		{
			"doubleSided":true,
			"name":"Table",
			"pbrMetallicRoughness":{
				"baseColorTexture":{
					"index":6
				},
				"metallicFactor":0,
				"roughnessFactor":0.5
			}
		},
		{
			"doubleSided":true,
			"name":"Pole",
			"pbrMetallicRoughness":{
				"baseColorTexture":{
					"index":7
				},
				"metallicFactor":0,
				"roughnessFactor":0.5
			}
		}
	],
	"meshes":[
		{
			"name":"Sphere",
			"primitives":[
				{
					"attributes":{
						"POSITION":0,
						"NORMAL":1,
						"TEXCOORD_0":2,
						"TANGENT":3
					},
					"indices":4,
					"material":0
				},
				{
					"attributes":{
						"POSITION":5,
						"NORMAL":6,
						"TEXCOORD_0":7,
						"TANGENT":8
					},
					"indices":9,
					"material":1
				},
				{
					"attributes":{
						"POSITION":10,
						"NORMAL":11,
						"TEXCOORD_0":12,
						"TANGENT":13
					},
					"indices":9,
					"material":2
				},
				{
					"attributes":{
						"POSITION":14,
						"NORMAL":15,
						"TEXCOORD_0":16,
						"TANGENT":17
					},
					"indices":18,
					"material":3
				},
				{
					"attributes":{
						"POSITION":19,
						"NORMAL":20,
						"TEXCOORD_0":21,
						"TANGENT":22
					},
					"indices":18,
					"material":4
				},
				{
					"attributes":{
						"POSITION":23,
						"NORMAL":24,
						"TEXCOORD_0":25,
						"TANGENT":26
					},
					"indices":27,
					"material":5
				},
				{
					"attributes":{
						"POSITION":28,
						"NORMAL":29,
						"TEXCOORD_0":30,
						"TANGENT":31
					},
					"indices":18,
					"material":6
				},
				{
					"attributes":{
						"POSITION":32,
						"NORMAL":33,
						"TEXCOORD_0":34,
						"TANGENT":35
					},
					"indices":18,
					"material":7
				}
			]
		}
	],
	"textures":[
		{
			"sampler":0,
			"source":0
		},
		{
			"sampler":0,
			"source":1
		},
		{
			"sampler":0,
			"source":1
		},
		{
			"sampler":0,
			"source":1
		},
		{
			"sampler":0,
			"source":1
		},
		{
			"sampler":0,
			"source":0
		},
		{
			"sampler":0,
			"source":2
		},
		{
			"sampler":0,
			"source":0
		}
	],
	"images":[
		{
			"mimeType":"image/png",
			"name":"SteelType1",
			"uri":"SteelType1.png"
		},
		{
			"mimeType":"image/png",
			"name":"CushinType1",
			"uri":"CushinType1.png"
		},
		{
			"mimeType":"image/png",
			"name":"WoodType1",
			"uri":"WoodType1.png"
		}
	],
	"accessors":[
		{
			"bufferView":0,
			"componentType":5126,
			"count":864,
			"max":[
				0.9641306400299072,
				2.0157337188720703,
				0.9807968139648438
			],
			"min":[
				-0.9974391460418701,
				1.2104136943817139,
				-0.98077392578125
			],
			"type":"VEC3"
		},
		{
			"bufferView":1,
			"componentType":5126,
			"count":864,
			"type":"VEC3"
		},
		{
			"bufferView":2,
			"componentType":5126,
			"count":864,
			"type":"VEC2"
		},
		{
			"bufferView":3,
			"componentType":5126,
			"count":864,
			"type":"VEC4"
		},
		{
			"bufferView":4,
			"componentType":5123,
			"count":1248,
			"type":"SCALAR"
		},
		{
			"bufferView":5,
			"componentType":5126,
			"count":24,
			"max":[
				-2.4781339168548584,
				0.20143961906433105,
				3.512472152709961
			],
			"min":[
				-6.295742034912109,
				-1.8745214939117432,
				-3.497312545776367
			],
			"type":"VEC3"
		},
		{
			"bufferView":6,
			"componentType":5126,
			"count":24,
			"type":"VEC3"
		},
		{
			"bufferView":7,
			"componentType":5126,
			"count":24,
			"type":"VEC2"
		},
		{
			"bufferView":8,
			"componentType":5126,
			"count":24,
			"type":"VEC4"
		},
		{
			"bufferView":9,
			"componentType":5123,
			"count":36,
			"type":"SCALAR"
		},
		{
			"bufferView":10,
			"componentType":5126,
			"count":24,
			"max":[
				-5.331352233886719,
				4.016839027404785,
				3.509592056274414
			],
			"min":[
				-6.296483039855957,
				0.16556930541992188,
				-3.502531051635742
			],
			"type":"VEC3"
		},
		{
			"bufferView":11,
			"componentType":5126,
			"count":24,
			"type":"VEC3"
		},
		{
			"bufferView":12,
			"componentType":5126,
			"count":24,
			"type":"VEC2"
		},
		{
			"bufferView":13,
			"componentType":5126,
			"count":24,
			"type":"VEC4"
		},
		{
			"bufferView":14,
			"componentType":5126,
			"count":24,
			"max":[
				6.545686721801758,
				0.20143961906433105,
				3.5074644088745117
			],
			"min":[
				2.739352226257324,
				-1.8745214939117432,
				-3.498279571533203
			],
			"type":"VEC3"
		},
		{
			"bufferView":15,
			"componentType":5126,
			"count":24,
			"type":"VEC3"
		},
		{
			"bufferView":16,
			"componentType":5126,
			"count":24,
			"type":"VEC2"
		},
		{
			"bufferView":17,
			"componentType":5126,
			"count":24,
			"type":"VEC4"
		},
		{
			"bufferView":18,
			"componentType":5123,
			"count":36,
			"type":"SCALAR"
		},
		{
			"bufferView":19,
			"componentType":5126,
			"count":24,
			"max":[
				6.5466508865356445,
				4.016839027404785,
				3.5074644088745117
			],
			"min":[
				5.592803955078125,
				0.16556930541992188,
				-3.498279571533203
			],
			"type":"VEC3"
		},
		{
			"bufferView":20,
			"componentType":5126,
			"count":24,
			"type":"VEC3"
		},
		{
			"bufferView":21,
			"componentType":5126,
			"count":24,
			"type":"VEC2"
		},
		{
			"bufferView":22,
			"componentType":5126,
			"count":24,
			"type":"VEC4"
		},
		{
			"bufferView":23,
			"componentType":5126,
			"count":864,
			"max":[
				1.544982671737671,
				-1.5864832401275635,
				2.262411117553711
			],
			"min":[
				-1.5438072681427002,
				-1.936183214187622,
				-2.265939712524414
			],
			"type":"VEC3"
		},
		{
			"bufferView":24,
			"componentType":5126,
			"count":864,
			"type":"VEC3"
		},
		{
			"bufferView":25,
			"componentType":5126,
			"count":864,
			"type":"VEC2"
		},
		{
			"bufferView":26,
			"componentType":5126,
			"count":864,
			"type":"VEC4"
		},
		{
			"bufferView":27,
			"componentType":5123,
			"count":1248,
			"type":"SCALAR"
		},
		{
			"bufferView":28,
			"componentType":5126,
			"count":24,
			"max":[
				2.089489221572876,
				2.420313596725464,
				3.0781936645507812
			],
			"min":[
				-2.1855099201202393,
				1.9885549545288086,
				-3.0690078735351562
			],
			"type":"VEC3"
		},
		{
			"bufferView":29,
			"componentType":5126,
			"count":24,
			"type":"VEC3"
		},
		{
			"bufferView":30,
			"componentType":5126,
			"count":24,
			"type":"VEC2"
		},
		{
			"bufferView":31,
			"componentType":5126,
			"count":24,
			"type":"VEC4"
		},
		{
			"bufferView":32,
			"componentType":5126,
			"count":24,
			"max":[
				0.11114215850830078,
				1.4959990978240967,
				0.09955787658691406
			],
			"min":[
				-0.1381549835205078,
				-1.6757194995880127,
				-0.1252613067626953
			],
			"type":"VEC3"
		},
		{
			"bufferView":33,
			"componentType":5126,
			"count":24,
			"type":"VEC3"
		},
		{
			"bufferView":34,
			"componentType":5126,
			"count":24,
			"type":"VEC2"
		},
		{
			"bufferView":35,
			"componentType":5126,
			"count":24,
			"type":"VEC4"
		}
	],
	"bufferViews":[
		{
			"buffer":0,
			"byteLength":10368,
			"byteOffset":0,
			"target":34962
		},
		{
			"buffer":0,
			"byteLength":10368,
			"byteOffset":10368,
			"target":34962
		},
		{
			"buffer":0,
			"byteLength":6912,
			"byteOffset":20736,
			"target":34962
		},
		{
			"buffer":0,
			"byteLength":13824,
			"byteOffset":27648,
			"target":34962
		},
		{
			"buffer":0,
			"byteLength":2496,
			"byteOffset":41472,
			"target":34963
		},
		{
			"buffer":0,
			"byteLength":288,
			"byteOffset":43968,
			"target":34962
		},
		{
			"buffer":0,
			"byteLength":288,
			"byteOffset":44256,
			"target":34962
		},
		{
			"buffer":0,
			"byteLength":192,
			"byteOffset":44544,
			"target":34962
		},
		{
			"buffer":0,
			"byteLength":384,
			"byteOffset":44736,
			"target":34962
		},
		{
			"buffer":0,
			"byteLength":72,
			"byteOffset":45120,
			"target":34963
		},
		{
			"buffer":0,
			"byteLength":288,
			"byteOffset":45192,
			"target":34962
		},
		{
			"buffer":0,
			"byteLength":288,
			"byteOffset":45480,
			"target":34962
		},
		{
			"buffer":0,
			"byteLength":192,
			"byteOffset":45768,
			"target":34962
		},
		{
			"buffer":0,
			"byteLength":384,
			"byteOffset":45960,
			"target":34962
		},
		{
			"buffer":0,
			"byteLength":288,
			"byteOffset":46344,
			"target":34962
		},
		{
			"buffer":0,
			"byteLength":288,
			"byteOffset":46632,
			"target":34962
		},
		{
			"buffer":0,
			"byteLength":192,
			"byteOffset":46920,
			"target":34962
		},
		{
			"buffer":0,
			"byteLength":384,
			"byteOffset":47112,
			"target":34962
		},
		{
			"buffer":0,
			"byteLength":72,
			"byteOffset":47496,
			"target":34963
		},
		{
			"buffer":0,
			"byteLength":288,
			"byteOffset":47568,
			"target":34962
		},
		{
			"buffer":0,
			"byteLength":288,
			"byteOffset":47856,
			"target":34962
		},
		{
			"buffer":0,
			"byteLength":192,
			"byteOffset":48144,
			"target":34962
		},
		{
			"buffer":0,
			"byteLength":384,
			"byteOffset":48336,
			"target":34962
		},
		{
			"buffer":0,
			"byteLength":10368,
			"byteOffset":48720,
			"target":34962
		},
		{
			"buffer":0,
			"byteLength":10368,
			"byteOffset":59088,
			"target":34962
		},
		{
			"buffer":0,
			"byteLength":6912,
			"byteOffset":69456,
			"target":34962
		},
		{
			"buffer":0,
			"byteLength":13824,
			"byteOffset":76368,
			"target":34962
		},
		{
			"buffer":0,
			"byteLength":2496,
			"byteOffset":90192,
			"target":34963
		},
		{
			"buffer":0,
			"byteLength":288,
			"byteOffset":92688,
			"target":34962
		},
		{
			"buffer":0,
			"byteLength":288,
			"byteOffset":92976,
			"target":34962
		},
		{
			"buffer":0,
			"byteLength":192,
			"byteOffset":93264,
			"target":34962
		},
		{
			"buffer":0,
			"byteLength":384,
			"byteOffset":93456,
			"target":34962
		},
		{
			"buffer":0,
			"byteLength":288,
			"byteOffset":93840,
			"target":34962
		},
		{
			"buffer":0,
			"byteLength":288,
			"byteOffset":94128,
			"target":34962
		},
		{
			"buffer":0,
			"byteLength":192,
			"byteOffset":94416,
			"target":34962
		},
		{
			"buffer":0,
			"byteLength":384,
			"byteOffset":94608,
			"target":34962
		}
	],
	"samplers":[
		{
			"magFilter":9729,
			"minFilter":9987
		}
	],
	"buffers":[
		{
			"byteLength":94992,
			"uri":"booth.bin"
		}
	]
}
