{
	"asset":{
		"generator":"Khronos glTF Blender I/O v4.0.44",
		"version":"2.0"
	},
	"scene":0,
	"scenes":[
		{
			"name":"Scene",
			"nodes":[
				5
			]
		}
	],
	"nodes":[
		{
			"name":"Bone.001",
			"rotation":[
				-1.0936600514099837e-09,
				5.108256484476215e-09,
				-0.00842346716672182,
				0.9999645352363586
			],
			"translation":[
				-3.656534772744635e-07,
				3.3516359329223633,
				-3.0735668588022236e-07
			]
		},
		{
			"children":[
				0
			],
			"name":"Bone",
			"rotation":[
				-3.581538621233449e-08,
				-3.162922368460386e-08,
				-0.013203742913901806,
				0.9999128580093384
			],
			"scale":[
				1,
				0.9999999403953552,
				0.9999998807907104
			],
			"translation":[
				1.7881393432617188e-07,
				1.341104507446289e-07,
				1.9073486328125e-06
			]
		},
		{
			"name":"Bone.003",
			"rotation":[
				-4.961716038032193e-10,
				5.103142797224791e-09,
				-0.00842346716672182,
				0.9999645352363586
			],
			"translation":[
				2.921274244727101e-07,
				3.351635456085205,
				-3.007078532846208e-07
			]
		},
		{
			"children":[
				2
			],
			"name":"Bone.002",
			"rotation":[
				-3.556798233717018e-08,
				-3.1629227237317536e-08,
				-0.013203742913901806,
				0.9999128580093384
			],
			"scale":[
				1,
				0.9999999403953552,
				0.9999998807907104
			],
			"translation":[
				1.7881393432617188e-07,
				1.341104507446289e-07,
				2.7318992614746094
			]
		},
		{
			"mesh":0,
			"name":"Arm.002",
			"skin":0
		},
		{
			"children":[
				4,
				1,
				3
			],
			"name":"Armature.002",
			"rotation":[
				0,
				0,
				0.7165867686271667,
				0.6974980235099792
			],
			"translation":[
				10.068071365356445,
				4.7039995193481445,
				-21.016000747680664
			]
		}
	],
	"animations":[
		{
			"channels":[
				{
					"sampler":0,
					"target":{
						"node":1,
						"path":"translation"
					}
				},
				{
					"sampler":1,
					"target":{
						"node":1,
						"path":"rotation"
					}
				},
				{
					"sampler":2,
					"target":{
						"node":1,
						"path":"scale"
					}
				},
				{
					"sampler":3,
					"target":{
						"node":0,
						"path":"translation"
					}
				},
				{
					"sampler":4,
					"target":{
						"node":0,
						"path":"rotation"
					}
				},
				{
					"sampler":5,
					"target":{
						"node":0,
						"path":"scale"
					}
				},
				{
					"sampler":6,
					"target":{
						"node":3,
						"path":"translation"
					}
				},
				{
					"sampler":7,
					"target":{
						"node":3,
						"path":"rotation"
					}
				},
				{
					"sampler":8,
					"target":{
						"node":3,
						"path":"scale"
					}
				},
				{
					"sampler":9,
					"target":{
						"node":2,
						"path":"translation"
					}
				},
				{
					"sampler":10,
					"target":{
						"node":2,
						"path":"rotation"
					}
				},
				{
					"sampler":11,
					"target":{
						"node":2,
						"path":"scale"
					}
				}
			],
			"name":"eatingAnimation",
			"samplers":[
				{
					"input":27,
					"interpolation":"STEP",
					"output":28
				},
				{
					"input":27,
					"interpolation":"STEP",
					"output":29
				},
				{
					"input":27,
					"interpolation":"STEP",
					"output":30
				},
				{
					"input":27,
					"interpolation":"STEP",
					"output":31
				},
				{
					"input":27,
					"interpolation":"STEP",
					"output":32
				},
				{
					"input":27,
					"interpolation":"STEP",
					"output":33
				},
				{
					"input":27,
					"interpolation":"STEP",
					"output":34
				},
				{
					"input":35,
					"interpolation":"LINEAR",
					"output":36
				},
				{
					"input":27,
					"interpolation":"STEP",
					"output":37
				},
				{
					"input":27,
					"interpolation":"LINEAR",
					"output":38
				},
				{
					"input":35,
					"interpolation":"LINEAR",
					"output":39
				},
				{
					"input":27,
					"interpolation":"STEP",
					"output":40
				}
			]
		},
		{
			"channels":[
				{
					"sampler":0,
					"target":{
						"node":1,
						"path":"translation"
					}
				},
				{
					"sampler":1,
					"target":{
						"node":1,
						"path":"rotation"
					}
				},
				{
					"sampler":2,
					"target":{
						"node":1,
						"path":"scale"
					}
				},
				{
					"sampler":3,
					"target":{
						"node":0,
						"path":"translation"
					}
				},
				{
					"sampler":4,
					"target":{
						"node":0,
						"path":"rotation"
					}
				},
				{
					"sampler":5,
					"target":{
						"node":0,
						"path":"scale"
					}
				},
				{
					"sampler":6,
					"target":{
						"node":3,
						"path":"translation"
					}
				},
				{
					"sampler":7,
					"target":{
						"node":3,
						"path":"rotation"
					}
				},
				{
					"sampler":8,
					"target":{
						"node":3,
						"path":"scale"
					}
				},
				{
					"sampler":9,
					"target":{
						"node":2,
						"path":"translation"
					}
				},
				{
					"sampler":10,
					"target":{
						"node":2,
						"path":"rotation"
					}
				},
				{
					"sampler":11,
					"target":{
						"node":2,
						"path":"scale"
					}
				}
			],
			"name":"eatingAnimation.001",
			"samplers":[
				{
					"input":27,
					"interpolation":"STEP",
					"output":41
				},
				{
					"input":35,
					"interpolation":"LINEAR",
					"output":42
				},
				{
					"input":27,
					"interpolation":"STEP",
					"output":43
				},
				{
					"input":27,
					"interpolation":"LINEAR",
					"output":44
				},
				{
					"input":35,
					"interpolation":"LINEAR",
					"output":45
				},
				{
					"input":27,
					"interpolation":"STEP",
					"output":46
				},
				{
					"input":27,
					"interpolation":"STEP",
					"output":47
				},
				{
					"input":27,
					"interpolation":"STEP",
					"output":48
				},
				{
					"input":27,
					"interpolation":"STEP",
					"output":49
				},
				{
					"input":27,
					"interpolation":"STEP",
					"output":50
				},
				{
					"input":27,
					"interpolation":"STEP",
					"output":51
				},
				{
					"input":27,
					"interpolation":"STEP",
					"output":52
				}
			]
		},
		{
			"channels":[
				{
					"sampler":0,
					"target":{
						"node":1,
						"path":"translation"
					}
				},
				{
					"sampler":1,
					"target":{
						"node":1,
						"path":"rotation"
					}
				},
				{
					"sampler":2,
					"target":{
						"node":1,
						"path":"scale"
					}
				},
				{
					"sampler":3,
					"target":{
						"node":0,
						"path":"translation"
					}
				},
				{
					"sampler":4,
					"target":{
						"node":0,
						"path":"rotation"
					}
				},
				{
					"sampler":5,
					"target":{
						"node":0,
						"path":"scale"
					}
				},
				{
					"sampler":6,
					"target":{
						"node":3,
						"path":"translation"
					}
				},
				{
					"sampler":7,
					"target":{
						"node":3,
						"path":"rotation"
					}
				},
				{
					"sampler":8,
					"target":{
						"node":3,
						"path":"scale"
					}
				},
				{
					"sampler":9,
					"target":{
						"node":2,
						"path":"translation"
					}
				},
				{
					"sampler":10,
					"target":{
						"node":2,
						"path":"rotation"
					}
				},
				{
					"sampler":11,
					"target":{
						"node":2,
						"path":"scale"
					}
				}
			],
			"name":"eatingAnimation.002",
			"samplers":[
				{
					"input":27,
					"interpolation":"STEP",
					"output":53
				},
				{
					"input":35,
					"interpolation":"LINEAR",
					"output":54
				},
				{
					"input":27,
					"interpolation":"STEP",
					"output":55
				},
				{
					"input":27,
					"interpolation":"LINEAR",
					"output":56
				},
				{
					"input":35,
					"interpolation":"LINEAR",
					"output":57
				},
				{
					"input":27,
					"interpolation":"STEP",
					"output":58
				},
				{
					"input":27,
					"interpolation":"STEP",
					"output":59
				},
				{
					"input":27,
					"interpolation":"STEP",
					"output":60
				},
				{
					"input":27,
					"interpolation":"STEP",
					"output":61
				},
				{
					"input":27,
					"interpolation":"STEP",
					"output":62
				},
				{
					"input":27,
					"interpolation":"STEP",
					"output":63
				},
				{
					"input":27,
					"interpolation":"STEP",
					"output":64
				}
			]
		}
	],
	"materials":[
		{
			"doubleSided":true,
			"name":"Material.051",
			"pbrMetallicRoughness":{
				"baseColorTexture":{
					"index":0
				},
				"metallicFactor":0,
				"roughnessFactor":0.5
			}
		},
		{
			"doubleSided":true,
			"name":"Material.052",
			"pbrMetallicRoughness":{
				"baseColorTexture":{
					"index":1
				},
				"metallicFactor":0,
				"roughnessFactor":0.5
			}
		},
		{
			"doubleSided":true,
			"name":"Material.048",
			"pbrMetallicRoughness":{
				"baseColorTexture":{
					"index":2
				},
				"metallicFactor":0,
				"roughnessFactor":0.5
			}
		},
		{
			"doubleSided":true,
			"name":"Material.049",
			"pbrMetallicRoughness":{
				"baseColorTexture":{
					"index":3
				},
				"metallicFactor":0,
				"roughnessFactor":0.5
			}
		}
	],
	"meshes":[
		{
			"name":"Cube.004",
			"primitives":[
				{
					"attributes":{
						"POSITION":0,
						"NORMAL":1,
						"TEXCOORD_0":2,
						"TANGENT":3,
						"JOINTS_0":4,
						"WEIGHTS_0":5
					},
					"indices":6,
					"material":0
				},
				{
					"attributes":{
						"POSITION":7,
						"NORMAL":8,
						"TEXCOORD_0":9,
						"TANGENT":10,
						"JOINTS_0":11,
						"WEIGHTS_0":12
					},
					"indices":13,
					"material":1
				},
				{
					"attributes":{
						"POSITION":14,
						"NORMAL":15,
						"TEXCOORD_0":16,
						"TANGENT":17,
						"JOINTS_0":18,
						"WEIGHTS_0":19
					},
					"indices":6,
					"material":2
				},
				{
					"attributes":{
						"POSITION":20,
						"NORMAL":21,
						"TEXCOORD_0":22,
						"TANGENT":23,
						"JOINTS_0":24,
						"WEIGHTS_0":25
					},
					"indices":13,
					"material":3
				}
			]
		}
	],
	"textures":[
		{
			"sampler":0,
			"source":0
		},
		{
			"sampler":0,
			"source":1
		},
		{
			"sampler":0,
			"source":0
		},
		{
			"sampler":0,
			"source":1
		}
	],
	"images":[
		{
			"mimeType":"image/png",
			"name":"shirt",
			"uri":"shirt.png"
		},
		{
			"mimeType":"image/png",
			"name":"hand",
			"uri":"hand.png"
		}
	],
	"skins":[
		{
			"inverseBindMatrices":26,
			"joints":[
				1,
				0,
				3,
				2
			],
			"name":"Armature.002"
		}
	],
	"accessors":[
		{
			"bufferView":0,
			"componentType":5126,
			"count":24,
			"max":[
				10.240179061889648,
				5.075689315795898,
				-20.674062728881836
			],
			"min":[
				3.5074305534362793,
				4.375689506530762,
				-21.37406349182129
			],
			"type":"VEC3"
		},
		{
			"bufferView":1,
			"componentType":5126,
			"count":24,
			"type":"VEC3"
		},
		{
			"bufferView":2,
			"componentType":5126,
			"count":24,
			"type":"VEC2"
		},
		{
			"bufferView":3,
			"componentType":5126,
			"count":24,
			"type":"VEC4"
		},
		{
			"bufferView":4,
			"componentType":5121,
			"count":24,
			"type":"VEC4"
		},
		{
			"bufferView":5,
			"componentType":5126,
			"count":24,
			"type":"VEC4"
		},
		{
			"bufferView":6,
			"componentType":5123,
			"count":36,
			"type":"SCALAR"
		},
		{
			"bufferView":7,
			"componentType":5126,
			"count":1984,
			"max":[
				4.345977306365967,
				5.484548568725586,
				-20.275602340698242
			],
			"min":[
				2.8459770679473877,
				3.984548568725586,
				-21.775602340698242
			],
			"type":"VEC3"
		},
		{
			"bufferView":8,
			"componentType":5126,
			"count":1984,
			"type":"VEC3"
		},
		{
			"bufferView":9,
			"componentType":5126,
			"count":1984,
			"type":"VEC2"
		},
		{
			"bufferView":10,
			"componentType":5126,
			"count":1984,
			"type":"VEC4"
		},
		{
			"bufferView":11,
			"componentType":5121,
			"count":1984,
			"type":"VEC4"
		},
		{
			"bufferView":12,
			"componentType":5126,
			"count":1984,
			"type":"VEC4"
		},
		{
			"bufferView":13,
			"componentType":5123,
			"count":2880,
			"type":"SCALAR"
		},
		{
			"bufferView":14,
			"componentType":5126,
			"count":24,
			"max":[
				10.240179061889648,
				5.075689315795898,
				-17.94216537475586
			],
			"min":[
				3.507429361343384,
				4.375689506530762,
				-18.642166137695312
			],
			"type":"VEC3"
		},
		{
			"bufferView":15,
			"componentType":5126,
			"count":24,
			"type":"VEC3"
		},
		{
			"bufferView":16,
			"componentType":5126,
			"count":24,
			"type":"VEC2"
		},
		{
			"bufferView":17,
			"componentType":5126,
			"count":24,
			"type":"VEC4"
		},
		{
			"bufferView":18,
			"componentType":5121,
			"count":24,
			"type":"VEC4"
		},
		{
			"bufferView":19,
			"componentType":5126,
			"count":24,
			"type":"VEC4"
		},
		{
			"bufferView":20,
			"componentType":5126,
			"count":1984,
			"max":[
				4.345975875854492,
				5.484548568725586,
				-17.543704986572266
			],
			"min":[
				2.845975875854492,
				3.984548568725586,
				-19.043704986572266
			],
			"type":"VEC3"
		},
		{
			"bufferView":21,
			"componentType":5126,
			"count":1984,
			"type":"VEC3"
		},
		{
			"bufferView":22,
			"componentType":5126,
			"count":1984,
			"type":"VEC2"
		},
		{
			"bufferView":23,
			"componentType":5126,
			"count":1984,
			"type":"VEC4"
		},
		{
			"bufferView":24,
			"componentType":5121,
			"count":1984,
			"type":"VEC4"
		},
		{
			"bufferView":25,
			"componentType":5126,
			"count":1984,
			"type":"VEC4"
		},
		{
			"bufferView":26,
			"componentType":5126,
			"count":4,
			"type":"MAT4"
		},
		{
			"bufferView":27,
			"componentType":5126,
			"count":2,
			"max":[
				3.375
			],
			"min":[
				0
			],
			"type":"SCALAR"
		},
		{
			"bufferView":28,
			"componentType":5126,
			"count":2,
			"type":"VEC3"
		},
		{
			"bufferView":29,
			"componentType":5126,
			"count":2,
			"type":"VEC4"
		},
		{
			"bufferView":30,
			"componentType":5126,
			"count":2,
			"type":"VEC3"
		},
		{
			"bufferView":31,
			"componentType":5126,
			"count":2,
			"type":"VEC3"
		},
		{
			"bufferView":32,
			"componentType":5126,
			"count":2,
			"type":"VEC4"
		},
		{
			"bufferView":33,
			"componentType":5126,
			"count":2,
			"type":"VEC3"
		},
		{
			"bufferView":34,
			"componentType":5126,
			"count":2,
			"type":"VEC3"
		},
		{
			"bufferView":35,
			"componentType":5126,
			"count":82,
			"max":[
				3.375
			],
			"min":[
				0
			],
			"type":"SCALAR"
		},
		{
			"bufferView":36,
			"componentType":5126,
			"count":82,
			"type":"VEC4"
		},
		{
			"bufferView":37,
			"componentType":5126,
			"count":2,
			"type":"VEC3"
		},
		{
			"bufferView":38,
			"componentType":5126,
			"count":2,
			"type":"VEC3"
		},
		{
			"bufferView":39,
			"componentType":5126,
			"count":82,
			"type":"VEC4"
		},
		{
			"bufferView":40,
			"componentType":5126,
			"count":2,
			"type":"VEC3"
		},
		{
			"bufferView":41,
			"componentType":5126,
			"count":2,
			"type":"VEC3"
		},
		{
			"bufferView":42,
			"componentType":5126,
			"count":82,
			"type":"VEC4"
		},
		{
			"bufferView":43,
			"componentType":5126,
			"count":2,
			"type":"VEC3"
		},
		{
			"bufferView":44,
			"componentType":5126,
			"count":2,
			"type":"VEC3"
		},
		{
			"bufferView":45,
			"componentType":5126,
			"count":82,
			"type":"VEC4"
		},
		{
			"bufferView":46,
			"componentType":5126,
			"count":2,
			"type":"VEC3"
		},
		{
			"bufferView":47,
			"componentType":5126,
			"count":2,
			"type":"VEC3"
		},
		{
			"bufferView":48,
			"componentType":5126,
			"count":2,
			"type":"VEC4"
		},
		{
			"bufferView":49,
			"componentType":5126,
			"count":2,
			"type":"VEC3"
		},
		{
			"bufferView":50,
			"componentType":5126,
			"count":2,
			"type":"VEC3"
		},
		{
			"bufferView":51,
			"componentType":5126,
			"count":2,
			"type":"VEC4"
		},
		{
			"bufferView":52,
			"componentType":5126,
			"count":2,
			"type":"VEC3"
		},
		{
			"bufferView":53,
			"componentType":5126,
			"count":2,
			"type":"VEC3"
		},
		{
			"bufferView":54,
			"componentType":5126,
			"count":82,
			"type":"VEC4"
		},
		{
			"bufferView":55,
			"componentType":5126,
			"count":2,
			"type":"VEC3"
		},
		{
			"bufferView":56,
			"componentType":5126,
			"count":2,
			"type":"VEC3"
		},
		{
			"bufferView":57,
			"componentType":5126,
			"count":82,
			"type":"VEC4"
		},
		{
			"bufferView":58,
			"componentType":5126,
			"count":2,
			"type":"VEC3"
		},
		{
			"bufferView":59,
			"componentType":5126,
			"count":2,
			"type":"VEC3"
		},
		{
			"bufferView":60,
			"componentType":5126,
			"count":2,
			"type":"VEC4"
		},
		{
			"bufferView":61,
			"componentType":5126,
			"count":2,
			"type":"VEC3"
		},
		{
			"bufferView":62,
			"componentType":5126,
			"count":2,
			"type":"VEC3"
		},
		{
			"bufferView":63,
			"componentType":5126,
			"count":2,
			"type":"VEC4"
		},
		{
			"bufferView":64,
			"componentType":5126,
			"count":2,
			"type":"VEC3"
		}
	],
	"bufferViews":[
		{
			"buffer":0,
			"byteLength":288,
			"byteOffset":0,
			"target":34962
		},
		{
			"buffer":0,
			"byteLength":288,
			"byteOffset":288,
			"target":34962
		},
		{
			"buffer":0,
			"byteLength":192,
			"byteOffset":576,
			"target":34962
		},
		{
			"buffer":0,
			"byteLength":384,
			"byteOffset":768,
			"target":34962
		},
		{
			"buffer":0,
			"byteLength":96,
			"byteOffset":1152,
			"target":34962
		},
		{
			"buffer":0,
			"byteLength":384,
			"byteOffset":1248,
			"target":34962
		},
		{
			"buffer":0,
			"byteLength":72,
			"byteOffset":1632,
			"target":34963
		},
		{
			"buffer":0,
			"byteLength":23808,
			"byteOffset":1704,
			"target":34962
		},
		{
			"buffer":0,
			"byteLength":23808,
			"byteOffset":25512,
			"target":34962
		},
		{
			"buffer":0,
			"byteLength":15872,
			"byteOffset":49320,
			"target":34962
		},
		{
			"buffer":0,
			"byteLength":31744,
			"byteOffset":65192,
			"target":34962
		},
		{
			"buffer":0,
			"byteLength":7936,
			"byteOffset":96936,
			"target":34962
		},
		{
			"buffer":0,
			"byteLength":31744,
			"byteOffset":104872,
			"target":34962
		},
		{
			"buffer":0,
			"byteLength":5760,
			"byteOffset":136616,
			"target":34963
		},
		{
			"buffer":0,
			"byteLength":288,
			"byteOffset":142376,
			"target":34962
		},
		{
			"buffer":0,
			"byteLength":288,
			"byteOffset":142664,
			"target":34962
		},
		{
			"buffer":0,
			"byteLength":192,
			"byteOffset":142952,
			"target":34962
		},
		{
			"buffer":0,
			"byteLength":384,
			"byteOffset":143144,
			"target":34962
		},
		{
			"buffer":0,
			"byteLength":96,
			"byteOffset":143528,
			"target":34962
		},
		{
			"buffer":0,
			"byteLength":384,
			"byteOffset":143624,
			"target":34962
		},
		{
			"buffer":0,
			"byteLength":23808,
			"byteOffset":144008,
			"target":34962
		},
		{
			"buffer":0,
			"byteLength":23808,
			"byteOffset":167816,
			"target":34962
		},
		{
			"buffer":0,
			"byteLength":15872,
			"byteOffset":191624,
			"target":34962
		},
		{
			"buffer":0,
			"byteLength":31744,
			"byteOffset":207496,
			"target":34962
		},
		{
			"buffer":0,
			"byteLength":7936,
			"byteOffset":239240,
			"target":34962
		},
		{
			"buffer":0,
			"byteLength":31744,
			"byteOffset":247176,
			"target":34962
		},
		{
			"buffer":0,
			"byteLength":256,
			"byteOffset":278920
		},
		{
			"buffer":0,
			"byteLength":8,
			"byteOffset":279176
		},
		{
			"buffer":0,
			"byteLength":24,
			"byteOffset":279184
		},
		{
			"buffer":0,
			"byteLength":32,
			"byteOffset":279208
		},
		{
			"buffer":0,
			"byteLength":24,
			"byteOffset":279240
		},
		{
			"buffer":0,
			"byteLength":24,
			"byteOffset":279264
		},
		{
			"buffer":0,
			"byteLength":32,
			"byteOffset":279288
		},
		{
			"buffer":0,
			"byteLength":24,
			"byteOffset":279320
		},
		{
			"buffer":0,
			"byteLength":24,
			"byteOffset":279344
		},
		{
			"buffer":0,
			"byteLength":328,
			"byteOffset":279368
		},
		{
			"buffer":0,
			"byteLength":1312,
			"byteOffset":279696
		},
		{
			"buffer":0,
			"byteLength":24,
			"byteOffset":281008
		},
		{
			"buffer":0,
			"byteLength":24,
			"byteOffset":281032
		},
		{
			"buffer":0,
			"byteLength":1312,
			"byteOffset":281056
		},
		{
			"buffer":0,
			"byteLength":24,
			"byteOffset":282368
		},
		{
			"buffer":0,
			"byteLength":24,
			"byteOffset":282392
		},
		{
			"buffer":0,
			"byteLength":1312,
			"byteOffset":282416
		},
		{
			"buffer":0,
			"byteLength":24,
			"byteOffset":283728
		},
		{
			"buffer":0,
			"byteLength":24,
			"byteOffset":283752
		},
		{
			"buffer":0,
			"byteLength":1312,
			"byteOffset":283776
		},
		{
			"buffer":0,
			"byteLength":24,
			"byteOffset":285088
		},
		{
			"buffer":0,
			"byteLength":24,
			"byteOffset":285112
		},
		{
			"buffer":0,
			"byteLength":32,
			"byteOffset":285136
		},
		{
			"buffer":0,
			"byteLength":24,
			"byteOffset":285168
		},
		{
			"buffer":0,
			"byteLength":24,
			"byteOffset":285192
		},
		{
			"buffer":0,
			"byteLength":32,
			"byteOffset":285216
		},
		{
			"buffer":0,
			"byteLength":24,
			"byteOffset":285248
		},
		{
			"buffer":0,
			"byteLength":24,
			"byteOffset":285272
		},
		{
			"buffer":0,
			"byteLength":1312,
			"byteOffset":285296
		},
		{
			"buffer":0,
			"byteLength":24,
			"byteOffset":286608
		},
		{
			"buffer":0,
			"byteLength":24,
			"byteOffset":286632
		},
		{
			"buffer":0,
			"byteLength":1312,
			"byteOffset":286656
		},
		{
			"buffer":0,
			"byteLength":24,
			"byteOffset":287968
		},
		{
			"buffer":0,
			"byteLength":24,
			"byteOffset":287992
		},
		{
			"buffer":0,
			"byteLength":32,
			"byteOffset":288016
		},
		{
			"buffer":0,
			"byteLength":24,
			"byteOffset":288048
		},
		{
			"buffer":0,
			"byteLength":24,
			"byteOffset":288072
		},
		{
			"buffer":0,
			"byteLength":32,
			"byteOffset":288096
		},
		{
			"buffer":0,
			"byteLength":24,
			"byteOffset":288128
		}
	],
	"samplers":[
		{
			"magFilter":9729,
			"minFilter":9987
		}
	],
	"buffers":[
		{
			"byteLength":288152,
			"uri":"arms.bin"
		}
	]
}
