{
	"asset":{
		"generator":"Khronos glTF Blender I/O v4.0.44",
		"version":"2.0"
	},
	"scene":0,
	"scenes":[
		{
			"name":"Scene",
			"nodes":[
				5
			]
		}
	],
	"nodes":[
		{
			"name":"Bone.001",
			"rotation":[
				-4.234083084142526e-10,
				-3.2655358417343905e-09,
				-0.00842347089201212,
				0.9999645352363586
			],
			"scale":[
				1,
				1.0000001192092896,
				1.0000001192092896
			],
			"translation":[
				3.5982679946755525e-08,
				3.351635217666626,
				2.6439397515787277e-06
			]
		},
		{
			"children":[
				0
			],
			"name":"Bone",
			"rotation":[
				-3.568440831713815e-08,
				-2.139060661932035e-08,
				-0.013203732669353485,
				0.9999128580093384
			],
			"scale":[
				1,
				0.9999999403953552,
				0.9999998807907104
			],
			"translation":[
				-0.09965012967586517,
				-3.2816367149353027,
				-1.3659521341323853
			]
		},
		{
			"name":"Bone.003",
			"rotation":[
				-1.0112491954927805e-09,
				6.644141592460073e-08,
				-0.008423404768109322,
				0.9999645352363586
			],
			"scale":[
				0.9999998807907104,
				0.9999999403953552,
				0.9999999403953552
			],
			"translation":[
				-4.846519914281089e-07,
				3.3516345024108887,
				-1.7445654520997778e-07
			]
		},
		{
			"children":[
				2
			],
			"name":"Bone.002",
			"rotation":[
				-3.470934828442296e-08,
				-9.119540322899411e-08,
				-0.013203802518546581,
				0.9999128580093384
			],
			"scale":[
				1,
				1,
				0.9999999403953552
			],
			"translation":[
				-0.09965019673109055,
				-3.281636953353882,
				1.3659452199935913
			]
		},
		{
			"mesh":0,
			"name":"Arm.002",
			"skin":0
		},
		{
			"children":[
				4,
				1,
				3
			],
			"name":"Armature.002",
			"rotation":[
				-0.7801400423049927,
				-0.6256049275398254,
				0,
				2.7346061415300937e-08
			],
			"translation":[
				10.068071365356445,
				4.7039995193481445,
				-21.016000747680664
			]
		}
	],
	"animations":[
		{
			"channels":[
				{
					"sampler":0,
					"target":{
						"node":1,
						"path":"translation"
					}
				},
				{
					"sampler":1,
					"target":{
						"node":1,
						"path":"rotation"
					}
				},
				{
					"sampler":2,
					"target":{
						"node":1,
						"path":"scale"
					}
				},
				{
					"sampler":3,
					"target":{
						"node":0,
						"path":"translation"
					}
				},
				{
					"sampler":4,
					"target":{
						"node":0,
						"path":"rotation"
					}
				},
				{
					"sampler":5,
					"target":{
						"node":0,
						"path":"scale"
					}
				},
				{
					"sampler":6,
					"target":{
						"node":3,
						"path":"translation"
					}
				},
				{
					"sampler":7,
					"target":{
						"node":3,
						"path":"rotation"
					}
				},
				{
					"sampler":8,
					"target":{
						"node":3,
						"path":"scale"
					}
				},
				{
					"sampler":9,
					"target":{
						"node":2,
						"path":"translation"
					}
				},
				{
					"sampler":10,
					"target":{
						"node":2,
						"path":"rotation"
					}
				},
				{
					"sampler":11,
					"target":{
						"node":2,
						"path":"scale"
					}
				},
				{
					"sampler":12,
					"target":{
						"node":5,
						"path":"translation"
					}
				},
				{
					"sampler":13,
					"target":{
						"node":5,
						"path":"rotation"
					}
				}
			],
			"name":"Armature.002Action",
			"samplers":[
				{
					"input":27,
					"interpolation":"STEP",
					"output":28
				},
				{
					"input":27,
					"interpolation":"STEP",
					"output":29
				},
				{
					"input":27,
					"interpolation":"STEP",
					"output":30
				},
				{
					"input":27,
					"interpolation":"STEP",
					"output":31
				},
				{
					"input":27,
					"interpolation":"STEP",
					"output":32
				},
				{
					"input":27,
					"interpolation":"STEP",
					"output":33
				},
				{
					"input":27,
					"interpolation":"STEP",
					"output":34
				},
				{
					"input":27,
					"interpolation":"STEP",
					"output":35
				},
				{
					"input":27,
					"interpolation":"STEP",
					"output":36
				},
				{
					"input":27,
					"interpolation":"STEP",
					"output":37
				},
				{
					"input":27,
					"interpolation":"STEP",
					"output":38
				},
				{
					"input":27,
					"interpolation":"STEP",
					"output":39
				},
				{
					"input":27,
					"interpolation":"LINEAR",
					"output":40
				},
				{
					"input":27,
					"interpolation":"LINEAR",
					"output":41
				}
			]
		},
		{
			"channels":[
				{
					"sampler":0,
					"target":{
						"node":1,
						"path":"translation"
					}
				},
				{
					"sampler":1,
					"target":{
						"node":1,
						"path":"rotation"
					}
				},
				{
					"sampler":2,
					"target":{
						"node":1,
						"path":"scale"
					}
				},
				{
					"sampler":3,
					"target":{
						"node":0,
						"path":"translation"
					}
				},
				{
					"sampler":4,
					"target":{
						"node":0,
						"path":"rotation"
					}
				},
				{
					"sampler":5,
					"target":{
						"node":0,
						"path":"scale"
					}
				},
				{
					"sampler":6,
					"target":{
						"node":3,
						"path":"translation"
					}
				},
				{
					"sampler":7,
					"target":{
						"node":3,
						"path":"rotation"
					}
				},
				{
					"sampler":8,
					"target":{
						"node":3,
						"path":"scale"
					}
				},
				{
					"sampler":9,
					"target":{
						"node":2,
						"path":"translation"
					}
				},
				{
					"sampler":10,
					"target":{
						"node":2,
						"path":"rotation"
					}
				},
				{
					"sampler":11,
					"target":{
						"node":2,
						"path":"scale"
					}
				},
				{
					"sampler":12,
					"target":{
						"node":5,
						"path":"translation"
					}
				},
				{
					"sampler":13,
					"target":{
						"node":5,
						"path":"rotation"
					}
				},
				{
					"sampler":14,
					"target":{
						"node":5,
						"path":"scale"
					}
				}
			],
			"name":"eating",
			"samplers":[
				{
					"input":42,
					"interpolation":"STEP",
					"output":43
				},
				{
					"input":44,
					"interpolation":"LINEAR",
					"output":45
				},
				{
					"input":42,
					"interpolation":"STEP",
					"output":46
				},
				{
					"input":42,
					"interpolation":"LINEAR",
					"output":47
				},
				{
					"input":44,
					"interpolation":"LINEAR",
					"output":48
				},
				{
					"input":42,
					"interpolation":"STEP",
					"output":49
				},
				{
					"input":42,
					"interpolation":"STEP",
					"output":50
				},
				{
					"input":42,
					"interpolation":"STEP",
					"output":51
				},
				{
					"input":42,
					"interpolation":"STEP",
					"output":52
				},
				{
					"input":42,
					"interpolation":"STEP",
					"output":53
				},
				{
					"input":42,
					"interpolation":"STEP",
					"output":54
				},
				{
					"input":42,
					"interpolation":"STEP",
					"output":55
				},
				{
					"input":42,
					"interpolation":"STEP",
					"output":56
				},
				{
					"input":42,
					"interpolation":"STEP",
					"output":57
				},
				{
					"input":42,
					"interpolation":"STEP",
					"output":58
				}
			]
		},
		{
			"channels":[
				{
					"sampler":0,
					"target":{
						"node":1,
						"path":"translation"
					}
				},
				{
					"sampler":1,
					"target":{
						"node":1,
						"path":"rotation"
					}
				},
				{
					"sampler":2,
					"target":{
						"node":1,
						"path":"scale"
					}
				},
				{
					"sampler":3,
					"target":{
						"node":0,
						"path":"translation"
					}
				},
				{
					"sampler":4,
					"target":{
						"node":0,
						"path":"rotation"
					}
				},
				{
					"sampler":5,
					"target":{
						"node":0,
						"path":"scale"
					}
				},
				{
					"sampler":6,
					"target":{
						"node":3,
						"path":"translation"
					}
				},
				{
					"sampler":7,
					"target":{
						"node":3,
						"path":"rotation"
					}
				},
				{
					"sampler":8,
					"target":{
						"node":3,
						"path":"scale"
					}
				},
				{
					"sampler":9,
					"target":{
						"node":2,
						"path":"translation"
					}
				},
				{
					"sampler":10,
					"target":{
						"node":2,
						"path":"rotation"
					}
				},
				{
					"sampler":11,
					"target":{
						"node":2,
						"path":"scale"
					}
				},
				{
					"sampler":12,
					"target":{
						"node":5,
						"path":"translation"
					}
				},
				{
					"sampler":13,
					"target":{
						"node":5,
						"path":"rotation"
					}
				},
				{
					"sampler":14,
					"target":{
						"node":5,
						"path":"scale"
					}
				}
			],
			"name":"eating.001",
			"samplers":[
				{
					"input":42,
					"interpolation":"STEP",
					"output":59
				},
				{
					"input":44,
					"interpolation":"LINEAR",
					"output":60
				},
				{
					"input":42,
					"interpolation":"STEP",
					"output":61
				},
				{
					"input":42,
					"interpolation":"LINEAR",
					"output":62
				},
				{
					"input":44,
					"interpolation":"LINEAR",
					"output":63
				},
				{
					"input":42,
					"interpolation":"STEP",
					"output":64
				},
				{
					"input":42,
					"interpolation":"STEP",
					"output":65
				},
				{
					"input":42,
					"interpolation":"STEP",
					"output":66
				},
				{
					"input":42,
					"interpolation":"STEP",
					"output":67
				},
				{
					"input":42,
					"interpolation":"STEP",
					"output":68
				},
				{
					"input":42,
					"interpolation":"STEP",
					"output":69
				},
				{
					"input":42,
					"interpolation":"STEP",
					"output":70
				},
				{
					"input":42,
					"interpolation":"STEP",
					"output":71
				},
				{
					"input":42,
					"interpolation":"STEP",
					"output":72
				},
				{
					"input":42,
					"interpolation":"STEP",
					"output":73
				}
			]
		}
	],
	"materials":[
		{
			"doubleSided":true,
			"name":"Material.051",
			"pbrMetallicRoughness":{
				"baseColorTexture":{
					"index":0
				},
				"metallicFactor":0,
				"roughnessFactor":0.5
			}
		},
		{
			"doubleSided":true,
			"name":"Material.052",
			"pbrMetallicRoughness":{
				"baseColorTexture":{
					"index":1
				},
				"metallicFactor":0,
				"roughnessFactor":0.5
			}
		},
		{
			"doubleSided":true,
			"name":"Material.048",
			"pbrMetallicRoughness":{
				"baseColorTexture":{
					"index":2
				},
				"metallicFactor":0,
				"roughnessFactor":0.5
			}
		},
		{
			"doubleSided":true,
			"name":"Material.049",
			"pbrMetallicRoughness":{
				"baseColorTexture":{
					"index":3
				},
				"metallicFactor":0,
				"roughnessFactor":0.5
			}
		}
	],
	"meshes":[
		{
			"name":"Cube.004",
			"primitives":[
				{
					"attributes":{
						"POSITION":0,
						"NORMAL":1,
						"TEXCOORD_0":2,
						"TANGENT":3,
						"JOINTS_0":4,
						"WEIGHTS_0":5
					},
					"indices":6,
					"material":0
				},
				{
					"attributes":{
						"POSITION":7,
						"NORMAL":8,
						"TEXCOORD_0":9,
						"TANGENT":10,
						"JOINTS_0":11,
						"WEIGHTS_0":12
					},
					"indices":13,
					"material":1
				},
				{
					"attributes":{
						"POSITION":14,
						"NORMAL":15,
						"TEXCOORD_0":16,
						"TANGENT":17,
						"JOINTS_0":18,
						"WEIGHTS_0":19
					},
					"indices":6,
					"material":2
				},
				{
					"attributes":{
						"POSITION":20,
						"NORMAL":21,
						"TEXCOORD_0":22,
						"TANGENT":23,
						"JOINTS_0":24,
						"WEIGHTS_0":25
					},
					"indices":13,
					"material":3
				}
			]
		}
	],
	"textures":[
		{
			"sampler":0,
			"source":0
		},
		{
			"sampler":0,
			"source":1
		},
		{
			"sampler":0,
			"source":0
		},
		{
			"sampler":0,
			"source":1
		}
	],
	"images":[
		{
			"mimeType":"image/png",
			"name":"shirt",
			"uri":"shirt.png"
		},
		{
			"mimeType":"image/png",
			"name":"hand",
			"uri":"hand.png"
		}
	],
	"skins":[
		{
			"inverseBindMatrices":26,
			"joints":[
				1,
				0,
				3,
				2
			],
			"name":"Armature.002"
		}
	],
	"accessors":[
		{
			"bufferView":0,
			"componentType":5126,
			"count":24,
			"max":[
				10.257275581359863,
				6.41317892074585,
				-19.274032592773438
			],
			"min":[
				3.52378511428833,
				4.136549472808838,
				-20.048437118530273
			],
			"type":"VEC3"
		},
		{
			"bufferView":1,
			"componentType":5126,
			"count":24,
			"type":"VEC3"
		},
		{
			"bufferView":2,
			"componentType":5126,
			"count":24,
			"type":"VEC2"
		},
		{
			"bufferView":3,
			"componentType":5126,
			"count":24,
			"type":"VEC4"
		},
		{
			"bufferView":4,
			"componentType":5121,
			"count":24,
			"type":"VEC4"
		},
		{
			"bufferView":5,
			"componentType":5126,
			"count":24,
			"type":"VEC4"
		},
		{
			"bufferView":6,
			"componentType":5123,
			"count":36,
			"type":"SCALAR"
		},
		{
			"bufferView":7,
			"componentType":5126,
			"count":1984,
			"max":[
				10.8348388671875,
				5.290838718414307,
				-18.911317825317383
			],
			"min":[
				9.336013793945312,
				3.7934629917144775,
				-20.406097412109375
			],
			"type":"VEC3"
		},
		{
			"bufferView":8,
			"componentType":5126,
			"count":1984,
			"type":"VEC3"
		},
		{
			"bufferView":9,
			"componentType":5126,
			"count":1984,
			"type":"VEC2"
		},
		{
			"bufferView":10,
			"componentType":5126,
			"count":1984,
			"type":"VEC4"
		},
		{
			"bufferView":11,
			"componentType":5121,
			"count":1984,
			"type":"VEC4"
		},
		{
			"bufferView":12,
			"componentType":5126,
			"count":1984,
			"type":"VEC4"
		},
		{
			"bufferView":13,
			"componentType":5123,
			"count":2880,
			"type":"SCALAR"
		},
		{
			"bufferView":14,
			"componentType":5126,
			"count":24,
			"max":[
				10.326862335205078,
				6.712977409362793,
				-21.988536834716797
			],
			"min":[
				3.593371629714966,
				4.436347961425781,
				-22.762943267822266
			],
			"type":"VEC3"
		},
		{
			"bufferView":15,
			"componentType":5126,
			"count":24,
			"type":"VEC3"
		},
		{
			"bufferView":16,
			"componentType":5126,
			"count":24,
			"type":"VEC2"
		},
		{
			"bufferView":17,
			"componentType":5126,
			"count":24,
			"type":"VEC4"
		},
		{
			"bufferView":18,
			"componentType":5121,
			"count":24,
			"type":"VEC4"
		},
		{
			"bufferView":19,
			"componentType":5126,
			"count":24,
			"type":"VEC4"
		},
		{
			"bufferView":20,
			"componentType":5126,
			"count":1984,
			"max":[
				10.904426574707031,
				5.590636730194092,
				-21.625822067260742
			],
			"min":[
				9.405601501464844,
				4.093261241912842,
				-23.120603561401367
			],
			"type":"VEC3"
		},
		{
			"bufferView":21,
			"componentType":5126,
			"count":1984,
			"type":"VEC3"
		},
		{
			"bufferView":22,
			"componentType":5126,
			"count":1984,
			"type":"VEC2"
		},
		{
			"bufferView":23,
			"componentType":5126,
			"count":1984,
			"type":"VEC4"
		},
		{
			"bufferView":24,
			"componentType":5121,
			"count":1984,
			"type":"VEC4"
		},
		{
			"bufferView":25,
			"componentType":5126,
			"count":1984,
			"type":"VEC4"
		},
		{
			"bufferView":26,
			"componentType":5126,
			"count":4,
			"type":"MAT4"
		},
		{
			"bufferView":27,
			"componentType":5126,
			"count":1,
			"max":[
				0
			],
			"min":[
				0
			],
			"type":"SCALAR"
		},
		{
			"bufferView":28,
			"componentType":5126,
			"count":1,
			"type":"VEC3"
		},
		{
			"bufferView":29,
			"componentType":5126,
			"count":1,
			"type":"VEC4"
		},
		{
			"bufferView":30,
			"componentType":5126,
			"count":1,
			"type":"VEC3"
		},
		{
			"bufferView":31,
			"componentType":5126,
			"count":1,
			"type":"VEC3"
		},
		{
			"bufferView":32,
			"componentType":5126,
			"count":1,
			"type":"VEC4"
		},
		{
			"bufferView":33,
			"componentType":5126,
			"count":1,
			"type":"VEC3"
		},
		{
			"bufferView":34,
			"componentType":5126,
			"count":1,
			"type":"VEC3"
		},
		{
			"bufferView":35,
			"componentType":5126,
			"count":1,
			"type":"VEC4"
		},
		{
			"bufferView":36,
			"componentType":5126,
			"count":1,
			"type":"VEC3"
		},
		{
			"bufferView":37,
			"componentType":5126,
			"count":1,
			"type":"VEC3"
		},
		{
			"bufferView":38,
			"componentType":5126,
			"count":1,
			"type":"VEC4"
		},
		{
			"bufferView":39,
			"componentType":5126,
			"count":1,
			"type":"VEC3"
		},
		{
			"bufferView":40,
			"componentType":5126,
			"count":1,
			"type":"VEC3"
		},
		{
			"bufferView":41,
			"componentType":5126,
			"count":1,
			"type":"VEC4"
		},
		{
			"bufferView":42,
			"componentType":5126,
			"count":2,
			"max":[
				2.9583333333333335
			],
			"min":[
				0
			],
			"type":"SCALAR"
		},
		{
			"bufferView":43,
			"componentType":5126,
			"count":2,
			"type":"VEC3"
		},
		{
			"bufferView":44,
			"componentType":5126,
			"count":72,
			"max":[
				2.9583333333333335
			],
			"min":[
				0
			],
			"type":"SCALAR"
		},
		{
			"bufferView":45,
			"componentType":5126,
			"count":72,
			"type":"VEC4"
		},
		{
			"bufferView":46,
			"componentType":5126,
			"count":2,
			"type":"VEC3"
		},
		{
			"bufferView":47,
			"componentType":5126,
			"count":2,
			"type":"VEC3"
		},
		{
			"bufferView":48,
			"componentType":5126,
			"count":72,
			"type":"VEC4"
		},
		{
			"bufferView":49,
			"componentType":5126,
			"count":2,
			"type":"VEC3"
		},
		{
			"bufferView":50,
			"componentType":5126,
			"count":2,
			"type":"VEC3"
		},
		{
			"bufferView":51,
			"componentType":5126,
			"count":2,
			"type":"VEC4"
		},
		{
			"bufferView":52,
			"componentType":5126,
			"count":2,
			"type":"VEC3"
		},
		{
			"bufferView":53,
			"componentType":5126,
			"count":2,
			"type":"VEC3"
		},
		{
			"bufferView":54,
			"componentType":5126,
			"count":2,
			"type":"VEC4"
		},
		{
			"bufferView":55,
			"componentType":5126,
			"count":2,
			"type":"VEC3"
		},
		{
			"bufferView":56,
			"componentType":5126,
			"count":2,
			"type":"VEC3"
		},
		{
			"bufferView":57,
			"componentType":5126,
			"count":2,
			"type":"VEC4"
		},
		{
			"bufferView":58,
			"componentType":5126,
			"count":2,
			"type":"VEC3"
		},
		{
			"bufferView":59,
			"componentType":5126,
			"count":2,
			"type":"VEC3"
		},
		{
			"bufferView":60,
			"componentType":5126,
			"count":72,
			"type":"VEC4"
		},
		{
			"bufferView":61,
			"componentType":5126,
			"count":2,
			"type":"VEC3"
		},
		{
			"bufferView":62,
			"componentType":5126,
			"count":2,
			"type":"VEC3"
		},
		{
			"bufferView":63,
			"componentType":5126,
			"count":72,
			"type":"VEC4"
		},
		{
			"bufferView":64,
			"componentType":5126,
			"count":2,
			"type":"VEC3"
		},
		{
			"bufferView":65,
			"componentType":5126,
			"count":2,
			"type":"VEC3"
		},
		{
			"bufferView":66,
			"componentType":5126,
			"count":2,
			"type":"VEC4"
		},
		{
			"bufferView":67,
			"componentType":5126,
			"count":2,
			"type":"VEC3"
		},
		{
			"bufferView":68,
			"componentType":5126,
			"count":2,
			"type":"VEC3"
		},
		{
			"bufferView":69,
			"componentType":5126,
			"count":2,
			"type":"VEC4"
		},
		{
			"bufferView":70,
			"componentType":5126,
			"count":2,
			"type":"VEC3"
		},
		{
			"bufferView":71,
			"componentType":5126,
			"count":2,
			"type":"VEC3"
		},
		{
			"bufferView":72,
			"componentType":5126,
			"count":2,
			"type":"VEC4"
		},
		{
			"bufferView":73,
			"componentType":5126,
			"count":2,
			"type":"VEC3"
		}
	],
	"bufferViews":[
		{
			"buffer":0,
			"byteLength":288,
			"byteOffset":0,
			"target":34962
		},
		{
			"buffer":0,
			"byteLength":288,
			"byteOffset":288,
			"target":34962
		},
		{
			"buffer":0,
			"byteLength":192,
			"byteOffset":576,
			"target":34962
		},
		{
			"buffer":0,
			"byteLength":384,
			"byteOffset":768,
			"target":34962
		},
		{
			"buffer":0,
			"byteLength":96,
			"byteOffset":1152,
			"target":34962
		},
		{
			"buffer":0,
			"byteLength":384,
			"byteOffset":1248,
			"target":34962
		},
		{
			"buffer":0,
			"byteLength":72,
			"byteOffset":1632,
			"target":34963
		},
		{
			"buffer":0,
			"byteLength":23808,
			"byteOffset":1704,
			"target":34962
		},
		{
			"buffer":0,
			"byteLength":23808,
			"byteOffset":25512,
			"target":34962
		},
		{
			"buffer":0,
			"byteLength":15872,
			"byteOffset":49320,
			"target":34962
		},
		{
			"buffer":0,
			"byteLength":31744,
			"byteOffset":65192,
			"target":34962
		},
		{
			"buffer":0,
			"byteLength":7936,
			"byteOffset":96936,
			"target":34962
		},
		{
			"buffer":0,
			"byteLength":31744,
			"byteOffset":104872,
			"target":34962
		},
		{
			"buffer":0,
			"byteLength":5760,
			"byteOffset":136616,
			"target":34963
		},
		{
			"buffer":0,
			"byteLength":288,
			"byteOffset":142376,
			"target":34962
		},
		{
			"buffer":0,
			"byteLength":288,
			"byteOffset":142664,
			"target":34962
		},
		{
			"buffer":0,
			"byteLength":192,
			"byteOffset":142952,
			"target":34962
		},
		{
			"buffer":0,
			"byteLength":384,
			"byteOffset":143144,
			"target":34962
		},
		{
			"buffer":0,
			"byteLength":96,
			"byteOffset":143528,
			"target":34962
		},
		{
			"buffer":0,
			"byteLength":384,
			"byteOffset":143624,
			"target":34962
		},
		{
			"buffer":0,
			"byteLength":23808,
			"byteOffset":144008,
			"target":34962
		},
		{
			"buffer":0,
			"byteLength":23808,
			"byteOffset":167816,
			"target":34962
		},
		{
			"buffer":0,
			"byteLength":15872,
			"byteOffset":191624,
			"target":34962
		},
		{
			"buffer":0,
			"byteLength":31744,
			"byteOffset":207496,
			"target":34962
		},
		{
			"buffer":0,
			"byteLength":7936,
			"byteOffset":239240,
			"target":34962
		},
		{
			"buffer":0,
			"byteLength":31744,
			"byteOffset":247176,
			"target":34962
		},
		{
			"buffer":0,
			"byteLength":256,
			"byteOffset":278920
		},
		{
			"buffer":0,
			"byteLength":4,
			"byteOffset":279176
		},
		{
			"buffer":0,
			"byteLength":12,
			"byteOffset":279180
		},
		{
			"buffer":0,
			"byteLength":16,
			"byteOffset":279192
		},
		{
			"buffer":0,
			"byteLength":12,
			"byteOffset":279208
		},
		{
			"buffer":0,
			"byteLength":12,
			"byteOffset":279220
		},
		{
			"buffer":0,
			"byteLength":16,
			"byteOffset":279232
		},
		{
			"buffer":0,
			"byteLength":12,
			"byteOffset":279248
		},
		{
			"buffer":0,
			"byteLength":12,
			"byteOffset":279260
		},
		{
			"buffer":0,
			"byteLength":16,
			"byteOffset":279272
		},
		{
			"buffer":0,
			"byteLength":12,
			"byteOffset":279288
		},
		{
			"buffer":0,
			"byteLength":12,
			"byteOffset":279300
		},
		{
			"buffer":0,
			"byteLength":16,
			"byteOffset":279312
		},
		{
			"buffer":0,
			"byteLength":12,
			"byteOffset":279328
		},
		{
			"buffer":0,
			"byteLength":12,
			"byteOffset":279340
		},
		{
			"buffer":0,
			"byteLength":16,
			"byteOffset":279352
		},
		{
			"buffer":0,
			"byteLength":8,
			"byteOffset":279368
		},
		{
			"buffer":0,
			"byteLength":24,
			"byteOffset":279376
		},
		{
			"buffer":0,
			"byteLength":288,
			"byteOffset":279400
		},
		{
			"buffer":0,
			"byteLength":1152,
			"byteOffset":279688
		},
		{
			"buffer":0,
			"byteLength":24,
			"byteOffset":280840
		},
		{
			"buffer":0,
			"byteLength":24,
			"byteOffset":280864
		},
		{
			"buffer":0,
			"byteLength":1152,
			"byteOffset":280888
		},
		{
			"buffer":0,
			"byteLength":24,
			"byteOffset":282040
		},
		{
			"buffer":0,
			"byteLength":24,
			"byteOffset":282064
		},
		{
			"buffer":0,
			"byteLength":32,
			"byteOffset":282088
		},
		{
			"buffer":0,
			"byteLength":24,
			"byteOffset":282120
		},
		{
			"buffer":0,
			"byteLength":24,
			"byteOffset":282144
		},
		{
			"buffer":0,
			"byteLength":32,
			"byteOffset":282168
		},
		{
			"buffer":0,
			"byteLength":24,
			"byteOffset":282200
		},
		{
			"buffer":0,
			"byteLength":24,
			"byteOffset":282224
		},
		{
			"buffer":0,
			"byteLength":32,
			"byteOffset":282248
		},
		{
			"buffer":0,
			"byteLength":24,
			"byteOffset":282280
		},
		{
			"buffer":0,
			"byteLength":24,
			"byteOffset":282304
		},
		{
			"buffer":0,
			"byteLength":1152,
			"byteOffset":282328
		},
		{
			"buffer":0,
			"byteLength":24,
			"byteOffset":283480
		},
		{
			"buffer":0,
			"byteLength":24,
			"byteOffset":283504
		},
		{
			"buffer":0,
			"byteLength":1152,
			"byteOffset":283528
		},
		{
			"buffer":0,
			"byteLength":24,
			"byteOffset":284680
		},
		{
			"buffer":0,
			"byteLength":24,
			"byteOffset":284704
		},
		{
			"buffer":0,
			"byteLength":32,
			"byteOffset":284728
		},
		{
			"buffer":0,
			"byteLength":24,
			"byteOffset":284760
		},
		{
			"buffer":0,
			"byteLength":24,
			"byteOffset":284784
		},
		{
			"buffer":0,
			"byteLength":32,
			"byteOffset":284808
		},
		{
			"buffer":0,
			"byteLength":24,
			"byteOffset":284840
		},
		{
			"buffer":0,
			"byteLength":24,
			"byteOffset":284864
		},
		{
			"buffer":0,
			"byteLength":32,
			"byteOffset":284888
		},
		{
			"buffer":0,
			"byteLength":24,
			"byteOffset":284920
		}
	],
	"samplers":[
		{
			"magFilter":9729,
			"minFilter":9987
		}
	],
	"buffers":[
		{
			"byteLength":284944,
			"uri":"arms.bin"
		}
	]
}
