{
	"asset":{
		"generator":"Khronos glTF Blender I/O v4.0.44",
		"version":"2.0"
	},
	"scene":0,
	"scenes":[
		{
			"name":"Scene",
			"nodes":[
				5
			]
		}
	],
	"nodes":[
		{
			"name":"Bone.001",
			"rotation":[
				-1.0936564986963049e-09,
				5.108253375851746e-09,
				-0.008423463441431522,
				0.9999645352363586
			],
			"translation":[
				3.8540633795491885e-08,
				3.3516361713409424,
				1.7278083532801247e-06
			]
		},
		{
			"children":[
				0
			],
			"name":"Bone",
			"rotation":[
				-3.581538621233449e-08,
				-3.162922013189018e-08,
				-0.013203740119934082,
				0.9999128580093384
			],
			"scale":[
				1,
				0.9999999403953552,
				0.9999998807907104
			],
			"translation":[
				0,
				-1.1920928955078125e-07,
				1.9073486328125e-06
			]
		},
		{
			"name":"Bone.003",
			"rotation":[
				-4.961675514891795e-10,
				5.103141464957162e-09,
				-0.008423463441431522,
				0.9999645352363586
			],
			"translation":[
				5.771121323050465e-07,
				3.351637125015259,
				1.735161163196608e-06
			]
		},
		{
			"children":[
				2
			],
			"name":"Bone.002",
			"rotation":[
				-3.556798588988386e-08,
				-3.1629227237317536e-08,
				-0.013203740119934082,
				0.9999128580093384
			],
			"scale":[
				1,
				0.9999999403953552,
				0.9999998807907104
			],
			"translation":[
				0,
				-1.1920928955078125e-07,
				2.7318992614746094
			]
		},
		{
			"mesh":0,
			"name":"Arm.002",
			"skin":0
		},
		{
			"children":[
				4,
				1,
				3
			],
			"name":"Armature.002",
			"rotation":[
				0,
				0,
				0.7801400423049927,
				0.6256049275398254
			],
			"translation":[
				10.068071365356445,
				4.7039995193481445,
				-21.016000747680664
			]
		}
	],
	"animations":[
		{
			"channels":[
				{
					"sampler":0,
					"target":{
						"node":1,
						"path":"translation"
					}
				},
				{
					"sampler":1,
					"target":{
						"node":1,
						"path":"rotation"
					}
				},
				{
					"sampler":2,
					"target":{
						"node":1,
						"path":"scale"
					}
				},
				{
					"sampler":3,
					"target":{
						"node":0,
						"path":"translation"
					}
				},
				{
					"sampler":4,
					"target":{
						"node":0,
						"path":"rotation"
					}
				},
				{
					"sampler":5,
					"target":{
						"node":0,
						"path":"scale"
					}
				},
				{
					"sampler":6,
					"target":{
						"node":3,
						"path":"translation"
					}
				},
				{
					"sampler":7,
					"target":{
						"node":3,
						"path":"rotation"
					}
				},
				{
					"sampler":8,
					"target":{
						"node":3,
						"path":"scale"
					}
				},
				{
					"sampler":9,
					"target":{
						"node":2,
						"path":"translation"
					}
				},
				{
					"sampler":10,
					"target":{
						"node":2,
						"path":"rotation"
					}
				},
				{
					"sampler":11,
					"target":{
						"node":2,
						"path":"scale"
					}
				},
				{
					"sampler":12,
					"target":{
						"node":5,
						"path":"translation"
					}
				},
				{
					"sampler":13,
					"target":{
						"node":5,
						"path":"rotation"
					}
				},
				{
					"sampler":14,
					"target":{
						"node":5,
						"path":"scale"
					}
				}
			],
			"name":"eating",
			"samplers":[
				{
					"input":27,
					"interpolation":"STEP",
					"output":28
				},
				{
					"input":29,
					"interpolation":"LINEAR",
					"output":30
				},
				{
					"input":27,
					"interpolation":"STEP",
					"output":31
				},
				{
					"input":27,
					"interpolation":"LINEAR",
					"output":32
				},
				{
					"input":29,
					"interpolation":"LINEAR",
					"output":33
				},
				{
					"input":27,
					"interpolation":"STEP",
					"output":34
				},
				{
					"input":27,
					"interpolation":"STEP",
					"output":35
				},
				{
					"input":27,
					"interpolation":"STEP",
					"output":36
				},
				{
					"input":27,
					"interpolation":"STEP",
					"output":37
				},
				{
					"input":27,
					"interpolation":"STEP",
					"output":38
				},
				{
					"input":27,
					"interpolation":"STEP",
					"output":39
				},
				{
					"input":27,
					"interpolation":"STEP",
					"output":40
				},
				{
					"input":27,
					"interpolation":"STEP",
					"output":41
				},
				{
					"input":27,
					"interpolation":"STEP",
					"output":42
				},
				{
					"input":27,
					"interpolation":"STEP",
					"output":43
				}
			]
		},
		{
			"channels":[
				{
					"sampler":0,
					"target":{
						"node":1,
						"path":"translation"
					}
				},
				{
					"sampler":1,
					"target":{
						"node":1,
						"path":"rotation"
					}
				},
				{
					"sampler":2,
					"target":{
						"node":1,
						"path":"scale"
					}
				},
				{
					"sampler":3,
					"target":{
						"node":0,
						"path":"translation"
					}
				},
				{
					"sampler":4,
					"target":{
						"node":0,
						"path":"rotation"
					}
				},
				{
					"sampler":5,
					"target":{
						"node":0,
						"path":"scale"
					}
				},
				{
					"sampler":6,
					"target":{
						"node":3,
						"path":"translation"
					}
				},
				{
					"sampler":7,
					"target":{
						"node":3,
						"path":"rotation"
					}
				},
				{
					"sampler":8,
					"target":{
						"node":3,
						"path":"scale"
					}
				},
				{
					"sampler":9,
					"target":{
						"node":2,
						"path":"translation"
					}
				},
				{
					"sampler":10,
					"target":{
						"node":2,
						"path":"rotation"
					}
				},
				{
					"sampler":11,
					"target":{
						"node":2,
						"path":"scale"
					}
				},
				{
					"sampler":12,
					"target":{
						"node":5,
						"path":"translation"
					}
				},
				{
					"sampler":13,
					"target":{
						"node":5,
						"path":"rotation"
					}
				},
				{
					"sampler":14,
					"target":{
						"node":5,
						"path":"scale"
					}
				}
			],
			"name":"eating.001",
			"samplers":[
				{
					"input":27,
					"interpolation":"STEP",
					"output":44
				},
				{
					"input":29,
					"interpolation":"LINEAR",
					"output":45
				},
				{
					"input":27,
					"interpolation":"STEP",
					"output":46
				},
				{
					"input":27,
					"interpolation":"LINEAR",
					"output":47
				},
				{
					"input":29,
					"interpolation":"LINEAR",
					"output":48
				},
				{
					"input":27,
					"interpolation":"STEP",
					"output":49
				},
				{
					"input":27,
					"interpolation":"STEP",
					"output":50
				},
				{
					"input":27,
					"interpolation":"STEP",
					"output":51
				},
				{
					"input":27,
					"interpolation":"STEP",
					"output":52
				},
				{
					"input":27,
					"interpolation":"STEP",
					"output":53
				},
				{
					"input":27,
					"interpolation":"STEP",
					"output":54
				},
				{
					"input":27,
					"interpolation":"STEP",
					"output":55
				},
				{
					"input":27,
					"interpolation":"STEP",
					"output":56
				},
				{
					"input":27,
					"interpolation":"STEP",
					"output":57
				},
				{
					"input":27,
					"interpolation":"STEP",
					"output":58
				}
			]
		}
	],
	"materials":[
		{
			"doubleSided":true,
			"name":"Material.051",
			"pbrMetallicRoughness":{
				"baseColorTexture":{
					"index":0
				},
				"metallicFactor":0,
				"roughnessFactor":0.5
			}
		},
		{
			"doubleSided":true,
			"name":"Material.052",
			"pbrMetallicRoughness":{
				"baseColorTexture":{
					"index":1
				},
				"metallicFactor":0,
				"roughnessFactor":0.5
			}
		},
		{
			"doubleSided":true,
			"name":"Material.048",
			"pbrMetallicRoughness":{
				"baseColorTexture":{
					"index":2
				},
				"metallicFactor":0,
				"roughnessFactor":0.5
			}
		},
		{
			"doubleSided":true,
			"name":"Material.049",
			"pbrMetallicRoughness":{
				"baseColorTexture":{
					"index":3
				},
				"metallicFactor":0,
				"roughnessFactor":0.5
			}
		}
	],
	"meshes":[
		{
			"name":"Cube.004",
			"primitives":[
				{
					"attributes":{
						"POSITION":0,
						"NORMAL":1,
						"TEXCOORD_0":2,
						"TANGENT":3,
						"JOINTS_0":4,
						"WEIGHTS_0":5
					},
					"indices":6,
					"material":0
				},
				{
					"attributes":{
						"POSITION":7,
						"NORMAL":8,
						"TEXCOORD_0":9,
						"TANGENT":10,
						"JOINTS_0":11,
						"WEIGHTS_0":12
					},
					"indices":13,
					"material":1
				},
				{
					"attributes":{
						"POSITION":14,
						"NORMAL":15,
						"TEXCOORD_0":16,
						"TANGENT":17,
						"JOINTS_0":18,
						"WEIGHTS_0":19
					},
					"indices":6,
					"material":2
				},
				{
					"attributes":{
						"POSITION":20,
						"NORMAL":21,
						"TEXCOORD_0":22,
						"TANGENT":23,
						"JOINTS_0":24,
						"WEIGHTS_0":25
					},
					"indices":13,
					"material":3
				}
			]
		}
	],
	"textures":[
		{
			"sampler":0,
			"source":0
		},
		{
			"sampler":0,
			"source":1
		},
		{
			"sampler":0,
			"source":0
		},
		{
			"sampler":0,
			"source":1
		}
	],
	"images":[
		{
			"mimeType":"image/png",
			"name":"shirt",
			"uri":"shirt.png"
		},
		{
			"mimeType":"image/png",
			"name":"hand",
			"uri":"hand.png"
		}
	],
	"skins":[
		{
			"inverseBindMatrices":26,
			"joints":[
				1,
				0,
				3,
				2
			],
			"name":"Armature.002"
		}
	],
	"accessors":[
		{
			"bufferView":0,
			"componentType":5126,
			"count":24,
			"max":[
				10.3140230178833,
				5.020995616912842,
				-20.63686180114746
			],
			"min":[
				3.5426862239837646,
				3.2105977535247803,
				-21.411264419555664
			],
			"type":"VEC3"
		},
		{
			"bufferView":1,
			"componentType":5126,
			"count":24,
			"type":"VEC3"
		},
		{
			"bufferView":2,
			"componentType":5126,
			"count":24,
			"type":"VEC2"
		},
		{
			"bufferView":3,
			"componentType":5126,
			"count":24,
			"type":"VEC4"
		},
		{
			"bufferView":4,
			"componentType":5121,
			"count":24,
			"type":"VEC4"
		},
		{
			"bufferView":5,
			"componentType":5126,
			"count":24,
			"type":"VEC4"
		},
		{
			"bufferView":6,
			"componentType":5123,
			"count":36,
			"type":"SCALAR"
		},
		{
			"bufferView":7,
			"componentType":5126,
			"count":1984,
			"max":[
				10.914332389831543,
				5.383244037628174,
				-20.274145126342773
			],
			"min":[
				9.415847778320312,
				3.883286952972412,
				-21.7689266204834
			],
			"type":"VEC3"
		},
		{
			"bufferView":8,
			"componentType":5126,
			"count":1984,
			"type":"VEC3"
		},
		{
			"bufferView":9,
			"componentType":5126,
			"count":1984,
			"type":"VEC2"
		},
		{
			"bufferView":10,
			"componentType":5126,
			"count":1984,
			"type":"VEC4"
		},
		{
			"bufferView":11,
			"componentType":5121,
			"count":1984,
			"type":"VEC4"
		},
		{
			"bufferView":12,
			"componentType":5126,
			"count":1984,
			"type":"VEC4"
		},
		{
			"bufferView":13,
			"componentType":5123,
			"count":2880,
			"type":"SCALAR"
		},
		{
			"bufferView":14,
			"componentType":5126,
			"count":24,
			"max":[
				10.266237258911133,
				5.325031280517578,
				-23.35136604309082
			],
			"min":[
				3.4948995113372803,
				3.5146334171295166,
				-24.125770568847656
			],
			"type":"VEC3"
		},
		{
			"bufferView":15,
			"componentType":5126,
			"count":24,
			"type":"VEC3"
		},
		{
			"bufferView":16,
			"componentType":5126,
			"count":24,
			"type":"VEC2"
		},
		{
			"bufferView":17,
			"componentType":5126,
			"count":24,
			"type":"VEC4"
		},
		{
			"bufferView":18,
			"componentType":5121,
			"count":24,
			"type":"VEC4"
		},
		{
			"bufferView":19,
			"componentType":5126,
			"count":24,
			"type":"VEC4"
		},
		{
			"bufferView":20,
			"componentType":5126,
			"count":1984,
			"max":[
				10.866546630859375,
				5.68727970123291,
				-22.988651275634766
			],
			"min":[
				9.368062019348145,
				4.187323093414307,
				-24.483430862426758
			],
			"type":"VEC3"
		},
		{
			"bufferView":21,
			"componentType":5126,
			"count":1984,
			"type":"VEC3"
		},
		{
			"bufferView":22,
			"componentType":5126,
			"count":1984,
			"type":"VEC2"
		},
		{
			"bufferView":23,
			"componentType":5126,
			"count":1984,
			"type":"VEC4"
		},
		{
			"bufferView":24,
			"componentType":5121,
			"count":1984,
			"type":"VEC4"
		},
		{
			"bufferView":25,
			"componentType":5126,
			"count":1984,
			"type":"VEC4"
		},
		{
			"bufferView":26,
			"componentType":5126,
			"count":4,
			"type":"MAT4"
		},
		{
			"bufferView":27,
			"componentType":5126,
			"count":2,
			"max":[
				2.9583333333333335
			],
			"min":[
				0
			],
			"type":"SCALAR"
		},
		{
			"bufferView":28,
			"componentType":5126,
			"count":2,
			"type":"VEC3"
		},
		{
			"bufferView":29,
			"componentType":5126,
			"count":72,
			"max":[
				2.9583333333333335
			],
			"min":[
				0
			],
			"type":"SCALAR"
		},
		{
			"bufferView":30,
			"componentType":5126,
			"count":72,
			"type":"VEC4"
		},
		{
			"bufferView":31,
			"componentType":5126,
			"count":2,
			"type":"VEC3"
		},
		{
			"bufferView":32,
			"componentType":5126,
			"count":2,
			"type":"VEC3"
		},
		{
			"bufferView":33,
			"componentType":5126,
			"count":72,
			"type":"VEC4"
		},
		{
			"bufferView":34,
			"componentType":5126,
			"count":2,
			"type":"VEC3"
		},
		{
			"bufferView":35,
			"componentType":5126,
			"count":2,
			"type":"VEC3"
		},
		{
			"bufferView":36,
			"componentType":5126,
			"count":2,
			"type":"VEC4"
		},
		{
			"bufferView":37,
			"componentType":5126,
			"count":2,
			"type":"VEC3"
		},
		{
			"bufferView":38,
			"componentType":5126,
			"count":2,
			"type":"VEC3"
		},
		{
			"bufferView":39,
			"componentType":5126,
			"count":2,
			"type":"VEC4"
		},
		{
			"bufferView":40,
			"componentType":5126,
			"count":2,
			"type":"VEC3"
		},
		{
			"bufferView":41,
			"componentType":5126,
			"count":2,
			"type":"VEC3"
		},
		{
			"bufferView":42,
			"componentType":5126,
			"count":2,
			"type":"VEC4"
		},
		{
			"bufferView":43,
			"componentType":5126,
			"count":2,
			"type":"VEC3"
		},
		{
			"bufferView":44,
			"componentType":5126,
			"count":2,
			"type":"VEC3"
		},
		{
			"bufferView":45,
			"componentType":5126,
			"count":72,
			"type":"VEC4"
		},
		{
			"bufferView":46,
			"componentType":5126,
			"count":2,
			"type":"VEC3"
		},
		{
			"bufferView":47,
			"componentType":5126,
			"count":2,
			"type":"VEC3"
		},
		{
			"bufferView":48,
			"componentType":5126,
			"count":72,
			"type":"VEC4"
		},
		{
			"bufferView":49,
			"componentType":5126,
			"count":2,
			"type":"VEC3"
		},
		{
			"bufferView":50,
			"componentType":5126,
			"count":2,
			"type":"VEC3"
		},
		{
			"bufferView":51,
			"componentType":5126,
			"count":2,
			"type":"VEC4"
		},
		{
			"bufferView":52,
			"componentType":5126,
			"count":2,
			"type":"VEC3"
		},
		{
			"bufferView":53,
			"componentType":5126,
			"count":2,
			"type":"VEC3"
		},
		{
			"bufferView":54,
			"componentType":5126,
			"count":2,
			"type":"VEC4"
		},
		{
			"bufferView":55,
			"componentType":5126,
			"count":2,
			"type":"VEC3"
		},
		{
			"bufferView":56,
			"componentType":5126,
			"count":2,
			"type":"VEC3"
		},
		{
			"bufferView":57,
			"componentType":5126,
			"count":2,
			"type":"VEC4"
		},
		{
			"bufferView":58,
			"componentType":5126,
			"count":2,
			"type":"VEC3"
		}
	],
	"bufferViews":[
		{
			"buffer":0,
			"byteLength":288,
			"byteOffset":0,
			"target":34962
		},
		{
			"buffer":0,
			"byteLength":288,
			"byteOffset":288,
			"target":34962
		},
		{
			"buffer":0,
			"byteLength":192,
			"byteOffset":576,
			"target":34962
		},
		{
			"buffer":0,
			"byteLength":384,
			"byteOffset":768,
			"target":34962
		},
		{
			"buffer":0,
			"byteLength":96,
			"byteOffset":1152,
			"target":34962
		},
		{
			"buffer":0,
			"byteLength":384,
			"byteOffset":1248,
			"target":34962
		},
		{
			"buffer":0,
			"byteLength":72,
			"byteOffset":1632,
			"target":34963
		},
		{
			"buffer":0,
			"byteLength":23808,
			"byteOffset":1704,
			"target":34962
		},
		{
			"buffer":0,
			"byteLength":23808,
			"byteOffset":25512,
			"target":34962
		},
		{
			"buffer":0,
			"byteLength":15872,
			"byteOffset":49320,
			"target":34962
		},
		{
			"buffer":0,
			"byteLength":31744,
			"byteOffset":65192,
			"target":34962
		},
		{
			"buffer":0,
			"byteLength":7936,
			"byteOffset":96936,
			"target":34962
		},
		{
			"buffer":0,
			"byteLength":31744,
			"byteOffset":104872,
			"target":34962
		},
		{
			"buffer":0,
			"byteLength":5760,
			"byteOffset":136616,
			"target":34963
		},
		{
			"buffer":0,
			"byteLength":288,
			"byteOffset":142376,
			"target":34962
		},
		{
			"buffer":0,
			"byteLength":288,
			"byteOffset":142664,
			"target":34962
		},
		{
			"buffer":0,
			"byteLength":192,
			"byteOffset":142952,
			"target":34962
		},
		{
			"buffer":0,
			"byteLength":384,
			"byteOffset":143144,
			"target":34962
		},
		{
			"buffer":0,
			"byteLength":96,
			"byteOffset":143528,
			"target":34962
		},
		{
			"buffer":0,
			"byteLength":384,
			"byteOffset":143624,
			"target":34962
		},
		{
			"buffer":0,
			"byteLength":23808,
			"byteOffset":144008,
			"target":34962
		},
		{
			"buffer":0,
			"byteLength":23808,
			"byteOffset":167816,
			"target":34962
		},
		{
			"buffer":0,
			"byteLength":15872,
			"byteOffset":191624,
			"target":34962
		},
		{
			"buffer":0,
			"byteLength":31744,
			"byteOffset":207496,
			"target":34962
		},
		{
			"buffer":0,
			"byteLength":7936,
			"byteOffset":239240,
			"target":34962
		},
		{
			"buffer":0,
			"byteLength":31744,
			"byteOffset":247176,
			"target":34962
		},
		{
			"buffer":0,
			"byteLength":256,
			"byteOffset":278920
		},
		{
			"buffer":0,
			"byteLength":8,
			"byteOffset":279176
		},
		{
			"buffer":0,
			"byteLength":24,
			"byteOffset":279184
		},
		{
			"buffer":0,
			"byteLength":288,
			"byteOffset":279208
		},
		{
			"buffer":0,
			"byteLength":1152,
			"byteOffset":279496
		},
		{
			"buffer":0,
			"byteLength":24,
			"byteOffset":280648
		},
		{
			"buffer":0,
			"byteLength":24,
			"byteOffset":280672
		},
		{
			"buffer":0,
			"byteLength":1152,
			"byteOffset":280696
		},
		{
			"buffer":0,
			"byteLength":24,
			"byteOffset":281848
		},
		{
			"buffer":0,
			"byteLength":24,
			"byteOffset":281872
		},
		{
			"buffer":0,
			"byteLength":32,
			"byteOffset":281896
		},
		{
			"buffer":0,
			"byteLength":24,
			"byteOffset":281928
		},
		{
			"buffer":0,
			"byteLength":24,
			"byteOffset":281952
		},
		{
			"buffer":0,
			"byteLength":32,
			"byteOffset":281976
		},
		{
			"buffer":0,
			"byteLength":24,
			"byteOffset":282008
		},
		{
			"buffer":0,
			"byteLength":24,
			"byteOffset":282032
		},
		{
			"buffer":0,
			"byteLength":32,
			"byteOffset":282056
		},
		{
			"buffer":0,
			"byteLength":24,
			"byteOffset":282088
		},
		{
			"buffer":0,
			"byteLength":24,
			"byteOffset":282112
		},
		{
			"buffer":0,
			"byteLength":1152,
			"byteOffset":282136
		},
		{
			"buffer":0,
			"byteLength":24,
			"byteOffset":283288
		},
		{
			"buffer":0,
			"byteLength":24,
			"byteOffset":283312
		},
		{
			"buffer":0,
			"byteLength":1152,
			"byteOffset":283336
		},
		{
			"buffer":0,
			"byteLength":24,
			"byteOffset":284488
		},
		{
			"buffer":0,
			"byteLength":24,
			"byteOffset":284512
		},
		{
			"buffer":0,
			"byteLength":32,
			"byteOffset":284536
		},
		{
			"buffer":0,
			"byteLength":24,
			"byteOffset":284568
		},
		{
			"buffer":0,
			"byteLength":24,
			"byteOffset":284592
		},
		{
			"buffer":0,
			"byteLength":32,
			"byteOffset":284616
		},
		{
			"buffer":0,
			"byteLength":24,
			"byteOffset":284648
		},
		{
			"buffer":0,
			"byteLength":24,
			"byteOffset":284672
		},
		{
			"buffer":0,
			"byteLength":32,
			"byteOffset":284696
		},
		{
			"buffer":0,
			"byteLength":24,
			"byteOffset":284728
		}
	],
	"samplers":[
		{
			"magFilter":9729,
			"minFilter":9987
		}
	],
	"buffers":[
		{
			"byteLength":284752,
			"uri":"arms.bin"
		}
	]
}
