{
	"asset":{
		"generator":"Khronos glTF Blender I/O v4.0.44",
		"version":"2.0"
	},
	"scene":0,
	"scenes":[
		{
			"name":"Scene",
			"nodes":[
				4
			]
		}
	],
	"nodes":[
		{
			"name":"Bone.001",
			"rotation":[
				-1.0936564986963049e-09,
				5.108253375851746e-09,
				-0.008423463441431522,
				0.9999645352363586
			],
			"translation":[
				3.8540633795491885e-08,
				3.3516361713409424,
				1.7278083532801247e-06
			]
		},
		{
			"children":[
				0
			],
			"name":"Bone",
			"rotation":[
				-3.581538621233449e-08,
				-3.162922013189018e-08,
				-0.013203740119934082,
				0.9999128580093384
			],
			"scale":[
				1,
				0.9999999403953552,
				0.9999998807907104
			],
			"translation":[
				0,
				-1.1920928955078125e-07,
				1.9073486328125e-06
			]
		},
		{
			"name":"Bone.003",
			"rotation":[
				-4.961675514891795e-10,
				5.103141464957162e-09,
				-0.008423463441431522,
				0.9999645352363586
			],
			"translation":[
				5.771121323050465e-07,
				3.351637125015259,
				1.735161163196608e-06
			]
		},
		{
			"children":[
				2
			],
			"name":"Bone.002",
			"rotation":[
				-3.556798588988386e-08,
				-3.1629227237317536e-08,
				-0.013203740119934082,
				0.9999128580093384
			],
			"scale":[
				1,
				0.9999999403953552,
				0.9999998807907104
			],
			"translation":[
				0,
				-1.1920928955078125e-07,
				2.7318992614746094
			]
		},
		{
			"children":[
				1,
				3
			],
			"name":"Armature.002",
			"rotation":[
				0,
				0,
				0.7801400423049927,
				0.6256049275398254
			],
			"translation":[
				10.068071365356445,
				4.7039995193481445,
				-21.016000747680664
			]
		}
	],
	"animations":[
		{
			"channels":[
				{
					"sampler":0,
					"target":{
						"node":1,
						"path":"translation"
					}
				},
				{
					"sampler":1,
					"target":{
						"node":1,
						"path":"rotation"
					}
				},
				{
					"sampler":2,
					"target":{
						"node":1,
						"path":"scale"
					}
				},
				{
					"sampler":3,
					"target":{
						"node":0,
						"path":"translation"
					}
				},
				{
					"sampler":4,
					"target":{
						"node":0,
						"path":"rotation"
					}
				},
				{
					"sampler":5,
					"target":{
						"node":0,
						"path":"scale"
					}
				},
				{
					"sampler":6,
					"target":{
						"node":3,
						"path":"translation"
					}
				},
				{
					"sampler":7,
					"target":{
						"node":3,
						"path":"rotation"
					}
				},
				{
					"sampler":8,
					"target":{
						"node":3,
						"path":"scale"
					}
				},
				{
					"sampler":9,
					"target":{
						"node":2,
						"path":"translation"
					}
				},
				{
					"sampler":10,
					"target":{
						"node":2,
						"path":"rotation"
					}
				},
				{
					"sampler":11,
					"target":{
						"node":2,
						"path":"scale"
					}
				},
				{
					"sampler":12,
					"target":{
						"node":4,
						"path":"translation"
					}
				},
				{
					"sampler":13,
					"target":{
						"node":4,
						"path":"rotation"
					}
				},
				{
					"sampler":14,
					"target":{
						"node":4,
						"path":"scale"
					}
				}
			],
			"name":"eating",
			"samplers":[
				{
					"input":0,
					"interpolation":"STEP",
					"output":1
				},
				{
					"input":2,
					"interpolation":"LINEAR",
					"output":3
				},
				{
					"input":0,
					"interpolation":"STEP",
					"output":4
				},
				{
					"input":0,
					"interpolation":"LINEAR",
					"output":5
				},
				{
					"input":2,
					"interpolation":"LINEAR",
					"output":6
				},
				{
					"input":0,
					"interpolation":"STEP",
					"output":7
				},
				{
					"input":0,
					"interpolation":"STEP",
					"output":8
				},
				{
					"input":0,
					"interpolation":"STEP",
					"output":9
				},
				{
					"input":0,
					"interpolation":"STEP",
					"output":10
				},
				{
					"input":0,
					"interpolation":"STEP",
					"output":11
				},
				{
					"input":0,
					"interpolation":"STEP",
					"output":12
				},
				{
					"input":0,
					"interpolation":"STEP",
					"output":13
				},
				{
					"input":0,
					"interpolation":"STEP",
					"output":14
				},
				{
					"input":0,
					"interpolation":"STEP",
					"output":15
				},
				{
					"input":0,
					"interpolation":"STEP",
					"output":16
				}
			]
		},
		{
			"channels":[
				{
					"sampler":0,
					"target":{
						"node":1,
						"path":"translation"
					}
				},
				{
					"sampler":1,
					"target":{
						"node":1,
						"path":"rotation"
					}
				},
				{
					"sampler":2,
					"target":{
						"node":1,
						"path":"scale"
					}
				},
				{
					"sampler":3,
					"target":{
						"node":0,
						"path":"translation"
					}
				},
				{
					"sampler":4,
					"target":{
						"node":0,
						"path":"rotation"
					}
				},
				{
					"sampler":5,
					"target":{
						"node":0,
						"path":"scale"
					}
				},
				{
					"sampler":6,
					"target":{
						"node":3,
						"path":"translation"
					}
				},
				{
					"sampler":7,
					"target":{
						"node":3,
						"path":"rotation"
					}
				},
				{
					"sampler":8,
					"target":{
						"node":3,
						"path":"scale"
					}
				},
				{
					"sampler":9,
					"target":{
						"node":2,
						"path":"translation"
					}
				},
				{
					"sampler":10,
					"target":{
						"node":2,
						"path":"rotation"
					}
				},
				{
					"sampler":11,
					"target":{
						"node":2,
						"path":"scale"
					}
				},
				{
					"sampler":12,
					"target":{
						"node":4,
						"path":"translation"
					}
				},
				{
					"sampler":13,
					"target":{
						"node":4,
						"path":"rotation"
					}
				},
				{
					"sampler":14,
					"target":{
						"node":4,
						"path":"scale"
					}
				}
			],
			"name":"eating.001",
			"samplers":[
				{
					"input":0,
					"interpolation":"STEP",
					"output":17
				},
				{
					"input":2,
					"interpolation":"LINEAR",
					"output":18
				},
				{
					"input":0,
					"interpolation":"STEP",
					"output":19
				},
				{
					"input":0,
					"interpolation":"LINEAR",
					"output":20
				},
				{
					"input":2,
					"interpolation":"LINEAR",
					"output":21
				},
				{
					"input":0,
					"interpolation":"STEP",
					"output":22
				},
				{
					"input":0,
					"interpolation":"STEP",
					"output":23
				},
				{
					"input":0,
					"interpolation":"STEP",
					"output":24
				},
				{
					"input":0,
					"interpolation":"STEP",
					"output":25
				},
				{
					"input":0,
					"interpolation":"STEP",
					"output":26
				},
				{
					"input":0,
					"interpolation":"STEP",
					"output":27
				},
				{
					"input":0,
					"interpolation":"STEP",
					"output":28
				},
				{
					"input":0,
					"interpolation":"STEP",
					"output":29
				},
				{
					"input":0,
					"interpolation":"STEP",
					"output":30
				},
				{
					"input":0,
					"interpolation":"STEP",
					"output":31
				}
			]
		}
	],
	"skins":[
		{
			"inverseBindMatrices":32,
			"joints":[
				1,
				0,
				3,
				2
			],
			"name":"Armature.002"
		}
	],
	"accessors":[
		{
			"bufferView":0,
			"componentType":5126,
			"count":2,
			"max":[
				2.9583333333333335
			],
			"min":[
				0
			],
			"type":"SCALAR"
		},
		{
			"bufferView":1,
			"componentType":5126,
			"count":2,
			"type":"VEC3"
		},
		{
			"bufferView":2,
			"componentType":5126,
			"count":72,
			"max":[
				2.9583333333333335
			],
			"min":[
				0
			],
			"type":"SCALAR"
		},
		{
			"bufferView":3,
			"componentType":5126,
			"count":72,
			"type":"VEC4"
		},
		{
			"bufferView":4,
			"componentType":5126,
			"count":2,
			"type":"VEC3"
		},
		{
			"bufferView":5,
			"componentType":5126,
			"count":2,
			"type":"VEC3"
		},
		{
			"bufferView":6,
			"componentType":5126,
			"count":72,
			"type":"VEC4"
		},
		{
			"bufferView":7,
			"componentType":5126,
			"count":2,
			"type":"VEC3"
		},
		{
			"bufferView":8,
			"componentType":5126,
			"count":2,
			"type":"VEC3"
		},
		{
			"bufferView":9,
			"componentType":5126,
			"count":2,
			"type":"VEC4"
		},
		{
			"bufferView":10,
			"componentType":5126,
			"count":2,
			"type":"VEC3"
		},
		{
			"bufferView":11,
			"componentType":5126,
			"count":2,
			"type":"VEC3"
		},
		{
			"bufferView":12,
			"componentType":5126,
			"count":2,
			"type":"VEC4"
		},
		{
			"bufferView":13,
			"componentType":5126,
			"count":2,
			"type":"VEC3"
		},
		{
			"bufferView":14,
			"componentType":5126,
			"count":2,
			"type":"VEC3"
		},
		{
			"bufferView":15,
			"componentType":5126,
			"count":2,
			"type":"VEC4"
		},
		{
			"bufferView":16,
			"componentType":5126,
			"count":2,
			"type":"VEC3"
		},
		{
			"bufferView":17,
			"componentType":5126,
			"count":2,
			"type":"VEC3"
		},
		{
			"bufferView":18,
			"componentType":5126,
			"count":72,
			"type":"VEC4"
		},
		{
			"bufferView":19,
			"componentType":5126,
			"count":2,
			"type":"VEC3"
		},
		{
			"bufferView":20,
			"componentType":5126,
			"count":2,
			"type":"VEC3"
		},
		{
			"bufferView":21,
			"componentType":5126,
			"count":72,
			"type":"VEC4"
		},
		{
			"bufferView":22,
			"componentType":5126,
			"count":2,
			"type":"VEC3"
		},
		{
			"bufferView":23,
			"componentType":5126,
			"count":2,
			"type":"VEC3"
		},
		{
			"bufferView":24,
			"componentType":5126,
			"count":2,
			"type":"VEC4"
		},
		{
			"bufferView":25,
			"componentType":5126,
			"count":2,
			"type":"VEC3"
		},
		{
			"bufferView":26,
			"componentType":5126,
			"count":2,
			"type":"VEC3"
		},
		{
			"bufferView":27,
			"componentType":5126,
			"count":2,
			"type":"VEC4"
		},
		{
			"bufferView":28,
			"componentType":5126,
			"count":2,
			"type":"VEC3"
		},
		{
			"bufferView":29,
			"componentType":5126,
			"count":2,
			"type":"VEC3"
		},
		{
			"bufferView":30,
			"componentType":5126,
			"count":2,
			"type":"VEC4"
		},
		{
			"bufferView":31,
			"componentType":5126,
			"count":2,
			"type":"VEC3"
		},
		{
			"bufferView":32,
			"componentType":5126,
			"count":4,
			"type":"MAT4"
		}
	],
	"bufferViews":[
		{
			"buffer":0,
			"byteLength":8,
			"byteOffset":0
		},
		{
			"buffer":0,
			"byteLength":24,
			"byteOffset":8
		},
		{
			"buffer":0,
			"byteLength":288,
			"byteOffset":32
		},
		{
			"buffer":0,
			"byteLength":1152,
			"byteOffset":320
		},
		{
			"buffer":0,
			"byteLength":24,
			"byteOffset":1472
		},
		{
			"buffer":0,
			"byteLength":24,
			"byteOffset":1496
		},
		{
			"buffer":0,
			"byteLength":1152,
			"byteOffset":1520
		},
		{
			"buffer":0,
			"byteLength":24,
			"byteOffset":2672
		},
		{
			"buffer":0,
			"byteLength":24,
			"byteOffset":2696
		},
		{
			"buffer":0,
			"byteLength":32,
			"byteOffset":2720
		},
		{
			"buffer":0,
			"byteLength":24,
			"byteOffset":2752
		},
		{
			"buffer":0,
			"byteLength":24,
			"byteOffset":2776
		},
		{
			"buffer":0,
			"byteLength":32,
			"byteOffset":2800
		},
		{
			"buffer":0,
			"byteLength":24,
			"byteOffset":2832
		},
		{
			"buffer":0,
			"byteLength":24,
			"byteOffset":2856
		},
		{
			"buffer":0,
			"byteLength":32,
			"byteOffset":2880
		},
		{
			"buffer":0,
			"byteLength":24,
			"byteOffset":2912
		},
		{
			"buffer":0,
			"byteLength":24,
			"byteOffset":2936
		},
		{
			"buffer":0,
			"byteLength":1152,
			"byteOffset":2960
		},
		{
			"buffer":0,
			"byteLength":24,
			"byteOffset":4112
		},
		{
			"buffer":0,
			"byteLength":24,
			"byteOffset":4136
		},
		{
			"buffer":0,
			"byteLength":1152,
			"byteOffset":4160
		},
		{
			"buffer":0,
			"byteLength":24,
			"byteOffset":5312
		},
		{
			"buffer":0,
			"byteLength":24,
			"byteOffset":5336
		},
		{
			"buffer":0,
			"byteLength":32,
			"byteOffset":5360
		},
		{
			"buffer":0,
			"byteLength":24,
			"byteOffset":5392
		},
		{
			"buffer":0,
			"byteLength":24,
			"byteOffset":5416
		},
		{
			"buffer":0,
			"byteLength":32,
			"byteOffset":5440
		},
		{
			"buffer":0,
			"byteLength":24,
			"byteOffset":5472
		},
		{
			"buffer":0,
			"byteLength":24,
			"byteOffset":5496
		},
		{
			"buffer":0,
			"byteLength":32,
			"byteOffset":5520
		},
		{
			"buffer":0,
			"byteLength":24,
			"byteOffset":5552
		},
		{
			"buffer":0,
			"byteLength":256,
			"byteOffset":5576
		}
	],
	"buffers":[
		{
			"byteLength":5832,
			"uri":"arms.bin"
		}
	]
}
