{
	"asset":{
		"generator":"Khronos glTF Blender I/O v4.0.44",
		"version":"2.0"
	},
	"scene":0,
	"scenes":[
		{
			"name":"Scene",
			"nodes":[
				0
			]
		}
	],
	"nodes":[
		{
			"mesh":0,
			"name":"Bacon.003",
			"rotation":[
				0,
				-0.16900570690631866,
				0,
				0.985615074634552
			],
			"scale":[
				0.16942739486694336,
				1,
				1
			]
		}
	],
	"materials":[
		{
			"doubleSided":true,
			"name":"Material.010",
			"pbrMetallicRoughness":{
				"baseColorTexture":{
					"index":0
				},
				"metallicFactor":0,
				"roughnessFactor":0.5
			}
		},
		{
			"doubleSided":true,
			"name":"Material.005",
			"pbrMetallicRoughness":{
				"baseColorTexture":{
					"index":1
				},
				"metallicFactor":0,
				"roughnessFactor":0.5
			}
		},
		{
			"doubleSided":true,
			"name":"Material.006",
			"pbrMetallicRoughness":{
				"baseColorTexture":{
					"index":2
				},
				"metallicFactor":0,
				"roughnessFactor":0.5
			}
		},
		{
			"doubleSided":true,
			"name":"Material.009",
			"pbrMetallicRoughness":{
				"baseColorTexture":{
					"index":3
				},
				"metallicFactor":0,
				"roughnessFactor":0.5
			}
		},
		{
			"doubleSided":true,
			"name":"Material.012",
			"pbrMetallicRoughness":{
				"baseColorTexture":{
					"index":4
				},
				"metallicFactor":0,
				"roughnessFactor":0.5
			}
		}
	],
	"meshes":[
		{
			"name":"Plane.006",
			"primitives":[
				{
					"attributes":{
						"POSITION":0,
						"NORMAL":1,
						"TEXCOORD_0":2,
						"TANGENT":3
					},
					"indices":4,
					"material":0
				},
				{
					"attributes":{
						"POSITION":5,
						"NORMAL":6,
						"TEXCOORD_0":7,
						"TANGENT":8
					},
					"indices":4,
					"material":1
				},
				{
					"attributes":{
						"POSITION":9,
						"NORMAL":10,
						"TEXCOORD_0":11,
						"TANGENT":12
					},
					"indices":13,
					"material":2
				},
				{
					"attributes":{
						"POSITION":14,
						"NORMAL":15,
						"TEXCOORD_0":16,
						"TANGENT":17
					},
					"indices":18,
					"material":3
				},
				{
					"attributes":{
						"POSITION":19,
						"NORMAL":20,
						"TEXCOORD_0":21,
						"TANGENT":22
					},
					"indices":13,
					"material":4
				}
			]
		}
	],
	"textures":[
		{
			"sampler":0,
			"source":0
		},
		{
			"sampler":0,
			"source":0
		},
		{
			"sampler":0,
			"source":0
		},
		{
			"sampler":0,
			"source":0
		},
		{
			"sampler":0,
			"source":0
		}
	],
	"images":[
		{
			"mimeType":"image/png",
			"name":"Bacon",
			"uri":"Bacon.png"
		}
	],
	"accessors":[
		{
			"bufferView":0,
			"componentType":5126,
			"count":105,
			"max":[
				1.1323161125183105,
				0.24831190705299377,
				1.0119013786315918
			],
			"min":[
				-1.086174726486206,
				0.012816076166927814,
				-1.00889253616333
			],
			"type":"VEC3"
		},
		{
			"bufferView":1,
			"componentType":5126,
			"count":105,
			"type":"VEC3"
		},
		{
			"bufferView":2,
			"componentType":5126,
			"count":105,
			"type":"VEC2"
		},
		{
			"bufferView":3,
			"componentType":5126,
			"count":105,
			"type":"VEC4"
		},
		{
			"bufferView":4,
			"componentType":5123,
			"count":480,
			"type":"SCALAR"
		},
		{
			"bufferView":5,
			"componentType":5126,
			"count":105,
			"max":[
				-3.5208611488342285,
				0.24831190705299377,
				0.8206983804702759
			],
			"min":[
				-5.739352226257324,
				0.012816079892218113,
				-1.200095534324646
			],
			"type":"VEC3"
		},
		{
			"bufferView":6,
			"componentType":5126,
			"count":105,
			"type":"VEC3"
		},
		{
			"bufferView":7,
			"componentType":5126,
			"count":105,
			"type":"VEC2"
		},
		{
			"bufferView":8,
			"componentType":5126,
			"count":105,
			"type":"VEC4"
		},
		{
			"bufferView":9,
			"componentType":5126,
			"count":75,
			"max":[
				1.8095884323120117,
				0.2048143893480301,
				0.5198001861572266
			],
			"min":[
				-5.764795303344727,
				-0.025923285633325577,
				-0.62073814868927
			],
			"type":"VEC3"
		},
		{
			"bufferView":10,
			"componentType":5126,
			"count":75,
			"type":"VEC3"
		},
		{
			"bufferView":11,
			"componentType":5126,
			"count":75,
			"type":"VEC2"
		},
		{
			"bufferView":12,
			"componentType":5126,
			"count":75,
			"type":"VEC4"
		},
		{
			"bufferView":13,
			"componentType":5123,
			"count":336,
			"type":"SCALAR"
		},
		{
			"bufferView":14,
			"componentType":5126,
			"count":105,
			"max":[
				-1.0679543018341064,
				0.24692130088806152,
				1.0104552507400513
			],
			"min":[
				-8.475069046020508,
				0.08262388408184052,
				-0.8617682456970215
			],
			"type":"VEC3"
		},
		{
			"bufferView":15,
			"componentType":5126,
			"count":105,
			"type":"VEC3"
		},
		{
			"bufferView":16,
			"componentType":5126,
			"count":105,
			"type":"VEC2"
		},
		{
			"bufferView":17,
			"componentType":5126,
			"count":105,
			"type":"VEC4"
		},
		{
			"bufferView":18,
			"componentType":5123,
			"count":480,
			"type":"SCALAR"
		},
		{
			"bufferView":19,
			"componentType":5126,
			"count":75,
			"max":[
				1.0993680953979492,
				0.2048143893480301,
				0.49898990988731384
			],
			"min":[
				-4.81122350692749,
				-0.025923285633325577,
				-0.8507778644561768
			],
			"type":"VEC3"
		},
		{
			"bufferView":20,
			"componentType":5126,
			"count":75,
			"type":"VEC3"
		},
		{
			"bufferView":21,
			"componentType":5126,
			"count":75,
			"type":"VEC2"
		},
		{
			"bufferView":22,
			"componentType":5126,
			"count":75,
			"type":"VEC4"
		}
	],
	"bufferViews":[
		{
			"buffer":0,
			"byteLength":1260,
			"byteOffset":0,
			"target":34962
		},
		{
			"buffer":0,
			"byteLength":1260,
			"byteOffset":1260,
			"target":34962
		},
		{
			"buffer":0,
			"byteLength":840,
			"byteOffset":2520,
			"target":34962
		},
		{
			"buffer":0,
			"byteLength":1680,
			"byteOffset":3360,
			"target":34962
		},
		{
			"buffer":0,
			"byteLength":960,
			"byteOffset":5040,
			"target":34963
		},
		{
			"buffer":0,
			"byteLength":1260,
			"byteOffset":6000,
			"target":34962
		},
		{
			"buffer":0,
			"byteLength":1260,
			"byteOffset":7260,
			"target":34962
		},
		{
			"buffer":0,
			"byteLength":840,
			"byteOffset":8520,
			"target":34962
		},
		{
			"buffer":0,
			"byteLength":1680,
			"byteOffset":9360,
			"target":34962
		},
		{
			"buffer":0,
			"byteLength":900,
			"byteOffset":11040,
			"target":34962
		},
		{
			"buffer":0,
			"byteLength":900,
			"byteOffset":11940,
			"target":34962
		},
		{
			"buffer":0,
			"byteLength":600,
			"byteOffset":12840,
			"target":34962
		},
		{
			"buffer":0,
			"byteLength":1200,
			"byteOffset":13440,
			"target":34962
		},
		{
			"buffer":0,
			"byteLength":672,
			"byteOffset":14640,
			"target":34963
		},
		{
			"buffer":0,
			"byteLength":1260,
			"byteOffset":15312,
			"target":34962
		},
		{
			"buffer":0,
			"byteLength":1260,
			"byteOffset":16572,
			"target":34962
		},
		{
			"buffer":0,
			"byteLength":840,
			"byteOffset":17832,
			"target":34962
		},
		{
			"buffer":0,
			"byteLength":1680,
			"byteOffset":18672,
			"target":34962
		},
		{
			"buffer":0,
			"byteLength":960,
			"byteOffset":20352,
			"target":34963
		},
		{
			"buffer":0,
			"byteLength":900,
			"byteOffset":21312,
			"target":34962
		},
		{
			"buffer":0,
			"byteLength":900,
			"byteOffset":22212,
			"target":34962
		},
		{
			"buffer":0,
			"byteLength":600,
			"byteOffset":23112,
			"target":34962
		},
		{
			"buffer":0,
			"byteLength":1200,
			"byteOffset":23712,
			"target":34962
		}
	],
	"samplers":[
		{
			"magFilter":9729,
			"minFilter":9987
		}
	],
	"buffers":[
		{
			"byteLength":24912,
			"uri":"bacon.bin"
		}
	]
}
