{
	"asset":{
		"generator":"Khronos glTF Blender I/O v4.0.44",
		"version":"2.0"
	},
	"scene":0,
	"scenes":[
		{
			"name":"Scene",
			"nodes":[
				0,
				1,
				2,
				3,
				4,
				5,
				6,
				7,
				8,
				9
			]
		}
	],
	"nodes":[
		{
			"mesh":0,
			"name":"Table Top",
			"scale":[
				6.826266288757324,
				0.5645678043365479,
				12.075618743896484
			],
			"translation":[
				0,
				10.848024368286133,
				0
			]
		},
		{
			"mesh":1,
			"name":"Tables under carrage",
			"scale":[
				3.193575620651245,
				2.615201711654663,
				3.928818941116333
			],
			"translation":[
				0.1001366525888443,
				10.863661766052246,
				-0.017998550087213516
			]
		},
		{
			"mesh":2,
			"name":"pole",
			"scale":[
				0.39807435870170593,
				4.147342205047607,
				0.4416363835334778
			],
			"translation":[
				0.1101914569735527,
				4.8479814529418945,
				-0.06853579729795456
			]
		},
		{
			"mesh":3,
			"name":"TABLEBase",
			"rotation":[
				-0.9999829530715942,
				0,
				0,
				0.0058390009216964245
			],
			"scale":[
				5.028769493103027,
				1.005527138710022,
				9.070428848266602
			],
			"translation":[
				0.15520043671131134,
				-0.0727921575307846,
				-0.027266643941402435
			]
		},
		{
			"mesh":4,
			"name":"SEATAss of cseat",
			"scale":[
				6.077908515930176,
				2.7145283222198486,
				13.762147903442383
			],
			"translation":[
				14.979560852050781,
				2.895260810852051,
				0
			]
		},
		{
			"mesh":5,
			"name":"SEATBack of seat",
			"scale":[
				1.5230904817581177,
				5.035923004150391,
				13.762147903442383
			],
			"translation":[
				19.49673080444336,
				10.551904678344727,
				0
			]
		},
		{
			"mesh":6,
			"name":"SEATSide Left",
			"scale":[
				5.853165149688721,
				1.2385363578796387,
				0.22268562018871307
			],
			"translation":[
				14.779556274414062,
				6.266264915466309,
				-13.48764419555664
			]
		},
		{
			"mesh":7,
			"name":"SEAT2Side Left.001",
			"rotation":[
				0,
				0.9999998807907104,
				0,
				0.0006541769253090024
			],
			"scale":[
				5.670925617218018,
				1.2385363578796387,
				0.22268559038639069
			],
			"translation":[
				-13.474352836608887,
				6.266264915466309,
				-13.437997817993164
			]
		},
		{
			"mesh":8,
			"name":"SEAT2Back of seat.001",
			"rotation":[
				0,
				0.9999998807907104,
				0,
				0.0006541769253090024
			],
			"scale":[
				1.5230904817581177,
				5.035923004150391,
				13.572669982910156
			],
			"translation":[
				-18.373857498168945,
				10.551904678344727,
				-0.17417290806770325
			]
		},
		{
			"mesh":9,
			"name":"SEAT2Ass of cseat.001",
			"rotation":[
				0,
				0.9999998807907104,
				0,
				0.0006541769253090024
			],
			"scale":[
				6.077908515930176,
				2.7145283222198486,
				13.762147903442383
			],
			"translation":[
				-13.85669231414795,
				2.895260810852051,
				0.011737138032913208
			]
		}
	],
	"materials":[
		{
			"doubleSided":true,
			"name":"Table",
			"pbrMetallicRoughness":{
				"baseColorTexture":{
					"index":0
				},
				"metallicFactor":0,
				"roughnessFactor":0.5
			}
		},
		{
			"doubleSided":true,
			"name":"Under carriage",
			"pbrMetallicRoughness":{
				"baseColorTexture":{
					"index":1
				},
				"metallicFactor":0,
				"roughnessFactor":0.5
			}
		},
		{
			"doubleSided":true,
			"name":"Pole",
			"pbrMetallicRoughness":{
				"baseColorTexture":{
					"index":2
				},
				"metallicFactor":0,
				"roughnessFactor":0.5
			}
		},
		{
			"doubleSided":true,
			"name":"Base",
			"pbrMetallicRoughness":{
				"baseColorTexture":{
					"index":3
				},
				"metallicFactor":0,
				"roughnessFactor":0.5
			}
		},
		{
			"doubleSided":true,
			"name":"Material.007",
			"pbrMetallicRoughness":{
				"baseColorTexture":{
					"index":4
				},
				"metallicFactor":0,
				"roughnessFactor":0.5
			}
		},
		{
			"doubleSided":true,
			"name":"Material.001",
			"pbrMetallicRoughness":{
				"baseColorTexture":{
					"index":5
				},
				"metallicFactor":0,
				"roughnessFactor":0.5
			}
		},
		{
			"doubleSided":true,
			"name":"Material.003",
			"pbrMetallicRoughness":{
				"baseColorTexture":{
					"index":6
				},
				"metallicFactor":0,
				"roughnessFactor":0.5
			}
		},
		{
			"doubleSided":true,
			"name":"Material.004",
			"pbrMetallicRoughness":{
				"baseColorTexture":{
					"index":7
				},
				"metallicFactor":0,
				"roughnessFactor":0.5
			}
		},
		{
			"doubleSided":true,
			"name":"Material.002",
			"pbrMetallicRoughness":{
				"baseColorTexture":{
					"index":8
				},
				"metallicFactor":0,
				"roughnessFactor":0.5
			}
		},
		{
			"doubleSided":true,
			"name":"Material.008",
			"pbrMetallicRoughness":{
				"baseColorTexture":{
					"index":9
				},
				"metallicFactor":0,
				"roughnessFactor":0.5
			}
		}
	],
	"meshes":[
		{
			"name":"Cube.002",
			"primitives":[
				{
					"attributes":{
						"POSITION":0,
						"NORMAL":1,
						"TEXCOORD_0":2,
						"TANGENT":3
					},
					"indices":4,
					"material":0
				}
			]
		},
		{
			"name":"Sphere",
			"primitives":[
				{
					"attributes":{
						"POSITION":5,
						"NORMAL":6,
						"TEXCOORD_0":7,
						"TANGENT":8
					},
					"indices":9,
					"material":1
				}
			]
		},
		{
			"name":"Cube.003",
			"primitives":[
				{
					"attributes":{
						"POSITION":10,
						"NORMAL":11,
						"TEXCOORD_0":12,
						"TANGENT":13
					},
					"indices":4,
					"material":2
				}
			]
		},
		{
			"name":"Sphere.002",
			"primitives":[
				{
					"attributes":{
						"POSITION":14,
						"NORMAL":15,
						"TEXCOORD_0":16,
						"TANGENT":17
					},
					"indices":9,
					"material":3
				}
			]
		},
		{
			"name":"Cube.004",
			"primitives":[
				{
					"attributes":{
						"POSITION":18,
						"NORMAL":19,
						"TEXCOORD_0":20,
						"TANGENT":21
					},
					"indices":4,
					"material":4
				}
			]
		},
		{
			"name":"Cube.005",
			"primitives":[
				{
					"attributes":{
						"POSITION":22,
						"NORMAL":23,
						"TEXCOORD_0":24,
						"TANGENT":25
					},
					"indices":4,
					"material":5
				}
			]
		},
		{
			"name":"Cube.009",
			"primitives":[
				{
					"attributes":{
						"POSITION":26,
						"NORMAL":27,
						"TEXCOORD_0":28,
						"TANGENT":29
					},
					"indices":4,
					"material":6
				}
			]
		},
		{
			"name":"Cube.011",
			"primitives":[
				{
					"attributes":{
						"POSITION":30,
						"NORMAL":31,
						"TEXCOORD_0":32,
						"TANGENT":33
					},
					"indices":4,
					"material":7
				}
			]
		},
		{
			"name":"Cube.012",
			"primitives":[
				{
					"attributes":{
						"POSITION":34,
						"NORMAL":35,
						"TEXCOORD_0":36,
						"TANGENT":37
					},
					"indices":4,
					"material":8
				}
			]
		},
		{
			"name":"Cube.013",
			"primitives":[
				{
					"attributes":{
						"POSITION":38,
						"NORMAL":39,
						"TEXCOORD_0":40,
						"TANGENT":41
					},
					"indices":4,
					"material":9
				}
			]
		}
	],
	"textures":[
		{
			"sampler":0,
			"source":0
		},
		{
			"sampler":0,
			"source":1
		},
		{
			"sampler":0,
			"source":1
		},
		{
			"sampler":0,
			"source":1
		},
		{
			"sampler":0,
			"source":2
		},
		{
			"sampler":0,
			"source":2
		},
		{
			"sampler":0,
			"source":0
		},
		{
			"sampler":0,
			"source":0
		},
		{
			"sampler":0,
			"source":2
		},
		{
			"sampler":0,
			"source":2
		}
	],
	"images":[
		{
			"mimeType":"image/png",
			"name":"WoodType1",
			"uri":"WoodType1.png"
		},
		{
			"mimeType":"image/png",
			"name":"SteelType1",
			"uri":"SteelType1.png"
		},
		{
			"mimeType":"image/png",
			"name":"CushinType1",
			"uri":"CushinType1.png"
		}
	],
	"accessors":[
		{
			"bufferView":0,
			"componentType":5126,
			"count":24,
			"max":[
				1,
				1,
				1
			],
			"min":[
				-1,
				-1,
				-1
			],
			"type":"VEC3"
		},
		{
			"bufferView":1,
			"componentType":5126,
			"count":24,
			"type":"VEC3"
		},
		{
			"bufferView":2,
			"componentType":5126,
			"count":24,
			"type":"VEC2"
		},
		{
			"bufferView":3,
			"componentType":5126,
			"count":24,
			"type":"VEC4"
		},
		{
			"bufferView":4,
			"componentType":5123,
			"count":36,
			"type":"SCALAR"
		},
		{
			"bufferView":5,
			"componentType":5126,
			"count":864,
			"max":[
				0.9807851314544678,
				-0.19467991590499878,
				0.9807849526405334
			],
			"min":[
				-0.9807848334312439,
				-1,
				-0.9807852506637573
			],
			"type":"VEC3"
		},
		{
			"bufferView":6,
			"componentType":5126,
			"count":864,
			"type":"VEC3"
		},
		{
			"bufferView":7,
			"componentType":5126,
			"count":864,
			"type":"VEC2"
		},
		{
			"bufferView":8,
			"componentType":5126,
			"count":864,
			"type":"VEC4"
		},
		{
			"bufferView":9,
			"componentType":5123,
			"count":1248,
			"type":"SCALAR"
		},
		{
			"bufferView":10,
			"componentType":5126,
			"count":24,
			"max":[
				1,
				1,
				1
			],
			"min":[
				-1,
				-1,
				-1
			],
			"type":"VEC3"
		},
		{
			"bufferView":11,
			"componentType":5126,
			"count":24,
			"type":"VEC3"
		},
		{
			"bufferView":12,
			"componentType":5126,
			"count":24,
			"type":"VEC2"
		},
		{
			"bufferView":13,
			"componentType":5126,
			"count":24,
			"type":"VEC4"
		},
		{
			"bufferView":14,
			"componentType":5126,
			"count":864,
			"max":[
				0.9807851314544678,
				-0.19467991590499878,
				0.9807849526405334
			],
			"min":[
				-0.9807848334312439,
				-1,
				-0.9807852506637573
			],
			"type":"VEC3"
		},
		{
			"bufferView":15,
			"componentType":5126,
			"count":864,
			"type":"VEC3"
		},
		{
			"bufferView":16,
			"componentType":5126,
			"count":864,
			"type":"VEC2"
		},
		{
			"bufferView":17,
			"componentType":5126,
			"count":864,
			"type":"VEC4"
		},
		{
			"bufferView":18,
			"componentType":5126,
			"count":24,
			"max":[
				1,
				1,
				1
			],
			"min":[
				-1,
				-1,
				-1
			],
			"type":"VEC3"
		},
		{
			"bufferView":19,
			"componentType":5126,
			"count":24,
			"type":"VEC3"
		},
		{
			"bufferView":20,
			"componentType":5126,
			"count":24,
			"type":"VEC2"
		},
		{
			"bufferView":21,
			"componentType":5126,
			"count":24,
			"type":"VEC4"
		},
		{
			"bufferView":22,
			"componentType":5126,
			"count":24,
			"max":[
				1,
				1,
				1
			],
			"min":[
				-1,
				-1,
				-1
			],
			"type":"VEC3"
		},
		{
			"bufferView":23,
			"componentType":5126,
			"count":24,
			"type":"VEC3"
		},
		{
			"bufferView":24,
			"componentType":5126,
			"count":24,
			"type":"VEC2"
		},
		{
			"bufferView":25,
			"componentType":5126,
			"count":24,
			"type":"VEC4"
		},
		{
			"bufferView":26,
			"componentType":5126,
			"count":24,
			"max":[
				1,
				1,
				1
			],
			"min":[
				-1,
				-1,
				-1
			],
			"type":"VEC3"
		},
		{
			"bufferView":27,
			"componentType":5126,
			"count":24,
			"type":"VEC3"
		},
		{
			"bufferView":28,
			"componentType":5126,
			"count":24,
			"type":"VEC2"
		},
		{
			"bufferView":29,
			"componentType":5126,
			"count":24,
			"type":"VEC4"
		},
		{
			"bufferView":30,
			"componentType":5126,
			"count":24,
			"max":[
				1,
				1,
				1
			],
			"min":[
				-1,
				-1,
				-1
			],
			"type":"VEC3"
		},
		{
			"bufferView":31,
			"componentType":5126,
			"count":24,
			"type":"VEC3"
		},
		{
			"bufferView":32,
			"componentType":5126,
			"count":24,
			"type":"VEC2"
		},
		{
			"bufferView":33,
			"componentType":5126,
			"count":24,
			"type":"VEC4"
		},
		{
			"bufferView":34,
			"componentType":5126,
			"count":24,
			"max":[
				1,
				1,
				1
			],
			"min":[
				-1,
				-1,
				-1
			],
			"type":"VEC3"
		},
		{
			"bufferView":35,
			"componentType":5126,
			"count":24,
			"type":"VEC3"
		},
		{
			"bufferView":36,
			"componentType":5126,
			"count":24,
			"type":"VEC2"
		},
		{
			"bufferView":37,
			"componentType":5126,
			"count":24,
			"type":"VEC4"
		},
		{
			"bufferView":38,
			"componentType":5126,
			"count":24,
			"max":[
				1,
				1,
				1
			],
			"min":[
				-1,
				-1,
				-1
			],
			"type":"VEC3"
		},
		{
			"bufferView":39,
			"componentType":5126,
			"count":24,
			"type":"VEC3"
		},
		{
			"bufferView":40,
			"componentType":5126,
			"count":24,
			"type":"VEC2"
		},
		{
			"bufferView":41,
			"componentType":5126,
			"count":24,
			"type":"VEC4"
		}
	],
	"bufferViews":[
		{
			"buffer":0,
			"byteLength":288,
			"byteOffset":0,
			"target":34962
		},
		{
			"buffer":0,
			"byteLength":288,
			"byteOffset":288,
			"target":34962
		},
		{
			"buffer":0,
			"byteLength":192,
			"byteOffset":576,
			"target":34962
		},
		{
			"buffer":0,
			"byteLength":384,
			"byteOffset":768,
			"target":34962
		},
		{
			"buffer":0,
			"byteLength":72,
			"byteOffset":1152,
			"target":34963
		},
		{
			"buffer":0,
			"byteLength":10368,
			"byteOffset":1224,
			"target":34962
		},
		{
			"buffer":0,
			"byteLength":10368,
			"byteOffset":11592,
			"target":34962
		},
		{
			"buffer":0,
			"byteLength":6912,
			"byteOffset":21960,
			"target":34962
		},
		{
			"buffer":0,
			"byteLength":13824,
			"byteOffset":28872,
			"target":34962
		},
		{
			"buffer":0,
			"byteLength":2496,
			"byteOffset":42696,
			"target":34963
		},
		{
			"buffer":0,
			"byteLength":288,
			"byteOffset":45192,
			"target":34962
		},
		{
			"buffer":0,
			"byteLength":288,
			"byteOffset":45480,
			"target":34962
		},
		{
			"buffer":0,
			"byteLength":192,
			"byteOffset":45768,
			"target":34962
		},
		{
			"buffer":0,
			"byteLength":384,
			"byteOffset":45960,
			"target":34962
		},
		{
			"buffer":0,
			"byteLength":10368,
			"byteOffset":46344,
			"target":34962
		},
		{
			"buffer":0,
			"byteLength":10368,
			"byteOffset":56712,
			"target":34962
		},
		{
			"buffer":0,
			"byteLength":6912,
			"byteOffset":67080,
			"target":34962
		},
		{
			"buffer":0,
			"byteLength":13824,
			"byteOffset":73992,
			"target":34962
		},
		{
			"buffer":0,
			"byteLength":288,
			"byteOffset":87816,
			"target":34962
		},
		{
			"buffer":0,
			"byteLength":288,
			"byteOffset":88104,
			"target":34962
		},
		{
			"buffer":0,
			"byteLength":192,
			"byteOffset":88392,
			"target":34962
		},
		{
			"buffer":0,
			"byteLength":384,
			"byteOffset":88584,
			"target":34962
		},
		{
			"buffer":0,
			"byteLength":288,
			"byteOffset":88968,
			"target":34962
		},
		{
			"buffer":0,
			"byteLength":288,
			"byteOffset":89256,
			"target":34962
		},
		{
			"buffer":0,
			"byteLength":192,
			"byteOffset":89544,
			"target":34962
		},
		{
			"buffer":0,
			"byteLength":384,
			"byteOffset":89736,
			"target":34962
		},
		{
			"buffer":0,
			"byteLength":288,
			"byteOffset":90120,
			"target":34962
		},
		{
			"buffer":0,
			"byteLength":288,
			"byteOffset":90408,
			"target":34962
		},
		{
			"buffer":0,
			"byteLength":192,
			"byteOffset":90696,
			"target":34962
		},
		{
			"buffer":0,
			"byteLength":384,
			"byteOffset":90888,
			"target":34962
		},
		{
			"buffer":0,
			"byteLength":288,
			"byteOffset":91272,
			"target":34962
		},
		{
			"buffer":0,
			"byteLength":288,
			"byteOffset":91560,
			"target":34962
		},
		{
			"buffer":0,
			"byteLength":192,
			"byteOffset":91848,
			"target":34962
		},
		{
			"buffer":0,
			"byteLength":384,
			"byteOffset":92040,
			"target":34962
		},
		{
			"buffer":0,
			"byteLength":288,
			"byteOffset":92424,
			"target":34962
		},
		{
			"buffer":0,
			"byteLength":288,
			"byteOffset":92712,
			"target":34962
		},
		{
			"buffer":0,
			"byteLength":192,
			"byteOffset":93000,
			"target":34962
		},
		{
			"buffer":0,
			"byteLength":384,
			"byteOffset":93192,
			"target":34962
		},
		{
			"buffer":0,
			"byteLength":288,
			"byteOffset":93576,
			"target":34962
		},
		{
			"buffer":0,
			"byteLength":288,
			"byteOffset":93864,
			"target":34962
		},
		{
			"buffer":0,
			"byteLength":192,
			"byteOffset":94152,
			"target":34962
		},
		{
			"buffer":0,
			"byteLength":384,
			"byteOffset":94344,
			"target":34962
		}
	],
	"samplers":[
		{
			"magFilter":9729,
			"minFilter":9987
		}
	],
	"buffers":[
		{
			"byteLength":94728,
			"uri":"TrainingBooth.bin"
		}
	]
}
